<svg width="16" height="16" viewBox="0 0 16 16" fill="none" xmlns="http://www.w3.org/2000/svg">
<path d="M15.5102 14.6044L11.131 10.2252C11.9793 9.17741 12.49 7.846 12.49 6.3959C12.49 3.03498 9.75532 0.300293 6.3944 0.300293C3.03348 0.300293 0.298828 3.03495 0.298828 6.39587C0.298828 9.75679 3.03351 12.4915 6.39443 12.4915C7.84453 12.4915 9.17595 11.9807 10.2237 11.1325L14.6029 15.5117C14.7281 15.6368 14.8923 15.6997 15.0566 15.6997C15.2209 15.6997 15.3851 15.6368 15.5102 15.5117C15.7611 15.2608 15.7611 14.8553 15.5102 14.6044ZM6.39443 11.2082C3.74059 11.2082 1.58212 9.04971 1.58212 6.39587C1.58212 3.74203 3.74059 1.58356 6.39443 1.58356C9.04827 1.58356 11.2067 3.74203 11.2067 6.39587C11.2067 9.04971 9.04824 11.2082 6.39443 11.2082Z" fill="white"/>
</svg>
