<svg width="29" height="28" viewBox="0 0 29 28" fill="none" xmlns="http://www.w3.org/2000/svg">
<path d="M8.42427 16.9548H8.35021L8.32862 17.0256L7.55705 19.557H5.74507L9.07503 9.63327H11.2734L14.5885 19.557H12.6734L11.9018 17.0256L11.8802 16.9548H11.8062H8.42427ZM10.2632 11.44L10.2418 11.3689H10.1675H10.0781H10.0039L9.98238 11.44L8.7437 15.534L8.70468 15.663H8.83941H11.4062H11.5409L11.5019 15.534L10.2632 11.44ZM18.1987 11.7849H18.2987V11.7846C19.3268 11.8136 20.0838 12.29 20.3598 13.0181L20.3842 13.0827H20.4533H20.5427H20.6427V12.9827V9.1H22.4003V19.557H20.6798V18.3964V18.2964H20.5798H20.4836H20.4097L20.388 18.3671C20.1608 19.11 19.2932 19.6532 18.1767 19.6532C17.3123 19.6532 16.607 19.3411 16.1166 18.7734C15.6247 18.204 15.3404 17.3676 15.3404 16.3055V15.1326C15.3404 14.0717 15.6283 13.2353 16.1247 12.6657C16.6198 12.0975 17.3307 11.7849 18.1987 11.7849ZM18.9518 13.145V13.1409H18.8518C18.3311 13.1409 17.8985 13.3406 17.5986 13.7223C17.301 14.1009 17.1418 14.6486 17.1418 15.3334V16.0979C17.1418 16.7862 17.3028 17.3375 17.6052 17.7187C17.91 18.103 18.3501 18.304 18.8821 18.304C19.4051 18.304 19.8492 18.1073 20.161 17.7368C20.4713 17.3681 20.6427 16.8367 20.6427 16.1789V15.163C20.6427 14.554 20.4584 14.0485 20.1385 13.6941C19.8389 13.3621 19.4259 13.1688 18.9518 13.145ZM26.7293 5.40934C26.3711 5.03057 25.8841 4.81667 25.375 4.81667H3.625C3.11591 4.81667 2.62889 5.03057 2.27071 5.40934C1.91271 5.78791 1.7125 6.30023 1.7125 6.83333V22.1667C1.7125 22.6998 1.91271 23.2121 2.27071 23.5907C2.62889 23.9694 3.11591 24.1833 3.625 24.1833H25.375C25.8841 24.1833 26.3711 23.9694 26.7293 23.5907C27.0873 23.2121 27.2875 22.6998 27.2875 22.1667V6.83333C27.2875 6.30023 27.0873 5.78791 26.7293 5.40934ZM1.1344 4.19147C1.79595 3.49189 2.69197 3.1 3.625 3.1H25.375C26.308 3.1 27.2041 3.49189 27.8656 4.19147C28.5273 4.89123 28.9 5.84144 28.9 6.83333V22.1667C28.9 23.1586 28.5273 24.1088 27.8656 24.8085C27.2041 25.5081 26.308 25.9 25.375 25.9H3.625C2.69197 25.9 1.79595 25.5081 1.1344 24.8085C0.472664 24.1088 0.1 23.1586 0.1 22.1667V6.83333C0.1 5.84144 0.472664 4.89123 1.1344 4.19147Z" fill="white" stroke="#002E50" stroke-width="0.2"/>
</svg>
