<svg width="32" height="32" viewBox="0 0 32 32" fill="none" xmlns="http://www.w3.org/2000/svg">
<path d="M16 19.1025C17.5957 19.1025 18.8893 17.809 18.8893 16.2133C18.8893 14.6176 17.5957 13.3241 16 13.3241C14.4044 13.3241 13.1108 14.6176 13.1108 16.2133C13.1108 17.809 14.4044 19.1025 16 19.1025Z" stroke="#002E50" stroke-width="2" stroke-linecap="round" stroke-linejoin="round"/>
<path d="M22.1252 10.0882C22.9311 10.8932 23.5704 11.8492 24.0066 12.9014C24.4428 13.9536 24.6673 15.0815 24.6673 16.2206C24.6673 17.3596 24.4428 18.4875 24.0066 19.5398C23.5704 20.592 22.9311 21.5479 22.1252 22.3529M9.87496 22.3385C9.06908 21.5335 8.42976 20.5775 7.99357 19.5253C7.55738 18.4731 7.33286 17.3452 7.33286 16.2061C7.33286 15.0671 7.55738 13.9392 7.99357 12.8869C8.42976 11.8347 9.06908 10.8788 9.87496 10.0738M26.2134 6C28.9216 8.70903 30.443 12.3828 30.443 16.2133C30.443 20.0439 28.9216 23.7177 26.2134 26.4267M5.78673 26.4267C3.07852 23.7177 1.55713 20.0439 1.55713 16.2133C1.55713 12.3828 3.07852 8.70903 5.78673 6" stroke="#002E50" stroke-width="2" stroke-linecap="round" stroke-linejoin="round"/>
</svg>
