<svg width="68" height="68" viewBox="0 0 68 68" fill="none" xmlns="http://www.w3.org/2000/svg">
<path d="M9.42384 22.0259C8.2522 22.0259 7.25811 22.4345 6.44095 23.2516C5.62379 24.0688 5.21509 25.0493 5.21509 26.1938V43.7658C5.21509 44.9389 5.62367 45.9321 6.44095 46.7494C7.25811 47.5666 8.2522 47.9753 9.42384 47.9753C10.5946 47.9753 11.5827 47.5667 12.3872 46.7494C13.1901 45.9323 13.5926 44.9389 13.5926 43.7658V26.1938C13.5926 25.0492 13.184 24.0688 12.3668 23.2516C11.5495 22.4345 10.5683 22.0259 9.42384 22.0259Z" fill="#D6B9FC"/>
<path d="M43.2657 6.25186L46.1672 0.899388C46.3577 0.545032 46.2899 0.273302 45.9634 0.0822296C45.6089 -0.0825301 45.3365 0.000956335 45.1462 0.326787L42.2041 5.72205C39.6153 4.57746 36.8772 4.00412 33.9899 4.00412C31.1019 4.00412 28.3636 4.57759 25.7758 5.72205L22.8336 0.326787C22.6424 0.000956335 22.37 -0.0817923 22.0164 0.0822296C21.6891 0.274162 21.6214 0.545032 21.8126 0.899388L24.7142 6.25186C21.772 7.75228 19.4287 9.8419 17.6852 12.5253C15.9417 15.2101 15.0696 18.1441 15.0696 21.3323H52.8691C52.8691 18.1448 51.9969 15.2107 50.2535 12.5253C48.5099 9.8419 46.1801 7.75228 43.2657 6.25186ZM26.4906 14.0371C26.1768 14.3516 25.8021 14.5082 25.3664 14.5082C24.93 14.5082 24.5628 14.3516 24.2633 14.0371C23.9638 13.7241 23.814 13.3508 23.814 12.9137C23.814 12.4781 23.9638 12.104 24.2633 11.7902C24.5628 11.4772 24.9308 11.3207 25.3664 11.3207C25.8021 11.3207 26.1768 11.4772 26.4906 11.7902C26.8037 12.1048 26.9609 12.4781 26.9609 12.9137C26.9601 13.3501 26.8029 13.7241 26.4906 14.0371ZM43.7149 14.0371C43.4148 14.3516 43.0468 14.5082 42.6119 14.5082C42.1753 14.5082 41.8006 14.3516 41.4874 14.0371C41.1738 13.7241 41.0173 13.3508 41.0173 12.9137C41.0173 12.4781 41.1738 12.104 41.4874 11.7902C41.8006 11.4772 42.1753 11.3207 42.6119 11.3207C43.0475 11.3207 43.4146 11.4772 43.7149 11.7902C44.0147 12.1048 44.1642 12.4781 44.1642 12.9137C44.1642 13.3501 44.0145 13.7241 43.7149 14.0371Z" fill="#D6B9FC"/>
<path d="M15.229 50.0182C15.229 51.2725 15.6646 52.3344 16.536 53.2058C17.4081 54.0771 18.47 54.5128 19.7235 54.5128H22.7477L22.7891 63.7902C22.7891 64.9617 23.1977 65.9566 24.0149 66.7738C24.832 67.5911 25.8133 67.9997 26.9571 67.9997C28.128 67.9997 29.1227 67.5911 29.94 66.7738C30.7572 65.9566 31.1658 64.9618 31.1658 63.7902V54.5136H36.805V63.7902C36.805 64.9617 37.2135 65.9566 38.0308 66.7738C38.848 67.5911 39.8419 67.9997 41.0136 67.9997C42.1845 67.9997 43.1793 67.5911 43.9965 66.7738C44.8138 65.9566 45.2223 64.9618 45.2223 63.7902V54.5136H48.2873C49.513 54.5136 50.5612 54.0779 51.4342 53.2065C52.3055 52.3351 52.7413 51.2733 52.7413 50.019V22.8016H15.229V50.0182Z" fill="#D6B9FC"/>
<path d="M58.5501 22.0259C57.4055 22.0259 56.4251 22.4284 55.6078 23.2313C54.7907 24.0357 54.3821 25.0238 54.3821 26.1938V43.7658C54.3821 44.9389 54.7905 45.9321 55.6078 46.7494C56.4251 47.5667 57.4063 47.9753 58.5501 47.9753C59.721 47.9753 60.7157 47.5667 61.533 46.7494C62.3503 45.9321 62.7588 44.9389 62.7588 43.7658V26.1938C62.7588 25.0236 62.3503 24.0357 61.533 23.2313C60.7157 22.4284 59.721 22.0259 58.5501 22.0259Z" fill="#D6B9FC"/>
</svg>
