<svg width="56" height="65" viewBox="0 0 56 65" fill="none" xmlns="http://www.w3.org/2000/svg">
<path d="M26.6344 15.8825C26.6344 16.0977 26.4192 16.0977 26.4192 16.0977H26.204C25.9888 16.0977 25.9888 15.8825 25.7736 15.6673C25.7736 15.6673 25.5584 15.4521 25.5584 15.2369C25.5584 15.0217 25.5584 15.0217 25.7736 15.0217L26.204 15.2369C26.4192 15.4521 26.6344 15.6673 26.6344 15.8825ZM22.7607 13.7304C22.7607 12.6544 22.3302 12.0087 21.6846 12.0087C21.6846 12.0087 21.6846 12.2239 21.4694 12.2239V12.6544H22.115C22.115 13.0848 22.3302 13.3 22.3302 13.7304H22.7607ZM30.293 12.6544C30.7234 12.6544 30.9386 13.0848 31.1539 13.7304H31.5843C31.3691 13.5152 31.3691 13.3 31.3691 13.0848C31.3691 12.8696 31.3691 12.6544 31.1539 12.4392C30.9386 12.2239 30.7234 12.0087 30.5082 12.0087C30.5082 12.0087 30.293 12.2239 30.0778 12.2239C30.0778 12.4392 30.293 12.4392 30.293 12.6544ZM23.8367 16.0977C23.6215 16.0977 23.6215 16.0977 23.6215 15.8825C23.6215 15.6673 23.6215 15.4521 23.8367 15.2369C24.2671 15.2369 24.4823 15.0217 24.4823 15.0217C24.6975 15.0217 24.6975 15.2369 24.6975 15.2369C24.6975 15.4521 24.4823 15.6673 24.0519 16.0977H23.8367ZM21.4694 15.8825C20.6085 15.4521 20.3933 14.8065 20.3933 13.7304C20.3933 13.0848 20.3933 12.6544 20.8238 12.2239C21.039 11.7935 21.4694 11.5783 21.8998 11.5783C22.3302 11.5783 22.5454 11.7935 22.9759 12.2239C23.1911 12.8696 23.4063 13.5152 23.4063 14.1608V14.3761V14.5913H23.6215V14.3761C23.8367 14.3761 23.8367 13.9456 23.8367 13.0848C23.8367 12.4392 23.8367 11.7935 23.4063 11.1479C22.9759 10.5023 22.5454 10.0718 21.6846 10.0718C21.039 10.0718 20.3933 10.5023 20.1781 11.1479C19.7477 12.0087 19.6616 12.6544 19.6616 13.7304C19.6616 14.5913 19.9629 15.4521 20.8238 16.3129C21.039 16.0977 21.2542 16.0977 21.4694 15.8825ZM48.3707 46.2272C48.5859 46.2272 48.5859 46.1411 48.5859 45.9474C48.5859 45.474 48.3707 44.9144 47.7251 44.2903C47.0794 43.6447 46.0034 43.2358 44.7121 43.0636C44.4969 43.0421 44.2817 43.0421 44.2817 43.0421C44.0665 42.999 44.0665 42.999 43.8513 42.999C43.6361 42.9775 43.2056 42.9345 42.9904 42.8914C43.6361 40.89 43.8513 39.1253 43.8513 37.5757C43.8513 35.4236 43.4208 33.9172 42.56 32.6259C41.6992 31.3346 40.8383 30.689 39.7623 30.4738C39.5471 30.689 39.5471 30.689 39.5471 30.9042C40.6231 31.3346 41.6992 32.1955 42.3448 33.4867C42.9904 34.9932 43.2056 36.2845 43.2056 37.7909C43.2056 38.9961 42.9904 40.7824 42.1296 43.0636C41.2687 43.4079 40.4079 44.2042 39.7623 45.4524C39.7623 45.6461 39.7623 45.7537 39.9775 45.7537C39.9775 45.7537 40.1927 45.56 40.4079 45.1942C40.8383 44.8283 41.0535 44.4625 41.484 44.0966C42.1296 43.7308 42.56 43.5371 43.2056 43.5371C44.2817 43.5371 45.3577 43.6877 46.0034 43.989C46.8642 44.2688 47.2946 44.5701 47.5098 44.9144C47.7251 45.2372 47.9403 45.5385 48.1555 45.8183C48.1555 46.0981 48.3707 46.2272 48.3707 46.2272ZM28.5713 15.0217C28.3561 14.8065 28.3561 14.3761 28.3561 13.9456C28.3561 13.0848 28.3561 12.6544 28.7865 12.0087C29.217 11.5783 29.6474 11.3631 30.0778 11.3631C30.7234 11.3631 31.1539 11.7935 31.5843 12.2239C31.7995 12.8696 32.0147 13.3 32.0147 13.9456C32.0147 15.0217 31.5843 15.6673 30.7234 15.8825C30.7234 15.8825 30.9386 16.0977 31.1539 16.0977C31.5843 16.0977 31.7995 16.3129 32.2299 16.5282C32.4451 15.2369 32.6603 14.3761 32.6603 13.3C32.6603 12.0087 32.4451 11.1479 32.0147 10.5023C31.3691 9.85663 30.7234 9.64142 29.8626 9.64142C29.217 9.64142 28.5713 9.85663 27.9257 10.2871C27.4953 10.9327 27.2801 11.3631 27.2801 12.0087C27.2801 13.0848 27.4953 13.9456 27.9257 14.8065C28.1409 14.8065 28.3561 15.0217 28.5713 15.0217ZM31.1539 18.465C28.3561 20.4019 26.204 21.2628 24.4823 21.2628C22.9759 21.2628 21.4694 20.6172 20.1781 19.5411C20.3933 19.9715 20.6085 20.4019 20.8238 20.6172L22.115 21.9084C22.9759 22.7693 24.0519 23.1997 25.128 23.1997C26.6344 23.1997 28.3561 22.3388 30.5082 20.8324L32.4451 19.5411C32.8755 19.1107 33.306 18.6803 33.306 18.0346C33.306 17.8194 33.306 17.6042 33.0907 17.6042C32.8755 17.1738 31.7995 16.5282 29.6474 15.8825C27.7105 15.0217 26.204 14.5913 25.3432 14.5913C24.6975 14.5913 23.6215 15.0217 22.115 15.8825C20.8238 16.7434 19.9629 17.6042 19.9629 18.465C19.9629 18.465 20.1781 18.6803 20.3933 19.1107C21.6846 20.1867 22.9759 20.8324 24.2671 20.8324C25.9888 20.8324 28.1409 19.9715 30.9386 17.8194V18.2498C31.1539 18.2498 31.1539 18.465 31.1539 18.465ZM36.1037 61.9376C36.9645 63.5559 38.471 64.3694 40.1927 64.3694C40.6231 64.3694 41.0535 64.3049 41.484 64.1757C41.9144 64.0897 42.3448 63.939 42.56 63.7668C42.7752 63.6162 42.9904 63.4655 43.2056 63.2934C43.6361 63.1427 43.6361 63.0351 43.8513 62.9275L47.5098 59.7639C48.3707 59.0774 49.2315 58.477 50.3076 57.9562C51.1684 57.4397 52.0293 57.0953 52.4597 56.9016C53.1053 56.7295 53.5357 56.4712 53.9662 56.1269C54.1814 55.8041 54.3966 55.3952 54.3966 54.8787C54.3966 54.2545 53.9662 53.7811 53.5357 53.4367C53.1053 53.0924 52.6749 52.8557 52.2445 52.705C51.814 52.5544 51.3836 52.21 50.738 51.629C50.3076 51.0694 49.8772 50.2947 49.6619 49.2832L49.4467 48.035C49.2315 47.4539 49.2315 47.0235 49.0163 46.7867C49.0163 46.7222 49.0163 46.7007 48.8011 46.7007C48.5859 46.7007 48.1555 46.8943 47.9403 47.2602C47.5098 47.6261 47.0794 48.035 46.649 48.4654C46.4338 48.8958 45.7882 49.2832 45.3577 49.649C44.7121 50.0149 44.0665 50.2086 43.6361 50.2086C41.9144 50.2086 41.0535 49.7351 40.4079 48.8097C39.9775 48.121 39.7623 47.3248 39.5471 46.4209C39.1166 46.055 38.9014 45.8613 38.471 45.8613C37.395 45.8613 36.9645 46.9804 36.9645 49.2401V49.9503V52.4468V54.3621V55.2876V55.9332C36.9645 56.1269 36.7493 56.5573 36.7493 57.2244C36.5341 57.8916 36.5341 58.6491 36.5341 59.5057L36.1037 61.8945V61.9311V61.9376ZM4.89819 60.7926C6.89964 61.0853 9.2024 61.7116 11.8064 62.6671C14.4105 63.614 16.003 64.109 16.5841 64.109C18.0906 64.109 19.3388 63.4419 20.3718 62.1528C20.587 61.7353 20.587 61.2446 20.587 60.6807C20.587 58.647 19.3603 56.0752 16.9069 52.9547L15.4435 50.9963C15.1422 50.5874 14.7763 49.9632 14.3029 49.1239C13.8509 48.2846 13.442 47.639 13.1192 47.187C12.8395 46.692 12.3875 46.1971 11.8064 45.7021C11.2469 45.2071 10.6013 44.8843 9.89107 44.7121C8.98719 44.8843 8.36308 45.1856 8.06178 45.5945C7.76049 46.0034 7.58832 46.4553 7.54528 46.9288C7.48071 47.3807 7.35159 47.682 7.13638 47.8327C6.92117 47.9618 6.55531 48.0694 6.06032 48.177C5.95272 48.177 5.75903 48.177 5.47926 48.1985H4.89819C3.75757 48.1985 2.98282 48.3276 2.57392 48.5429C2.03589 49.167 1.75612 49.8772 1.75612 50.6304C1.75612 50.9747 1.8422 51.5558 2.01437 52.3736C2.18654 53.1699 2.27262 53.8155 2.27262 54.2675C2.27262 55.1498 2.01437 56.0322 1.47634 56.9145C0.938317 57.8399 0.658544 58.5286 0.658544 59.0193C0.873754 59.8543 2.29414 60.4418 4.89819 60.7862V60.7926ZM12.0647 41.2236C12.0647 39.7386 12.4521 38.103 13.2484 36.1661C14.0231 34.2292 14.7979 32.938 15.5511 32.0771C15.5081 31.8619 15.4005 31.8619 15.2283 31.8619L15.0131 31.6467C14.389 32.2923 13.6357 33.7988 12.7318 35.9509C11.828 37.8878 11.3545 39.674 11.3545 40.9868C11.3545 41.9553 11.5912 42.7946 12.0217 43.5263C12.4951 44.2365 13.6357 45.2695 15.4435 46.5823L17.7247 48.0672C20.1566 50.1763 21.4479 51.6397 21.4479 52.5006C21.4479 52.9525 21.2327 53.4045 20.587 53.8994C20.1566 54.4159 19.5755 54.6742 19.0806 54.6742C19.0375 54.6742 19.016 54.7172 19.016 54.8248C19.016 54.8464 19.2312 55.2768 19.6831 56.1161C20.587 57.3428 22.5239 57.9454 25.1064 57.9454C29.8411 57.9454 33.4996 56.0085 36.2974 52.1347C36.2974 51.0587 36.2974 50.3915 36.0822 50.1117V49.3155C36.0822 47.9166 36.2974 46.8621 36.7278 46.1734C37.1582 45.4847 37.5886 45.1619 38.2343 45.1619C38.6647 45.1619 39.0951 45.3125 39.5255 45.6354C39.7407 43.9782 39.7407 42.5363 39.7407 41.2451C39.7407 39.2867 39.7407 37.6726 39.3103 36.1661C39.0951 34.8748 38.6647 33.7988 38.2343 32.938C37.8039 32.2923 37.3734 31.6467 36.943 31.0011C36.5126 30.3554 36.2974 29.7098 35.867 29.0642C35.6517 28.2033 35.4365 27.5577 35.4365 26.4816C34.7909 25.4056 34.3605 24.3295 33.7149 23.2535C33.2844 22.1774 32.854 21.1014 32.4236 20.2405L30.4867 21.747C28.3346 23.2535 26.6129 23.8991 25.1064 23.8991C23.8152 23.8991 22.7391 23.6839 22.0935 22.8231L20.8022 21.747C20.8022 22.3926 20.587 23.2535 20.1566 24.1143L18.8008 26.6968C18.1982 28.2033 17.8754 29.0642 17.8108 29.7098C17.7247 30.1402 17.6602 30.5706 17.6171 30.5706L16.003 33.7988C14.2598 37.0269 13.3775 40.0184 13.3775 42.4933C13.3775 42.9883 13.4205 43.5048 13.5066 44.0213C12.5382 43.3541 12.0647 42.4287 12.0647 41.2236ZM27.4738 61.5825C24.676 61.5825 22.5239 61.9612 21.0174 62.7123V62.6477C19.9414 63.939 18.7362 64.6062 17.0576 64.6062C16.003 64.6062 14.3459 64.1973 12.1077 63.3795C9.84803 62.6047 7.84657 62.0107 6.10337 61.619C5.9312 61.5695 5.54382 61.4964 4.91971 61.3974C4.31712 61.3005 3.75757 61.2015 3.26259 61.1025C2.81065 61.0057 2.29414 60.8594 1.7346 60.6614C1.19657 60.4913 0.766149 60.2697 0.443333 60.0007C0.146343 59.7295 0 59.4239 0 59.0817C0 58.7374 0.0731716 58.3694 0.219515 57.9777C0.357249 57.741 0.507897 57.5042 0.658544 57.289C0.809191 57.0523 0.938317 56.8371 1.0244 56.6219C1.15353 56.4282 1.23961 56.2345 1.3257 56.0193C1.41178 55.8256 1.49786 55.6319 1.54091 55.3952C1.58395 55.1799 1.62699 54.9647 1.62699 54.7495C1.62699 54.5343 1.54091 53.8887 1.36874 52.7481C1.19657 51.629 1.11049 50.9188 1.11049 50.6175C1.11049 49.6706 1.3257 48.9173 1.79916 48.3793C2.27262 47.8413 2.72456 47.5615 3.19803 47.5615H5.67295C5.86663 47.5615 6.16793 47.4539 6.61987 47.1956C6.77052 46.8513 6.89964 46.5715 6.98573 46.3133C7.09333 46.055 7.13638 45.8613 7.17942 45.7752C7.22246 45.6461 7.2655 45.517 7.30854 45.4094C7.39463 45.2587 7.50223 45.0866 7.65288 44.9144C7.48071 44.6992 7.39463 44.4194 7.39463 44.0751C7.39463 43.8384 7.39463 43.6231 7.43767 43.494C7.43767 42.7193 7.80353 41.6217 8.57829 40.1798L9.33152 38.824C9.95563 37.6618 10.4291 36.801 10.7734 35.9401C11.1393 35.0793 11.5267 33.788 11.9571 32.0663C12.3014 30.5599 13.1192 29.0534 14.4105 27.5469L16.0246 25.61C17.1437 24.3188 17.8754 23.2427 18.2843 22.3819C18.6932 21.521 18.9084 20.445 18.9084 19.5841C18.9084 19.1537 18.8008 17.8625 18.564 15.7104C18.3488 13.5583 18.2412 11.4061 18.2412 9.46925C18.2412 7.96278 18.3704 6.88673 18.6501 5.81068C18.9299 4.73463 19.4249 3.65858 20.1566 2.79774C20.8022 1.93689 21.6631 1.07605 22.9543 0.645631C24.2456 0.21521 25.7521 0 27.4738 0C28.1194 0 28.765 0 29.4106 0.21521C30.0563 0.21521 30.9171 0.430421 31.9932 0.860842C32.854 1.29126 33.7149 1.72168 34.3605 2.36731C35.2213 3.01295 35.867 4.08899 36.5126 5.16505C36.943 6.45631 37.3734 7.74757 37.5886 9.46925C37.8039 10.5453 37.8039 11.6214 38.0191 13.1278C38.0191 14.4191 38.2343 15.2799 38.2343 15.9256C38.4495 16.5712 38.4495 17.432 38.6647 18.5081C38.8799 19.3689 39.0951 20.2298 39.5255 20.8754C39.956 21.7362 40.3864 22.5971 41.032 23.4579C41.6776 24.534 42.5385 25.61 43.3993 26.9013C45.3362 29.0534 46.8427 31.4207 47.7035 33.788C48.7796 35.9401 49.4252 38.7379 49.4252 41.7293C49.4252 43.2142 49.21 44.6562 48.7796 46.055C49.21 46.055 49.4252 46.2272 49.6404 46.5285C49.8556 46.8298 50.0708 47.4754 50.2861 48.4869L50.5013 50.0795C50.7165 50.5529 50.9317 51.0049 51.5773 51.3922C52.0077 51.7796 52.4382 52.1024 53.0838 52.3607C53.5142 52.5759 54.1598 52.8772 54.5903 53.2646C55.0207 53.695 55.2359 54.1469 55.2359 54.6204C55.2359 55.3521 55.0207 55.8901 54.5903 56.2775C54.1598 56.7079 53.7294 57.0092 53.0838 57.2029C52.6534 57.4181 51.7925 57.8486 50.5013 58.4554C49.4252 59.0925 48.3492 59.8651 47.2731 60.7797L45.121 62.6112C44.2602 63.4505 43.3993 64.0531 42.7537 64.4189C42.1081 64.8063 41.2472 65 40.3864 65L38.8799 64.8278C37.1582 64.3759 36.0822 63.515 35.4365 62.2023C31.9932 61.7848 29.1954 61.5781 27.4738 61.5781" fill="#D6B9FC"/>
</svg>
