<svg width="142" height="34" viewBox="0 0 142 34" fill="none" xmlns="http://www.w3.org/2000/svg">
<g clip-path="url(#clip0_205_2186)">
<path d="M0 32.7252H5.56483V18.2475C5.56483 15.3921 7.44186 13.3174 10.1238 13.3174C12.7159 13.3174 14.3252 14.9458 14.3252 17.5781V32.7246H19.7334V18.1134C19.7334 15.2804 21.5658 13.3171 24.2475 13.3171C26.9741 13.3171 28.4938 14.968 28.4938 17.8681V32.7249H34.0584V16.5074C34.0584 11.7785 30.9967 8.63288 26.3258 8.63288C22.9065 8.63288 20.091 10.4622 18.9507 13.3845H18.8165C17.9451 10.3508 15.5539 8.63315 12.2021 8.63315C8.98406 8.63315 6.48117 10.4401 5.45285 13.1838H5.34115V9.0794H0V32.7252ZM46.2388 28.9107C43.8252 28.9107 42.2162 27.6836 42.2162 25.7429C42.2162 23.8692 43.7581 22.6646 46.44 22.4861L51.9151 22.1515V23.9584C51.9151 26.8139 49.39 28.9107 46.2388 28.9107ZM44.5627 33.1043C47.6019 33.1043 50.5746 31.5206 51.9378 28.955H52.0495V32.7252H57.4128V16.4406C57.4128 11.689 53.5914 8.58825 47.7139 8.58825C41.6798 8.58825 37.9036 11.7561 37.6575 16.1729H42.8199C43.1774 14.2096 44.8535 12.9382 47.4905 12.9382C50.2395 12.9382 51.9156 14.3657 51.9156 16.842V18.5374L45.6578 18.8942C39.8921 19.2512 36.6519 21.7721 36.6519 25.9657C36.6519 30.2264 39.9816 33.1043 44.5627 33.1043ZM81.8399 17.5113C81.4602 12.5369 77.5936 8.58825 71.3367 8.58825C64.4536 8.58825 59.9836 13.3399 59.9836 20.9017C59.9836 28.5759 64.4533 33.193 71.3813 33.193C77.3261 33.193 81.4156 29.7131 81.8624 24.426H76.6105C76.0966 27.1027 74.2639 28.7089 71.4481 28.7089C67.9172 28.7089 65.638 25.8535 65.638 20.9012C65.638 16.0381 67.895 13.0934 71.4035 13.0934C74.3759 13.0934 76.1412 14.9896 76.5883 17.5105H81.8399V17.5113ZM99.0267 0C89.6183 0 83.7183 6.40218 83.7183 16.6416C83.7183 26.8809 89.6174 33.2609 99.0264 33.2609C108.412 33.2609 114.313 26.8809 114.313 16.6416C114.313 6.40218 108.413 0 99.0264 0H99.0267ZM99.0267 4.90765C104.77 4.90765 108.435 9.4583 108.435 16.6416C108.435 23.8021 104.77 28.353 99.0267 28.353C93.2609 28.353 89.6183 23.8024 89.6183 16.6416C89.6183 9.45858 93.2609 4.90765 99.0267 4.90765ZM116.66 23.6685C116.906 29.6028 121.778 33.2609 129.197 33.2609C136.997 33.2609 141.913 29.424 141.913 23.3115C141.913 18.5155 139.142 15.8164 132.594 14.3219L128.884 13.474C124.929 12.5372 123.297 11.2879 123.297 9.14648C123.297 6.46953 125.756 4.68508 129.399 4.68508C133.086 4.68508 135.611 6.49198 135.879 9.50348H141.377C141.243 3.8372 136.55 0 129.443 0C122.426 0 117.442 3.8591 117.442 9.57C117.442 14.1653 120.258 17.0205 126.203 18.3814L130.382 19.3631C134.449 20.3222 136.102 21.6609 136.102 23.9809C136.102 26.6575 133.399 28.5761 129.51 28.5761C125.577 28.5761 122.605 26.6354 122.247 23.6685H116.66H116.66Z" fill="#D6B9FC"/>
</g>
<defs>
<clipPath id="clip0_205_2186">
<rect width="141.913" height="33.2609" fill="white"/>
</clipPath>
</defs>
</svg>
