<svg width="69" height="34" viewBox="0 0 69 34" fill="none" xmlns="http://www.w3.org/2000/svg">
<g clip-path="url(#clip0_205_2184)">
<path d="M0.494561 33.1973H6.11784V9.25916H0.494561V33.1973ZM3.29504 6.12C5.0564 6.12 6.43393 4.76505 6.43393 3.07142C6.43393 1.35469 5.0564 0 3.29504 0C1.556 0 0.178467 1.35495 0.178467 3.07142C0.178467 4.76505 1.556 6.12 3.29504 6.12ZM24.8399 0.0674688C15.3326 0.0674688 9.37042 6.54898 9.37042 16.915C9.37042 27.2808 15.3321 33.7397 24.8402 33.7397C34.3248 33.7397 40.287 27.2808 40.287 16.915C40.287 6.54898 34.3254 0.0674688 24.8402 0.0674688H24.8399ZM24.8399 5.03598C30.6438 5.03598 34.3474 9.64298 34.3474 16.9147C34.3474 24.1639 30.6438 28.7712 24.8402 28.7712C19.0137 28.7712 15.3326 24.1642 15.3326 16.9147C15.3326 9.64298 19.0139 5.03598 24.8402 5.03598H24.8399ZM42.6593 24.0284C42.9077 30.0358 47.8308 33.7392 55.3283 33.7392C63.2099 33.7392 68.1785 29.8549 68.1785 23.6669C68.1785 18.8116 65.3782 16.0791 58.7613 14.5661L55.0125 13.7081C51.0151 12.7596 49.3666 11.4949 49.3666 9.32689C49.3666 6.61672 51.8508 4.8102 55.5318 4.8102C59.258 4.8102 61.8098 6.63956 62.081 9.68814H67.6363C67.5008 3.95197 62.7584 0.0674688 55.5769 0.0674688C48.4858 0.0674688 43.4498 3.97428 43.4498 9.75588C43.4498 14.408 46.2952 17.2986 52.3021 18.6764L56.5252 19.6698C60.6352 20.6412 62.3066 21.9961 62.3066 24.3448C62.3066 27.0547 59.5738 28.997 55.6447 28.997C51.6701 28.997 48.6667 27.0321 48.3055 24.0284H42.6593Z" fill="#D6B9FC"/>
</g>
<defs>
<clipPath id="clip0_205_2184">
<rect width="68.2656" height="34" fill="white"/>
</clipPath>
</defs>
</svg>
