<svg width="33" height="32" viewBox="0 0 33 32" fill="none" xmlns="http://www.w3.org/2000/svg">
<path d="M18.2463 9.82442C23.0898 9.82442 25.8367 12.9172 26.2356 16.6505H26.3574C29.4738 16.6505 32.0007 19.0811 32.0007 22.0796C32.0007 25.078 29.4738 27.5086 26.3574 27.5086H10.1351C7.01877 27.5086 4.49189 25.078 4.49189 22.0796C4.49189 19.0811 7.01877 16.6505 10.1351 16.6505H10.2569C10.6598 12.8917 13.4028 9.82442 18.2463 9.82442ZM18.2463 11.7893C15.0042 11.7893 12.1806 14.2848 12.1806 17.7332C12.1806 18.2794 11.6815 18.7078 11.1097 18.7078H10.029C8.05624 18.7078 6.4568 20.2385 6.4568 22.1267C6.4568 24.0111 8.05624 25.5437 10.029 25.5437H26.4635C28.4363 25.5437 30.0358 24.0131 30.0358 22.1248C30.0358 20.2385 28.4363 18.7078 26.4635 18.7078H25.3828C24.813 18.7078 24.312 18.2794 24.312 17.7332C24.312 14.2415 21.4884 11.7893 18.2463 11.7893ZM13.1218 3.92969C15.9827 3.92969 18.4781 5.55664 19.7101 7.94793C18.8731 7.84413 18.0273 7.82964 17.1872 7.9047C16.7018 7.28 16.0804 6.77424 15.3701 6.42592C14.6598 6.07759 13.8795 5.89588 13.0884 5.8946C11.8528 5.90046 10.659 6.3422 9.71726 7.14198C8.7755 7.94176 8.14622 9.04826 7.94031 10.2665L7.86761 10.6792C7.78883 11.1358 7.5512 11.5499 7.19669 11.8483C6.84218 12.1468 6.3936 12.3103 5.93021 12.31H5.42326C3.82382 12.31 2.52698 13.6226 2.52698 15.2417C2.52698 16.3617 3.14593 17.3343 4.05568 17.8275C3.63519 18.362 3.28936 18.9593 3.03393 19.5999C2.09786 19.0296 1.36808 18.1756 0.950677 17.162C0.533271 16.1485 0.449995 15.0283 0.712953 13.9642C0.975912 12.9001 1.5714 11.9476 2.41285 11.2451C3.2543 10.5427 4.29786 10.1269 5.39182 10.0582L5.82607 10.0484C6.12906 8.3337 7.02642 6.78052 8.3606 5.66158C9.69478 4.54263 11.3805 3.92945 13.1218 3.92969Z" fill="#002E50"/>
</svg>
