<svg width="32" height="32" viewBox="0 0 32 32" fill="none" xmlns="http://www.w3.org/2000/svg">
<path d="M12.4261 22.6214L7.45512 17.6504L12.4261 12.6794L14.1653 14.4309L11.1226 17.4736L10.9459 17.6504L11.1226 17.8272L14.1653 20.8699L12.4261 22.6214ZM19.5771 12.6794L24.5481 17.6504L19.5771 22.6214L17.8379 20.8699L20.8806 17.8272L21.0573 17.6504L20.8806 17.4736L17.8379 14.4309L19.5771 12.6794Z" fill="white" stroke="#2B39BA" stroke-width="0.5"/>
<path d="M19.9464 4.38504L20.0061 4.54993H20.1815H26.3819C27.8755 4.54993 29.0986 5.77301 29.0986 7.26661V28.0334C29.0986 29.527 27.8755 30.75 26.3819 30.75H5.61512C5.42208 30.75 5.24386 30.7364 5.06599 30.7094C4.54233 30.6007 4.06944 30.3311 3.70274 29.9653C3.45224 29.7004 3.25005 29.4146 3.11654 29.0942C2.97968 28.7657 2.89844 28.3978 2.89844 28.0334V7.26661C2.89844 6.88738 2.97964 6.53553 3.11504 6.22412L3.11506 6.22413L3.11639 6.22095C3.2871 5.81304 3.5544 5.45273 3.89526 5.17105C4.23613 4.88936 4.64035 4.69474 5.07312 4.60394L5.07313 4.60399L5.078 4.60286C5.24661 4.56395 5.41933 4.54993 5.61512 4.54993H11.8155H11.9908L12.0505 4.38504C12.6399 2.75743 14.1816 1.58325 15.9985 1.58325C17.8154 1.58325 19.3571 2.75743 19.9464 4.38504ZM26.3819 28.2834H26.6319V28.0334V22.1V7.26661V7.01661H26.3819H5.61512H5.36512V7.26661V28.0334V28.2834H5.61512H26.3819ZM17.361 5.0416C17.361 4.29536 16.7447 3.6791 15.9985 3.6791C15.2523 3.6791 14.636 4.29536 14.636 5.0416C14.636 5.78784 15.2523 6.40411 15.9985 6.40411C16.7447 6.40411 17.361 5.78784 17.361 5.0416Z" fill="white" stroke="#2B39BA" stroke-width="0.5"/>
</svg>
