<svg width="32" height="32" viewBox="0 0 32 32" fill="none" xmlns="http://www.w3.org/2000/svg">
<path d="M12.4174 12.8074L12.536 12.7545V12.6247V3.66147C12.536 1.76422 14.1002 0.2 15.9974 0.2C17.8947 0.2 19.4589 1.76422 19.4589 3.66147V12.6247V12.7545L19.5774 12.8074L29.8368 17.3854L29.8368 17.3855L29.8407 17.3871L30.4433 17.6407V23.1196L19.681 21.9238L19.4589 21.8991V22.1226V24.3732V24.4799L19.5476 24.5393L22.6744 26.6349L22.6744 26.6349L22.6775 26.6369L23.1204 26.922V31.7535L21.9129 31.4992L21.9111 31.4988L16.0369 30.3162L15.9974 30.3082L15.9579 30.3162L10.085 31.4988L10.0833 31.4992L8.8745 31.7535V26.9219L9.31629 26.6368L9.31631 26.6368L9.31921 26.6349L12.4473 24.5381L12.536 24.4787V24.3719V22.1214V21.8979L12.3139 21.9226L1.55156 23.1184V17.6395L2.15412 17.3859L2.15413 17.386L2.15801 17.3842L12.4174 12.8074ZM3.81463 20.7957L14.5769 19.5999V25.599L14.1357 25.8817L14.1357 25.8817L14.1321 25.884L11.004 27.9833L10.9155 28.0427V28.1494V29.0257V29.2689L11.1541 29.2219L15.8066 28.3065L15.8188 28.3041L15.8306 28.3002L15.9973 28.2453L16.1627 28.3001L16.1747 28.3041L16.1871 28.3065L20.8408 29.2219L21.0794 29.2688V29.0257V28.1494V28.0428L20.9909 27.9833L17.864 25.8829L17.864 25.8828L17.8602 25.8804L17.4179 25.5976V19.5987L28.1802 20.7945L28.4023 20.8192V20.5958V19.108V18.9782L28.2838 18.9253L18.0244 14.3485L18.0244 14.3485L18.0205 14.3468L17.4179 14.0932V3.66147C17.4179 2.86021 16.7987 2.24098 15.9974 2.24098C15.1962 2.24098 14.5769 2.86021 14.5769 3.66147V14.0944L13.9744 14.348L13.9744 14.348L13.9705 14.3497L3.71106 18.9265L3.59254 18.9794V19.1092V20.597V20.8204L3.81463 20.7957Z" fill="white" stroke="#2B39BA" stroke-width="0.4"/>
</svg>
