<svg width="28" height="28" viewBox="0 0 28 28" fill="none" xmlns="http://www.w3.org/2000/svg">
<g clip-path="url(#clip0_130_1881)">
<path d="M12.994 20.76C12.994 21.0358 12.8881 21.3004 12.6997 21.4954C12.5112 21.6904 12.2556 21.8 11.9892 21.8H10.9843V25.96C10.9843 26.2358 10.8785 26.5004 10.69 26.6954C10.5016 26.8904 10.246 27 9.97949 27C9.71299 27 9.45741 26.8904 9.26897 26.6954C9.08052 26.5004 8.97466 26.2358 8.97466 25.96V21.8H7.96983C7.70333 21.8 7.44775 21.6904 7.2593 21.4954C7.07086 21.3004 6.96499 21.0358 6.96499 20.76C6.96499 20.4842 7.07086 20.2197 7.2593 20.0246C7.44775 19.8296 7.70333 19.72 7.96983 19.72H11.9892C12.2556 19.72 12.5112 19.8296 12.6997 20.0246C12.8881 20.2197 12.994 20.4842 12.994 20.76ZM4.95533 19.72C4.68884 19.72 4.43325 19.8296 4.24481 20.0246C4.05637 20.2197 3.9505 20.4842 3.9505 20.76V22.32H2.44326V20.76C2.44326 20.4842 2.33739 20.2197 2.14895 20.0246C1.96051 19.8296 1.70492 19.72 1.43842 19.72C1.17193 19.72 0.916344 19.8296 0.727902 20.0246C0.53946 20.2197 0.433594 20.4842 0.433594 20.76V25.96C0.433594 26.2358 0.53946 26.5004 0.727902 26.6954C0.916344 26.8904 1.17193 27 1.43842 27C1.70492 27 1.96051 26.8904 2.14895 26.6954C2.33739 26.5004 2.44326 26.2358 2.44326 25.96V24.4H3.9505V25.96C3.9505 26.2358 4.05637 26.5004 4.24481 26.6954C4.43325 26.8904 4.68884 27 4.95533 27C5.22183 27 5.47741 26.8904 5.66586 26.6954C5.8543 26.5004 5.96016 26.2358 5.96016 25.96V20.76C5.96016 20.4842 5.8543 20.2197 5.66586 20.0246C5.47741 19.8296 5.22183 19.72 4.95533 19.72ZM26.5592 24.92H24.5495V20.76C24.5495 20.4842 24.4437 20.2197 24.2552 20.0246C24.0668 19.8296 23.8112 19.72 23.5447 19.72C23.2782 19.72 23.0226 19.8296 22.8342 20.0246C22.6457 20.2197 22.5399 20.4842 22.5399 20.76V25.96C22.5399 26.2358 22.6457 26.5004 22.8342 26.6954C23.0226 26.8904 23.2782 27 23.5447 27H26.5592C26.8257 27 27.0813 26.8904 27.2697 26.6954C27.4582 26.5004 27.564 26.2358 27.564 25.96C27.564 25.6842 27.4582 25.4196 27.2697 25.2246C27.0813 25.0296 26.8257 24.92 26.5592 24.92ZM20.3292 19.772C20.1273 19.7025 19.9089 19.703 19.7072 19.7733C19.5055 19.8437 19.3315 19.9801 19.2114 20.162L17.5157 22.606L15.8201 20.162C15.6965 19.9837 15.5215 19.8504 15.3203 19.7812C15.1191 19.7121 14.9019 19.7106 14.6998 19.7769C14.4977 19.8433 14.321 19.9741 14.1951 20.1507C14.0692 20.3273 14.0005 20.5406 13.9988 20.76V25.96C13.9988 26.2358 14.1047 26.5004 14.2931 26.6954C14.4816 26.8904 14.7371 27 15.0036 27C15.2701 27 15.5257 26.8904 15.7142 26.6954C15.9026 26.5004 16.0085 26.2358 16.0085 25.96V24.01L16.6993 24.998C16.7906 25.1348 16.9125 25.2465 17.0547 25.3238C17.1969 25.401 17.3551 25.4413 17.5157 25.4413C17.6763 25.4413 17.8345 25.401 17.9767 25.3238C18.1189 25.2465 18.2409 25.1348 18.3321 24.998L19.023 24.01V25.96C19.023 26.2358 19.1288 26.5004 19.3173 26.6954C19.5057 26.8904 19.7613 27 20.0278 27C20.2943 27 20.5499 26.8904 20.7383 26.6954C20.9268 26.5004 21.0326 26.2358 21.0326 25.96V20.76C21.0358 20.5384 20.9688 20.3218 20.8417 20.1434C20.7147 19.9649 20.5347 19.8345 20.3292 19.772ZM23.0423 15.56C22.7758 15.56 22.5202 15.4504 22.3318 15.2554C22.1433 15.0604 22.0375 14.7958 22.0375 14.52V10.36H16.0085C15.742 10.36 15.4864 10.2504 15.298 10.0554C15.1095 9.86036 15.0036 9.59584 15.0036 9.32001V3.08002H3.9505V14.52C3.9505 14.7958 3.84464 15.0604 3.65619 15.2554C3.46775 15.4504 3.21217 15.56 2.94567 15.56C2.67917 15.56 2.42359 15.4504 2.23515 15.2554C2.04671 15.0604 1.94084 14.7958 1.94084 14.52V3.08002C1.94084 2.52837 2.15257 1.99931 2.52946 1.60923C2.90634 1.21916 3.41751 1.00002 3.9505 1.00002H16.0085C16.2758 0.998457 16.533 1.10587 16.7244 1.29902L23.7457 8.57901C23.8421 8.67473 23.9185 8.78984 23.9704 8.91727C24.0222 9.0447 24.0483 9.18175 24.0471 9.32001V14.52C24.0471 14.7958 23.9413 15.0604 23.7528 15.2554C23.5644 15.4504 23.3088 15.56 23.0423 15.56ZM17.0133 8.28001H20.6181L17.0133 4.54901V8.28001Z" fill="#002E50"/>
</g>
<defs>
<clipPath id="clip0_130_1881">
<rect width="28" height="28" fill="white"/>
</clipPath>
</defs>
</svg>
