<svg width="28" height="28" viewBox="0 0 28 28" fill="none" xmlns="http://www.w3.org/2000/svg">
<path d="M23.3333 3H4.66667C3.19391 3 2 4.09441 2 5.44444V22.5556C2 23.9056 3.19391 25 4.66667 25H23.3333C24.8061 25 26 23.9056 26 22.5556V5.44444C26 4.09441 24.8061 3 23.3333 3Z" stroke="#002E50" stroke-width="1.91667" stroke-linecap="round" stroke-linejoin="round"/>
<path d="M9.52604 10.9444C10.5846 10.9444 11.4427 10.0863 11.4427 9.02775C11.4427 7.9692 10.5846 7.11108 9.52604 7.11108C8.4675 7.11108 7.60938 7.9692 7.60938 9.02775C7.60938 10.0863 8.4675 10.9444 9.52604 10.9444Z" stroke="#002E50" stroke-width="1.91667" stroke-linecap="round" stroke-linejoin="round"/>
<path d="M25.5 16.5L19.3061 10.863L3.77734 23.8037" stroke="#002E50" stroke-width="1.9411" stroke-linecap="round" stroke-linejoin="round"/>
</svg>
