<svg width="28" height="28" viewBox="0 0 28 28" fill="none" xmlns="http://www.w3.org/2000/svg">
<path d="M24.0429 15.56C23.7764 15.56 23.5208 15.4504 23.3323 15.2554C23.1439 15.0604 23.038 14.7958 23.038 14.52V10.36H17.009C16.7425 10.36 16.487 10.2504 16.2985 10.0554C16.1101 9.86036 16.0042 9.59584 16.0042 9.32001V3.08002H4.95107V14.52C4.95107 14.7958 4.8452 15.0604 4.65676 15.2554C4.46832 15.4504 4.21273 15.56 3.94624 15.56C3.67974 15.56 3.42416 15.4504 3.23571 15.2554C3.04727 15.0604 2.94141 14.7958 2.94141 14.52V3.08002C2.94141 2.52837 3.15314 1.99931 3.53002 1.60923C3.90691 1.21916 4.41807 1.00002 4.95107 1.00002H17.009C17.2764 0.998457 17.5336 1.10587 17.725 1.29902L24.7462 8.57901C24.8426 8.67473 24.9191 8.78984 24.971 8.91727C25.0228 9.0447 25.0489 9.18175 25.0477 9.32001V14.52C25.0477 14.7958 24.9418 15.0604 24.7534 15.2554C24.5649 15.4504 24.3094 15.56 24.0429 15.56ZM18.0139 8.28001H21.6187L18.0139 4.54901V8.28001Z" fill="white"/>
<path d="M20.2813 19.375H18.3438C18.0868 19.375 17.8404 19.4771 17.6587 19.6588C17.4771 19.8404 17.375 20.0868 17.375 20.3438V26.1563C17.375 26.4132 17.4771 26.6596 17.6587 26.8413C17.8404 27.023 18.0868 27.125 18.3438 27.125C18.6007 27.125 18.8471 27.023 19.0288 26.8413C19.2104 26.6596 19.3125 26.4132 19.3125 26.1563V25.1875H20.2813C21.052 25.1875 21.7913 24.8813 22.3363 24.3363C22.8813 23.7913 23.1875 23.0521 23.1875 22.2813C23.1875 21.5105 22.8813 20.7713 22.3363 20.2262C21.7913 19.6812 21.052 19.375 20.2813 19.375ZM20.2813 23.25H19.3125V21.3125H20.2813C20.5382 21.3125 20.7846 21.4146 20.9663 21.5963C21.1479 21.7779 21.25 22.0243 21.25 22.2813C21.25 22.5382 21.1479 22.7846 20.9663 22.9663C20.7846 23.148 20.5382 23.25 20.2813 23.25ZM14.4688 20.3438V26.1563C14.4688 26.4132 14.3667 26.6596 14.185 26.8413C14.0033 27.023 13.7569 27.125 13.5 27.125C13.2431 27.125 12.9967 27.023 12.815 26.8413C12.6333 26.6596 12.5313 26.4132 12.5313 26.1563V20.3438C12.5313 20.0868 12.6333 19.8404 12.815 19.6588C12.9967 19.4771 13.2431 19.375 13.5 19.375C13.7569 19.375 14.0033 19.4771 14.185 19.6588C14.3667 19.8404 14.4688 20.0868 14.4688 20.3438ZM9.625 26.1563C9.625 26.4132 9.52294 26.6596 9.34126 26.8413C9.15958 27.023 8.91318 27.125 8.65625 27.125H4.78125C4.60526 27.1263 4.43223 27.0797 4.28076 26.9901C4.12928 26.9005 4.00508 26.7713 3.92148 26.6164C3.84277 26.4609 3.80584 26.2876 3.81434 26.1135C3.82283 25.9395 3.87644 25.7706 3.96992 25.6235L6.85195 21.3125H4.78125C4.52432 21.3125 4.27792 21.2105 4.09624 21.0288C3.91456 20.8471 3.8125 20.6007 3.8125 20.3438C3.8125 20.0868 3.91456 19.8404 4.09624 19.6588C4.27792 19.4771 4.52432 19.375 4.78125 19.375H8.65625C8.83224 19.3737 9.00527 19.4204 9.15674 19.51C9.30822 19.5996 9.43242 19.7287 9.51602 19.8836C9.59473 20.0391 9.63166 20.2124 9.62316 20.3865C9.61467 20.5606 9.56106 20.7295 9.46758 20.8766L6.58555 25.1875H8.65625C8.91318 25.1875 9.15958 25.2896 9.34126 25.4713C9.52294 25.6529 9.625 25.8993 9.625 26.1563Z" fill="white"/>
</svg>
