<svg width="32" height="32" viewBox="0 0 32 32" fill="none" xmlns="http://www.w3.org/2000/svg">
<path d="M4.00732 3.08545V10.6598H11.5817M27.9928 28.3333V20.759H20.4185" stroke="white" stroke-width="1.89359" stroke-linecap="round" stroke-linejoin="round"/>
<path d="M28.6239 15.0781C28.5043 12.3154 27.4809 9.66833 25.7109 7.54369C23.9408 5.41905 21.5222 3.93437 18.8264 3.3178C16.1307 2.70123 13.3071 2.98686 10.7895 4.13082C8.27186 5.27477 6.19951 7.21376 4.89085 9.64984M3.37598 16.3405C3.52046 19.0931 4.5619 21.7228 6.34126 23.828C8.12061 25.9331 10.5401 27.3981 13.2302 27.9991C15.9203 28.6 18.7331 28.304 21.2392 27.1563C23.7453 26.0085 25.8068 24.072 27.109 21.6426" stroke="white" stroke-width="1.89359" stroke-linecap="round" stroke-linejoin="round"/>
</svg>
