<svg width="30" height="30" viewBox="0 0 30 30" fill="none" xmlns="http://www.w3.org/2000/svg">
<path d="M4.15758 9.71729C3.64068 9.71729 3.20211 9.89754 2.8416 10.2581C2.48109 10.6186 2.30078 11.0512 2.30078 11.5561V19.3084C2.30078 19.826 2.48104 20.2642 2.8416 20.6247C3.20211 20.9852 3.64068 21.1656 4.15758 21.1656C4.6741 21.1656 5.11001 20.9853 5.46494 20.6247C5.81916 20.2642 5.99675 19.826 5.99675 19.3084V11.5561C5.99675 11.0511 5.8165 10.6186 5.45593 10.2581C5.09537 9.89754 4.66249 9.71729 4.15758 9.71729Z" fill="#002E50"/>
<path d="M19.0879 2.75818L20.368 0.396789C20.452 0.240455 20.4221 0.120574 20.2781 0.0362778C20.1217 -0.0364103 20.0015 0.000421913 19.9175 0.144171L18.6196 2.52443C17.4774 2.01947 16.2695 1.76653 14.9956 1.76653C13.7215 1.76653 12.5134 2.01952 11.3718 2.52443L10.0737 0.144171C9.98938 0.000421913 9.86922 -0.0360849 9.71322 0.0362778C9.56882 0.120954 9.53893 0.240455 9.62328 0.396789L10.9034 2.75818C9.60538 3.42013 8.57158 4.34202 7.80239 5.52586C7.0332 6.71035 6.64844 8.00474 6.64844 9.4113H23.3247C23.3247 8.00506 22.9399 6.71062 22.1708 5.52586C21.4015 4.34202 20.3737 3.42013 19.0879 2.75818ZM11.6871 6.19285C11.5487 6.33161 11.3834 6.40066 11.1912 6.40066C10.9986 6.40066 10.8366 6.33161 10.7045 6.19285C10.5723 6.05474 10.5063 5.89006 10.5063 5.69722C10.5063 5.50503 10.5723 5.34001 10.7045 5.20158C10.8366 5.06347 10.999 4.99442 11.1912 4.99442C11.3834 4.99442 11.5487 5.06347 11.6871 5.20158C11.8252 5.34034 11.8946 5.50503 11.8946 5.69722C11.8942 5.88973 11.8249 6.05474 11.6871 6.19285ZM19.2861 6.19285C19.1537 6.33161 18.9913 6.40066 18.7994 6.40066C18.6068 6.40066 18.4415 6.33161 18.3034 6.19285C18.165 6.05474 18.0959 5.89006 18.0959 5.69722C18.0959 5.50503 18.165 5.34001 18.3034 5.20158C18.4415 5.06347 18.6068 4.99442 18.7994 4.99442C18.9916 4.99442 19.1536 5.06347 19.2861 5.20158C19.4183 5.34034 19.4843 5.50503 19.4843 5.69722C19.4843 5.88973 19.4183 6.05474 19.2861 6.19285Z" fill="#002E50"/>
<path d="M6.71875 22.0669C6.71875 22.6203 6.91094 23.0887 7.29537 23.4732C7.68013 23.8576 8.14859 24.0498 8.70162 24.0498H10.0358L10.0541 28.1428C10.0541 28.6596 10.2344 29.0985 10.5949 29.4591C10.9554 29.8197 11.3883 29.9999 11.8929 29.9999C12.4095 29.9999 12.8483 29.8197 13.2089 29.4591C13.5694 29.0985 13.7497 28.6597 13.7497 28.1428V24.0502H16.2376V28.1428C16.2376 28.6596 16.4178 29.0985 16.7783 29.4591C17.1389 29.8197 17.5774 29.9999 18.0943 29.9999C18.6109 29.9999 19.0497 29.8197 19.4103 29.4591C19.7709 29.0985 19.9511 28.6597 19.9511 28.1428V24.0502H21.3033C21.8441 24.0502 22.3065 23.8579 22.6916 23.4735C23.076 23.0891 23.2683 22.6206 23.2683 22.0673V10.0596H6.71875V22.0669Z" fill="#002E50"/>
<path d="M25.831 9.71729C25.3261 9.71729 24.8935 9.89488 24.533 10.2491C24.1724 10.604 23.9922 11.0399 23.9922 11.5561V19.3084C23.9922 19.826 24.1724 20.2642 24.533 20.6247C24.8935 20.9853 25.3264 21.1656 25.831 21.1656C26.3476 21.1656 26.7864 20.9853 27.147 20.6247C27.5076 20.2642 27.6878 19.826 27.6878 19.3084V11.5561C27.6878 11.0398 27.5076 10.604 27.147 10.2491C26.7864 9.89488 26.3476 9.71729 25.831 9.71729Z" fill="#002E50"/>
</svg>
