<svg width="134" height="27" viewBox="0 0 134 27" fill="none" xmlns="http://www.w3.org/2000/svg">
<path d="M38.0853 22.2662H45.3016V18.8474H37.1431V4.79949H33.2031V22.2662H38.0853ZM53.9739 15.6039H57.1859V18.6501C56.5863 18.8912 55.43 19.1104 54.3379 19.1104C50.7833 19.1104 49.6056 17.2695 49.6056 13.5219C49.6056 9.94965 50.7405 7.84575 54.2737 7.84575C56.2437 7.84575 57.3786 8.4813 58.2993 9.68666L60.7404 7.38552C59.2415 5.19397 56.6291 4.5365 54.188 4.5365C48.6634 4.5365 45.7726 7.6266 45.7726 13.5C45.7726 19.3514 48.3851 22.5292 54.1666 22.5292C56.8218 22.5292 59.4128 21.8279 60.8047 20.8198V12.3384H53.9739V15.6039Z" fill="white"/>
<path d="M81.0161 10.3442H81.4658L77.8255 22.0252H77.2474L73.6928 10.7825H73.65L70.074 22.0252H69.453L65.8984 10.3223H66.3481L69.7528 21.565H69.7956L73.3288 10.3223H74.014L77.5258 21.565H77.5686L81.0161 10.3442ZM82.3009 16.2614C82.3437 19.3953 83.5643 21.828 86.8191 21.828C89.1745 21.828 90.909 20.4911 91.2944 17.9708H91.7441C91.4229 20.6445 89.4743 22.2882 86.8833 22.2882C83.3501 22.332 81.8726 19.6583 81.8726 16.1737C81.8726 12.2728 84.2923 10.0593 86.8833 10.0593C90.4379 10.0593 92.0224 13.0617 91.894 16.2614H82.3009ZM91.4015 15.8231C91.4229 12.9522 89.8383 10.5195 86.8833 10.5195C84.4208 10.5195 82.4294 12.5358 82.2795 15.8231H91.4015ZM94.3565 18.3215C94.9346 20.3158 96.3907 21.8499 98.7033 21.8499C101.658 21.8499 103.136 19.22 103.136 16.2176C103.136 13.5 101.851 10.5414 98.7033 10.5414C95.9196 10.5414 94.0781 12.6015 94.0781 16.2176V16.3272H93.6284V5.78577H94.0781V13.6096H94.1209C94.6563 11.4838 96.2837 10.0593 98.7033 10.0593C101.851 10.0593 103.564 12.9302 103.564 16.1957C103.564 19.7241 101.723 22.2882 98.7033 22.2882C96.3693 22.2882 94.4635 20.6226 93.9068 18.2996H93.9282" fill="white"/>
<path d="M112.811 5.39111C118.057 5.39111 120.884 9.27017 120.884 13.8944C120.884 18.5185 118.057 22.3976 112.811 22.3976C107.565 22.3976 104.738 18.5185 104.738 13.8944C104.738 9.29209 107.565 5.39111 112.811 5.39111ZM112.811 21.9593C117.522 21.9593 120.348 18.5843 120.391 13.9163C120.348 9.22634 117.522 5.87326 112.811 5.87326C108.1 5.87326 105.274 9.24826 105.231 13.9163C105.274 18.5843 108.1 21.9593 112.811 21.9593ZM132.918 10.344C132.811 7.01287 130.563 5.87326 127.608 5.87326C125.295 5.87326 122.49 6.68413 122.49 9.59891C122.49 12.5356 125.316 12.8643 128.121 13.5437C131.162 14.3108 133.689 14.6833 133.689 18.0802C133.689 21.1484 130.712 22.4414 127.929 22.4414C124.224 22.4414 121.483 20.7539 121.548 16.6557H121.997C121.997 20.5348 124.438 21.9812 127.907 21.9812C130.477 21.9812 133.218 20.8416 133.218 18.0364C133.218 14.771 130.027 14.4861 127.5 13.8724C124.845 13.2588 122.019 12.7767 122.019 9.59891C122.019 6.37731 124.974 5.41303 127.586 5.41303C130.777 5.41303 133.175 6.70605 133.346 10.344H132.918Z" fill="white"/>
<path fill-rule="evenodd" clip-rule="evenodd" d="M14.0753 0C6.81627 0 0.90625 6.0487 0.90625 13.5C0.90625 20.9513 6.81627 27 14.0753 27C21.3344 27 27.223 21.017 27.2872 13.6096V13.3904C27.223 5.98295 21.3558 0 14.0753 0ZM13.5607 19.4172H17.2438V18.3652H14.6099V7.58276H13.5607V19.4172ZM13.9461 2.19153C7.92906 2.25728 3.04688 7.29786 3.04688 13.5C3.04688 16.5243 4.20318 19.3514 6.28025 21.4992C8.35732 23.625 11.141 24.8084 14.0746 24.8084C17.0296 24.8084 19.8133 23.625 21.8904 21.4992C23.9675 19.3734 25.1238 16.5243 25.1238 13.5V12.9959H17.2438V14.0259H24.0745V14.1794C23.7105 19.5048 19.3851 23.7346 14.096 23.7346C11.4194 23.7346 8.91406 22.6607 7.02971 20.7321C5.14536 18.8035 4.09612 16.2394 4.09612 13.5C4.09612 10.7605 5.14536 8.1964 7.02971 6.26783C8.93548 4.33926 11.4408 3.26539 14.096 3.26539H14.6314V2.19153H13.9461ZM9.87363 10.8044C8.9957 10.8044 8.28906 10.0812 8.28906 9.18266C8.28906 8.28413 8.9957 7.56091 9.87363 7.56091C10.7516 7.56091 11.4582 8.28413 11.4582 9.18266C11.4582 10.0812 10.7516 10.8044 9.87363 10.8044Z" fill="white"/>
</svg>
