<svg width="26" height="30" viewBox="0 0 26 30" fill="none" xmlns="http://www.w3.org/2000/svg">
<path d="M12.3687 7.62301C12.3687 7.71916 12.2726 7.71916 12.2726 7.71916H12.1764C12.0803 7.71916 12.0803 7.62301 11.9841 7.52685C11.9841 7.52685 11.888 7.4307 11.888 7.33455C11.888 7.23839 11.888 7.23839 11.9841 7.23839L12.1764 7.33455C12.2726 7.4307 12.3687 7.52685 12.3687 7.62301ZM10.638 6.66147C10.638 6.1807 10.4457 5.89224 10.1572 5.89224C10.1572 5.89224 10.1572 5.98839 10.0611 5.98839V6.1807H10.3495C10.3495 6.37301 10.4457 6.46916 10.4457 6.66147H10.638ZM14.0034 6.1807C14.1957 6.1807 14.2918 6.37301 14.388 6.66147H14.5803C14.4841 6.56532 14.4841 6.46916 14.4841 6.37301C14.4841 6.27685 14.4841 6.1807 14.388 6.08455C14.2918 5.98839 14.1957 5.89224 14.0995 5.89224C14.0995 5.89224 14.0034 5.98839 13.9072 5.98839C13.9072 6.08455 14.0034 6.08455 14.0034 6.1807ZM11.1187 7.71916C11.0226 7.71916 11.0226 7.71916 11.0226 7.62301C11.0226 7.52685 11.0226 7.4307 11.1187 7.33455C11.3111 7.33455 11.4072 7.23839 11.4072 7.23839C11.5034 7.23839 11.5034 7.33455 11.5034 7.33455C11.5034 7.4307 11.4072 7.52685 11.2149 7.71916H11.1187ZM10.0611 7.62301C9.67644 7.4307 9.58029 7.14224 9.58029 6.66147C9.58029 6.37301 9.58029 6.1807 9.7726 5.98839C9.86875 5.79609 10.0611 5.69993 10.2534 5.69993C10.4457 5.69993 10.5418 5.79609 10.7341 5.98839C10.8303 6.27685 10.9264 6.56532 10.9264 6.85378V6.94993V7.04609H11.0226V6.94993C11.1187 6.94993 11.1187 6.75762 11.1187 6.37301C11.1187 6.08455 11.1187 5.79609 10.9264 5.50762C10.7341 5.21916 10.5418 5.02685 10.1572 5.02685C9.86875 5.02685 9.58029 5.21916 9.48413 5.50762C9.29183 5.89224 9.25336 6.1807 9.25336 6.66147C9.25336 7.04609 9.38798 7.4307 9.7726 7.81532C9.86875 7.71916 9.9649 7.71916 10.0611 7.62301ZM22.0803 21.1807C22.1764 21.1807 22.1764 21.1422 22.1764 21.0557C22.1764 20.8442 22.0803 20.5942 21.7918 20.3153C21.5034 20.0269 21.0226 19.8442 20.4457 19.7672C20.3495 19.7576 20.2534 19.7576 20.2534 19.7576C20.1572 19.7384 20.1572 19.7384 20.0611 19.7384C19.9649 19.7288 19.7726 19.7095 19.6764 19.6903C19.9649 18.7961 20.0611 18.0076 20.0611 17.3153C20.0611 16.3538 19.8687 15.6807 19.4841 15.1038C19.0995 14.5269 18.7149 14.2384 18.2341 14.1422C18.138 14.2384 18.138 14.2384 18.138 14.3345C18.6187 14.5269 19.0995 14.9115 19.388 15.4884C19.6764 16.1615 19.7726 16.7384 19.7726 17.4115C19.7726 17.9499 19.6764 18.748 19.2918 19.7672C18.9072 19.9211 18.5226 20.2769 18.2341 20.8345C18.2341 20.9211 18.2341 20.9692 18.3303 20.9692C18.3303 20.9692 18.4264 20.8826 18.5226 20.7192C18.7149 20.5557 18.8111 20.3922 19.0034 20.2288C19.2918 20.0653 19.4841 19.9788 19.7726 19.9788C20.2534 19.9788 20.7341 20.0461 21.0226 20.1807C21.4072 20.3057 21.5995 20.4403 21.6957 20.5942C21.7918 20.7384 21.888 20.873 21.9841 20.998C21.9841 21.123 22.0803 21.1807 22.0803 21.1807ZM13.2341 7.23839C13.138 7.14224 13.138 6.94993 13.138 6.75762C13.138 6.37301 13.138 6.1807 13.3303 5.89224C13.5226 5.69993 13.7149 5.60378 13.9072 5.60378C14.1957 5.60378 14.388 5.79609 14.5803 5.98839C14.6764 6.27685 14.7726 6.46916 14.7726 6.75762C14.7726 7.23839 14.5803 7.52685 14.1957 7.62301C14.1957 7.62301 14.2918 7.71916 14.388 7.71916C14.5803 7.71916 14.6764 7.81532 14.8687 7.91147C14.9649 7.33455 15.0611 6.94993 15.0611 6.46916C15.0611 5.89224 14.9649 5.50762 14.7726 5.21916C14.4841 4.9307 14.1957 4.83455 13.8111 4.83455C13.5226 4.83455 13.2341 4.9307 12.9457 5.12301C12.7534 5.41147 12.6572 5.60378 12.6572 5.89224C12.6572 6.37301 12.7534 6.75762 12.9457 7.14224C13.0418 7.14224 13.138 7.23839 13.2341 7.23839ZM14.388 8.77685C13.138 9.64224 12.1764 10.0269 11.4072 10.0269C10.7341 10.0269 10.0611 9.73839 9.48413 9.25762C9.58029 9.44993 9.67644 9.64224 9.7726 9.73839L10.3495 10.3153C10.7341 10.6999 11.2149 10.8922 11.6957 10.8922C12.3687 10.8922 13.138 10.5076 14.0995 9.83455L14.9649 9.25762C15.1572 9.06532 15.3495 8.87301 15.3495 8.58455C15.3495 8.48839 15.3495 8.39224 15.2534 8.39224C15.1572 8.19993 14.6764 7.91147 13.7149 7.62301C12.8495 7.23839 12.1764 7.04609 11.7918 7.04609C11.5034 7.04609 11.0226 7.23839 10.3495 7.62301C9.7726 8.00762 9.38798 8.39224 9.38798 8.77685C9.38798 8.77685 9.48413 8.87301 9.58029 9.06532C10.1572 9.54609 10.7341 9.83455 11.3111 9.83455C12.0803 9.83455 13.0418 9.44993 14.2918 8.48839V8.6807C14.388 8.6807 14.388 8.77685 14.388 8.77685ZM16.5995 28.1999C16.9841 28.923 17.6572 29.2865 18.4264 29.2865C18.6187 29.2865 18.8111 29.2576 19.0034 29.1999C19.1957 29.1615 19.388 29.0942 19.4841 29.0172C19.5803 28.9499 19.6764 28.8826 19.7726 28.8057C19.9649 28.7384 19.9649 28.6903 20.0611 28.6422L21.6957 27.2288C22.0803 26.922 22.4649 26.6538 22.9457 26.4211C23.3303 26.1903 23.7149 26.0365 23.9072 25.9499C24.1957 25.873 24.388 25.7576 24.5803 25.6038C24.6764 25.4595 24.7726 25.2769 24.7726 25.0461C24.7726 24.7672 24.5803 24.5557 24.388 24.4019C24.1957 24.248 24.0034 24.1422 23.8111 24.0749C23.6187 24.0076 23.4264 23.8538 23.138 23.5942C22.9457 23.3442 22.7534 22.998 22.6572 22.5461L22.5611 21.9884C22.4649 21.7288 22.4649 21.5365 22.3687 21.4307C22.3687 21.4019 22.3687 21.3922 22.2726 21.3922C22.1764 21.3922 21.9841 21.4788 21.888 21.6422C21.6957 21.8057 21.5034 21.9884 21.3111 22.1807C21.2149 22.373 20.9264 22.5461 20.7341 22.7095C20.4457 22.873 20.1572 22.9595 19.9649 22.9595C19.1957 22.9595 18.8111 22.748 18.5226 22.3345C18.3303 22.0269 18.2341 21.6711 18.138 21.2672C17.9457 21.1038 17.8495 21.0172 17.6572 21.0172C17.1764 21.0172 16.9841 21.5172 16.9841 22.5269V22.8442V23.9595V24.8153V25.2288V25.5172C16.9841 25.6038 16.888 25.7961 16.888 26.0942C16.7918 26.3922 16.7918 26.7307 16.7918 27.1134L16.5995 28.1807V28.197V28.1999ZM2.65721 27.6884C3.55144 27.8192 4.58029 28.099 5.74375 28.5259C6.90721 28.949 7.61875 29.1701 7.87837 29.1701C8.55144 29.1701 9.10913 28.872 9.57067 28.2961C9.66683 28.1095 9.66683 27.8903 9.66683 27.6384C9.66683 26.7297 9.11875 25.5807 8.0226 24.1865L7.36875 23.3115C7.23413 23.1288 7.07067 22.8499 6.85913 22.4749C6.65721 22.0999 6.47452 21.8115 6.33029 21.6095C6.20529 21.3884 6.00337 21.1672 5.74375 20.9461C5.49375 20.7249 5.20529 20.5807 4.88798 20.5038C4.48413 20.5807 4.20529 20.7153 4.07067 20.898C3.93606 21.0807 3.85913 21.2826 3.8399 21.4942C3.81106 21.6961 3.75337 21.8307 3.65721 21.898C3.56106 21.9557 3.3976 22.0038 3.17644 22.0519C3.12837 22.0519 3.04183 22.0519 2.91683 22.0615H2.65721C2.1476 22.0615 1.80144 22.1192 1.61875 22.2153C1.37837 22.4942 1.25337 22.8115 1.25337 23.148C1.25337 23.3019 1.29183 23.5615 1.36875 23.9269C1.44567 24.2826 1.48413 24.5711 1.48413 24.773C1.48413 25.1672 1.36875 25.5615 1.12837 25.9557C0.887981 26.3692 0.762981 26.6769 0.762981 26.8961C0.859135 27.2692 1.49375 27.5317 2.65721 27.6855V27.6884ZM5.85913 18.9451C5.85913 18.2817 6.03221 17.5509 6.38798 16.6855C6.73413 15.8201 7.08029 15.2432 7.41683 14.8586C7.3976 14.7624 7.34952 14.7624 7.2726 14.7624L7.17644 14.6663C6.8976 14.9547 6.56106 15.6278 6.15721 16.5894C5.75337 17.4547 5.54183 18.2528 5.54183 18.8394C5.54183 19.272 5.6476 19.647 5.8399 19.974C6.05144 20.2913 6.56106 20.7528 7.36875 21.3394L8.38798 22.0028C9.47452 22.9451 10.0514 23.599 10.0514 23.9836C10.0514 24.1855 9.95529 24.3874 9.66683 24.6086C9.47452 24.8394 9.2149 24.9547 8.99375 24.9547C8.97452 24.9547 8.9649 24.974 8.9649 25.022C8.9649 25.0317 9.06106 25.224 9.26298 25.599C9.66683 26.147 10.5322 26.4163 11.6861 26.4163C13.8014 26.4163 15.4361 25.5509 16.6861 23.8201C16.6861 23.3394 16.6861 23.0413 16.5899 22.9163V22.5605C16.5899 21.9355 16.6861 21.4644 16.8784 21.1567C17.0707 20.849 17.263 20.7047 17.5514 20.7047C17.7437 20.7047 17.9361 20.772 18.1284 20.9163C18.2245 20.1759 18.2245 19.5317 18.2245 18.9547C18.2245 18.0797 18.2245 17.3586 18.0322 16.6855C17.9361 16.1086 17.7437 15.6278 17.5514 15.2432C17.3591 14.9547 17.1668 14.6663 16.9745 14.3778C16.7822 14.0894 16.6861 13.8009 16.4937 13.5124C16.3976 13.1278 16.3014 12.8394 16.3014 12.3586C16.013 11.8778 15.8207 11.397 15.5322 10.9163C15.3399 10.4355 15.1476 9.95474 14.9553 9.57012L14.0899 10.2432C13.1284 10.9163 12.3591 11.2047 11.6861 11.2047C11.1091 11.2047 10.6284 11.1086 10.3399 10.724L9.76298 10.2432C9.76298 10.5317 9.66683 10.9163 9.47452 11.3009L8.86875 12.4547C8.59952 13.1278 8.45529 13.5124 8.42644 13.8009C8.38798 13.9932 8.35913 14.1855 8.3399 14.1855L7.61875 15.6278C6.8399 17.0701 6.44567 18.4067 6.44567 19.5124C6.44567 19.7336 6.4649 19.9644 6.50337 20.1951C6.07067 19.897 5.85913 19.4836 5.85913 18.9451ZM12.7437 28.0413C11.4937 28.0413 10.5322 28.2105 9.85913 28.5461V28.5172C9.37837 29.0942 8.8399 29.3922 8.0899 29.3922C7.61875 29.3922 6.87837 29.2095 5.87837 28.8442C4.86875 28.498 3.97452 28.2326 3.19567 28.0576C3.11875 28.0355 2.94567 28.0028 2.66683 27.9586C2.3976 27.9153 2.1476 27.8711 1.92644 27.8269C1.72452 27.7836 1.49375 27.7182 1.24375 27.6297C1.00337 27.5538 0.811058 27.4547 0.666827 27.3345C0.534135 27.2134 0.46875 27.0769 0.46875 26.924C0.46875 26.7701 0.501442 26.6057 0.566827 26.4307C0.628365 26.3249 0.695673 26.2192 0.762981 26.123C0.830288 26.0172 0.887981 25.9211 0.926442 25.8249C0.984135 25.7384 1.0226 25.6519 1.06106 25.5557C1.09952 25.4692 1.13798 25.3826 1.15721 25.2769C1.17644 25.1807 1.19567 25.0845 1.19567 24.9884C1.19567 24.8922 1.15721 24.6038 1.08029 24.0942C1.00337 23.5942 0.964904 23.2769 0.964904 23.1422C0.964904 22.7192 1.06106 22.3826 1.2726 22.1422C1.48413 21.9019 1.68606 21.7769 1.8976 21.7769H3.00337C3.0899 21.7769 3.22452 21.7288 3.42644 21.6134C3.49375 21.4595 3.55144 21.3345 3.5899 21.2192C3.63798 21.1038 3.65721 21.0172 3.67644 20.9788C3.69567 20.9211 3.7149 20.8634 3.73413 20.8153C3.7726 20.748 3.82067 20.6711 3.88798 20.5942C3.81106 20.498 3.7726 20.373 3.7726 20.2192C3.7726 20.1134 3.7726 20.0172 3.79183 19.9595C3.79183 19.6134 3.95529 19.123 4.30144 18.4788L4.63798 17.873C4.91683 17.3538 5.12837 16.9692 5.28221 16.5845C5.44567 16.1999 5.61875 15.623 5.81106 14.8538C5.9649 14.1807 6.33029 13.5076 6.90721 12.8345L7.62837 11.9692C8.12837 11.3922 8.45529 10.9115 8.63798 10.5269C8.82067 10.1422 8.91683 9.66147 8.91683 9.27685C8.91683 9.08455 8.86875 8.50762 8.76298 7.54608C8.66683 6.58455 8.61875 5.62301 8.61875 4.75762C8.61875 4.08455 8.67644 3.60378 8.80144 3.12301C8.92644 2.64224 9.1476 2.16147 9.47452 1.77686C9.76298 1.39224 10.1476 1.00762 10.7245 0.815317C11.3014 0.623009 11.9745 0.526855 12.7437 0.526855C13.0322 0.526855 13.3207 0.526855 13.6091 0.623009C13.8976 0.623009 14.2822 0.719163 14.763 0.911471C15.1476 1.10378 15.5322 1.29609 15.8207 1.58455C16.2053 1.87301 16.4937 2.35378 16.7822 2.83455C16.9745 3.41147 17.1668 3.98839 17.263 4.75762C17.3591 5.23839 17.3591 5.71916 17.4553 6.39224C17.4553 6.96916 17.5514 7.35378 17.5514 7.64224C17.6476 7.9307 17.6476 8.31532 17.7437 8.79609C17.8399 9.1807 17.9361 9.56532 18.1284 9.85378C18.3207 10.2384 18.513 10.623 18.8014 11.0076C19.0899 11.4884 19.4745 11.9692 19.8591 12.5461C20.7245 13.5076 21.3976 14.5653 21.7822 15.623C22.263 16.5845 22.5514 17.8345 22.5514 19.1711C22.5514 19.8345 22.4553 20.4788 22.263 21.1038C22.4553 21.1038 22.5514 21.1807 22.6476 21.3153C22.7437 21.4499 22.8399 21.7384 22.9361 22.1903L23.0322 22.9019C23.1284 23.1134 23.2245 23.3153 23.513 23.4884C23.7053 23.6615 23.8976 23.8057 24.1861 23.9211C24.3784 24.0172 24.6668 24.1519 24.8591 24.3249C25.0514 24.5172 25.1476 24.7192 25.1476 24.9307C25.1476 25.2576 25.0514 25.498 24.8591 25.6711C24.6668 25.8634 24.4745 25.998 24.1861 26.0845C23.9937 26.1807 23.6091 26.373 23.0322 26.6442C22.5514 26.9288 22.0707 27.274 21.5899 27.6826L20.6284 28.5009C20.2437 28.8759 19.8591 29.1451 19.5707 29.3086C19.2822 29.4817 18.8976 29.5682 18.513 29.5682L17.8399 29.4913C17.0707 29.2894 16.5899 28.9047 16.3014 28.3182C14.763 28.1317 13.513 28.0394 12.7437 28.0394" fill="white"/>
</svg>
