<svg width="33" height="33" viewBox="0 0 33 33" fill="none" xmlns="http://www.w3.org/2000/svg">
<g clip-path="url(#clip0_130_1913)">
<path d="M27.6537 14.9781L27.4007 14.5961C27.4007 11.55 26.0066 10.404 24.4787 9.51603C24.9896 9.38705 25.4957 9.26302 25.6246 8.62802C26.5127 8.37501 26.6416 7.99302 26.7657 7.61102C27.0187 7.48204 27.6537 7.10501 27.6537 6.34102C28.0357 6.08801 28.2887 5.70602 28.1646 5.2C28.5466 4.68902 28.6707 4.30702 28.5466 3.92999C29.0527 3.29499 28.7997 2.91299 28.6707 2.531C29.0527 1.76701 28.6707 1.00798 27.6537 1.13201C27.2766 0.497007 26.2596 0.625991 26.1307 0.625991C26.0066 0.372982 25.7487 0.243997 25.1137 0.372982C24.4787 -0.00901192 23.9726 -0.00901196 23.4666 0.243997C22.8316 -0.262021 22.4496 0.119974 22.0676 0.243997C21.3036 -0.00901196 21.1796 0.372982 20.7976 0.497007C20.0336 0.372982 19.7806 0.754977 19.3986 1.13201H19.0216C17.8756 1.76701 17.2406 3.29499 16.9876 3.92999C16.7346 3.166 16.2236 1.76701 14.9536 1.13201H14.5766C14.1946 0.754977 13.9416 0.372982 13.1776 0.497007C12.7956 0.372982 12.6716 -0.00901196 11.9076 0.243997C11.6546 0.119974 11.4016 -0.00901193 11.0196 -0.00901193C10.8906 -0.00901193 10.7666 0.119974 10.5086 0.243997C10.0026 -0.00901196 9.49656 -0.00901192 9.11456 0.372982C8.47956 0.243997 8.22655 0.497007 8.09756 0.625991C7.96858 0.625991 6.95654 0.497007 6.57455 1.13201C5.42857 1.00798 5.05154 1.76701 5.42857 2.531C5.17556 2.91299 5.05154 3.166 5.55755 3.92999C5.30454 4.183 5.42857 4.68902 5.93955 5.07101C5.81056 5.57703 5.93955 5.95902 6.44556 6.34102C6.32154 6.97602 7.08057 7.35801 7.20955 7.61102C7.33358 7.99302 7.46256 8.37501 8.35057 8.62802C8.47956 9.26302 8.98558 9.38705 9.49656 9.51603C7.84456 10.404 6.57455 11.6741 6.57455 14.5961L6.32154 14.9781C4.54056 16.1191 2.88856 19.6761 5.42857 22.5981C5.55755 23.4861 5.81056 24.1211 6.06357 24.8851C6.44556 27.8021 8.86155 29.2011 9.49656 29.3301C10.3846 30.0891 11.4016 30.7241 12.7956 31.2351C14.0656 32.5051 15.4646 33.0111 16.8586 33.0111C18.2576 33.0111 19.6566 32.5051 20.9266 31.2351C22.3206 30.7241 23.3376 30.0891 24.2256 29.3301C24.8607 29.2011 27.2766 27.8021 27.6537 24.8851C27.9116 24.1211 28.1646 23.4861 28.4177 22.5981C31.2107 19.6761 29.5587 16.1191 27.6537 14.9781ZM26.0066 14.4671C25.8776 15.7371 19.7806 10.28 20.7976 10.151C23.7196 9.64502 26.1307 11.2921 26.0066 14.4671ZM19.2746 1.896C19.2746 2.14901 19.3986 2.27799 19.3986 2.40202C19.7806 2.02498 20.0336 1.64299 20.4156 1.26099C20.4156 1.514 20.2916 1.64299 20.5446 1.896C20.7976 1.514 21.0506 1.26099 21.5616 1.00798C21.3036 1.38998 21.5616 1.514 21.6856 1.64299C22.0676 1.38998 22.3206 1.13201 22.9556 0.879C22.8316 1.13201 22.5736 1.26099 22.8316 1.514C23.2087 1.26099 23.4666 1.13201 24.3546 0.879C24.2256 1.13201 23.8437 1.26099 23.9726 1.514C24.3546 1.38998 24.8607 1.26099 25.3716 1.13201C25.1137 1.38998 24.8607 1.514 25.1137 1.64299C25.6246 1.514 26.1307 1.26099 26.7657 1.514L26.3837 1.896C26.3837 1.896 27.2766 1.896 27.9116 1.896C27.6537 2.27799 27.4007 2.531 27.2766 3.03702C27.2766 3.03702 27.6537 3.03702 27.9116 3.03702C27.6537 3.80101 27.1477 3.92999 27.0187 4.183C27.1477 4.30702 27.4007 4.30702 27.7827 4.183C27.5296 4.68902 27.1477 4.94203 26.7657 5.32402C26.8946 5.45301 27.0187 5.45301 27.4007 5.32402C27.0187 5.70602 26.6416 5.95902 26.2596 6.34102C26.3837 6.47 26.6416 6.47 26.8946 6.47C26.5127 6.84704 25.8776 7.10501 25.3716 7.35802C25.4957 7.61102 25.7487 7.48204 25.8776 7.48204C25.4957 7.74001 24.8607 7.99302 24.3546 8.11704C24.4787 8.24603 24.6076 8.37501 24.8607 8.37501C24.2256 8.75205 23.3376 8.49904 23.0846 8.75205C23.0846 8.88103 23.3376 9.01002 23.4666 9.13404C22.4496 9.13404 19.7806 9.13404 19.2746 7.10501C20.2916 5.95902 22.0676 4.68902 25.2426 3.03702C22.8316 3.92999 20.5446 4.94203 18.7636 6.47C16.7346 5.45301 18.1286 2.91299 19.2746 1.896ZM16.9876 9.26302C18.5106 9.26302 20.4156 10.404 20.4156 11.55C20.4156 12.5621 19.0216 13.3261 16.9876 13.3261C14.9536 13.3261 13.5596 12.3091 13.5596 11.421C13.5596 10.533 15.2116 9.26302 16.9876 9.26302ZM9.23859 8.49904C9.49656 8.49904 9.62058 8.37501 9.74956 8.24603C9.11456 7.99302 8.47956 7.86403 8.09756 7.48204C8.35057 7.48204 8.47956 7.48204 8.73257 7.35802C8.22655 7.10501 7.71557 6.84704 7.20955 6.47C7.46256 6.47 7.71557 6.47 7.84456 6.34102C7.46256 6.08801 7.08057 5.70601 6.69857 5.45301C7.08057 5.45301 7.20955 5.45301 7.33358 5.45301C6.95654 4.94203 6.57455 4.68902 6.32154 4.183C6.57455 4.30702 6.82756 4.30702 7.08057 4.183C6.95654 3.92999 6.32154 3.80101 6.06357 3.166C6.32154 3.166 6.69857 3.166 6.69857 3.166C6.57455 2.65999 6.32154 2.27799 6.19256 2.02498C6.82756 2.02498 7.71557 2.02498 7.71557 2.02498L7.33358 1.514C7.96858 1.38998 8.60358 1.514 8.98558 1.64299C9.23859 1.514 8.98558 1.26099 8.73257 1.13201C9.23859 1.26099 9.74956 1.38998 10.1316 1.514C10.3846 1.26099 10.0026 1.13201 9.74956 0.879C10.6376 1.00798 10.8906 1.26099 11.2726 1.514C11.5256 1.26099 11.2726 1.13201 11.1436 0.879C11.7786 1.13201 12.0366 1.38998 12.4136 1.64299C12.5426 1.514 12.6716 1.38998 12.5426 1.00798C12.7956 1.26099 13.1776 1.514 13.4306 1.896C13.6836 1.76701 13.5596 1.514 13.5596 1.26099C13.9416 1.64299 14.3186 2.02498 14.5766 2.40202C14.7006 2.40202 14.7006 2.14901 14.7006 1.896C15.7176 2.91299 17.2406 5.45301 15.0826 6.47C13.3066 4.94203 11.0196 3.80101 8.60358 3.03702C11.7786 4.68902 13.5596 5.95902 14.5766 7.10501C14.0656 9.13404 11.4016 9.26302 10.3846 9.13404C10.6376 9.01002 10.7666 8.88103 10.7666 8.75205C10.6376 8.62802 9.87359 8.75205 9.23859 8.49904ZM12.7956 10.0221C13.8126 10.151 7.71557 15.6131 7.59155 14.343C7.46256 11.2921 9.87359 9.51603 12.7956 10.0221ZM6.32154 22.0871C4.79357 20.8171 4.28755 17.3891 7.08057 15.7371C8.73257 15.2311 7.71557 22.5981 6.32154 22.0871ZM12.1606 28.4371C11.2726 28.9481 9.23859 28.6951 7.84456 26.6611C6.82756 24.8851 6.95654 23.1041 7.71557 22.5981C8.73257 21.9631 10.3846 22.8511 11.5256 24.2501C12.5426 25.3911 13.0486 27.6781 12.1606 28.4371ZM10.5086 20.6931C8.98558 19.6761 8.73257 17.3891 9.87359 15.4841C11.1436 13.708 13.3066 12.9441 14.8296 13.9611C16.3526 14.9781 16.6056 17.2651 15.4646 19.1701C14.3186 21.0751 12.0366 21.7101 10.5086 20.6931ZM16.9876 31.9941C15.0826 32.1231 13.3066 30.4711 13.3066 29.9651C13.3066 29.2011 15.5886 28.5661 17.1166 28.5661C18.6396 28.4371 20.6686 29.0721 20.6686 29.8361C20.6686 30.3421 18.7636 31.9941 16.9876 31.9941ZM20.7976 23.8681C20.7976 25.7731 19.1456 27.2961 17.1166 27.2961C15.0826 27.2961 13.3066 25.7731 13.3066 23.8681C13.3066 21.9631 14.9536 20.4401 16.9876 20.4401C19.1456 20.4401 20.7976 21.9631 20.7976 23.8681ZM18.5106 19.0411C17.2406 17.2651 17.6226 14.8491 19.1456 13.8321C20.6686 12.82 22.9556 13.455 24.1016 15.36C25.2426 17.2651 24.9896 19.5471 23.4666 20.5641C21.9386 21.4521 19.6566 20.8171 18.5106 19.0411ZM26.1307 26.6611C24.4787 28.9481 22.3206 28.9481 21.5616 28.3131C20.6686 27.5491 21.3036 25.0091 22.5736 23.6151C23.8437 22.0871 25.3716 21.0751 26.2596 21.8341C26.8946 22.7221 27.2766 25.1381 26.1307 26.6611ZM27.2766 21.9631C25.8776 22.5981 24.7366 15.2311 26.5127 15.6131C29.3057 17.1361 28.7997 20.6931 27.2766 21.9631Z" fill="white"/>
</g>
<defs>
<clipPath id="clip0_130_1913">
<rect width="33" height="33" fill="white"/>
</clipPath>
</defs>
</svg>
