<svg width="24" height="24" viewBox="0 0 24 24" fill="none" xmlns="http://www.w3.org/2000/svg">
<path d="M23.4619 7.25382C23.4079 6.02962 23.2099 5.18798 22.9263 4.4587C22.6337 3.68458 22.1835 2.99151 21.5937 2.41536C21.0174 1.83025 20.3197 1.37559 19.5544 1.0876C18.8207 0.80401 17.9833 0.606041 16.7589 0.552065C15.5253 0.493518 15.1337 0.47998 12.005 0.47998C8.87624 0.47998 8.48462 0.493518 7.25561 0.547494C6.03116 0.601469 5.18937 0.799614 4.46012 1.08303C3.68568 1.37559 2.99248 1.82568 2.41622 2.41536C1.83099 2.99151 1.37642 3.68915 1.08821 4.4543C0.80456 5.18798 0.606553 6.02505 0.552567 7.24925C0.494009 8.4826 0.480469 8.87415 0.480469 12.0023C0.480469 15.1304 0.494009 15.5219 0.547995 16.7507C0.601981 17.9749 0.800163 18.8165 1.08381 19.5458C1.37642 20.32 1.83099 21.013 2.41622 21.5892C2.99248 22.1743 3.69025 22.6289 4.45555 22.9169C5.18937 23.2005 6.02659 23.3985 7.25121 23.4525C8.48005 23.5066 8.87184 23.52 12.0006 23.52C15.1293 23.52 15.5209 23.5066 16.7499 23.4525C17.9743 23.3985 18.8161 23.2005 19.5454 22.9169C21.0941 22.3183 22.3185 21.0941 22.9173 19.5458C23.2008 18.8122 23.399 17.9749 23.4529 16.7507C23.5069 15.5219 23.5205 15.1304 23.5205 12.0023C23.5205 8.87415 23.5159 8.4826 23.4619 7.25382ZM21.3867 16.6607C21.3371 17.7859 21.1481 18.3935 20.9905 18.7986C20.6033 19.8023 19.8065 20.599 18.8026 20.9861C18.3974 21.1437 17.7853 21.3327 16.6643 21.3821C15.4488 21.4362 15.0843 21.4496 12.0095 21.4496C8.93479 21.4496 8.56569 21.4362 7.35461 21.3821C6.22917 21.3327 5.62143 21.1437 5.21628 20.9861C4.71669 20.8015 4.26194 20.509 3.89283 20.1264C3.51018 19.7528 3.21757 19.3027 3.03293 18.8032C2.87537 18.3981 2.68633 17.7859 2.63691 16.6653C2.58275 15.45 2.56939 15.0854 2.56939 12.0112C2.56939 8.93709 2.58275 8.56805 2.63691 7.35738C2.68633 6.23216 2.87537 5.62454 3.03293 5.21946C3.21757 4.71979 3.51018 4.2653 3.8974 3.89609C4.27091 3.51351 4.72108 3.22095 5.22085 3.03652C5.62601 2.87899 6.23832 2.68999 7.35918 2.64041C8.57465 2.58643 8.93937 2.5729 12.0139 2.5729C15.0932 2.5729 15.4578 2.58643 16.6688 2.64041C17.7943 2.68999 18.402 2.87899 18.8072 3.03652C19.3068 3.22095 19.7615 3.51351 20.1306 3.89609C20.5133 4.2697 20.8059 4.71979 20.9905 5.21946C21.1481 5.62454 21.3371 6.23655 21.3867 7.35738C21.4407 8.57262 21.4542 8.93709 21.4542 12.0112C21.4542 15.0854 21.4407 15.4454 21.3867 16.6607Z" fill="#002E50"/>
<path d="M12.005 6.08359C8.73679 6.08359 6.08515 8.73454 6.08515 12.0023C6.08515 15.27 8.73679 17.9209 12.005 17.9209C15.2733 17.9209 17.9248 15.27 17.9248 12.0023C17.9248 8.73454 15.2733 6.08359 12.005 6.08359ZM12.005 15.8416C9.88473 15.8416 8.16492 14.1223 8.16492 12.0023C8.16492 9.88227 9.88473 8.16297 12.005 8.16297C14.1253 8.16297 15.845 9.88227 15.845 12.0023C15.845 14.1223 14.1253 15.8416 12.005 15.8416Z" fill="#002E50"/>
<path d="M19.541 5.84958C19.541 6.61262 18.9222 7.23132 18.1588 7.23132C17.3956 7.23132 16.7768 6.61262 16.7768 5.84958C16.7768 5.08636 17.3956 4.46784 18.1588 4.46784C18.9222 4.46784 19.541 5.08636 19.541 5.84958Z" fill="#002E50"/>
</svg>
