<svg width="23" height="23" viewBox="0 0 23 23" fill="none" xmlns="http://www.w3.org/2000/svg">
<g clip-path="url(#clip0_130_2030)">
<path d="M5.27692 3.65339C5.27692 4.90549 4.27052 5.92005 3.02839 5.92005C1.78625 5.92005 0.779852 4.90549 0.779852 3.65339C0.779852 2.40219 1.78625 1.38672 3.02839 1.38672C4.27052 1.38672 5.27692 2.40219 5.27692 3.65339ZM5.29505 7.73339H0.761719V22.2401H5.29505V7.73339ZM12.5321 7.73339H8.02775V22.2401H12.533V14.625C12.533 10.3908 17.9993 10.0445 17.9993 14.625V22.2401H22.5217V13.0546C22.5217 5.91008 14.4324 6.17029 12.5321 9.68725V7.73339Z" fill="#002E50"/>
</g>
<defs>
<clipPath id="clip0_130_2030">
<rect width="21.76" height="21.76" fill="white" transform="translate(0.761719 0.47998)"/>
</clipPath>
</defs>
</svg>
