<svg width="577" height="335" viewBox="0 0 577 335" fill="none" xmlns="http://www.w3.org/2000/svg">
<path opacity="0.8" d="M42.3068 188.114V185.062H42.8693C43.0625 184.886 43.2443 184.638 43.4148 184.317C43.5881 183.993 43.7344 183.561 43.8537 183.021C43.9759 182.479 44.0568 181.79 44.0966 180.955L44.2841 177.273H49.4659V185.062H50.4716V188.097H49.4659V186H43.3125V188.114H42.3068ZM44.1307 185.062H48.4602V178.21H45.2386L45.1023 180.955C45.0682 181.591 45.0085 182.168 44.9233 182.685C44.8381 183.199 44.7287 183.655 44.5952 184.053C44.4616 184.447 44.3068 184.784 44.1307 185.062ZM53.8583 186.153C53.4435 186.153 53.0671 186.075 52.729 185.919C52.391 185.76 52.1225 185.531 51.9237 185.233C51.7248 184.932 51.6254 184.568 51.6254 184.142C51.6254 183.767 51.6992 183.463 51.8469 183.23C51.9947 182.994 52.1921 182.81 52.4393 182.676C52.6864 182.543 52.9592 182.443 53.2575 182.378C53.5586 182.31 53.8612 182.256 54.1651 182.216C54.5629 182.165 54.8853 182.126 55.1325 182.101C55.3825 182.072 55.5643 182.026 55.6779 181.96C55.7944 181.895 55.8526 181.781 55.8526 181.619V181.585C55.8526 181.165 55.7376 180.838 55.5075 180.605C55.2802 180.372 54.935 180.256 54.4719 180.256C53.9918 180.256 53.6154 180.361 53.3427 180.571C53.07 180.781 52.8782 181.006 52.7674 181.244L51.8129 180.903C51.9833 180.506 52.2106 180.196 52.4947 179.974C52.7816 179.75 53.0941 179.594 53.4322 179.506C53.7731 179.415 54.1083 179.369 54.4379 179.369C54.6481 179.369 54.8896 179.395 55.1623 179.446C55.4379 179.494 55.7035 179.595 55.9592 179.749C56.2177 179.902 56.4322 180.134 56.6026 180.443C56.7731 180.753 56.8583 181.168 56.8583 181.688V186H55.8526V185.114H55.8015C55.7333 185.256 55.6197 185.408 55.4606 185.57C55.3015 185.732 55.0898 185.869 54.8256 185.983C54.5614 186.097 54.239 186.153 53.8583 186.153ZM54.0117 185.25C54.4094 185.25 54.7447 185.172 55.0174 185.016C55.293 184.859 55.5004 184.658 55.6396 184.411C55.7816 184.163 55.8526 183.903 55.8526 183.631V182.71C55.81 182.761 55.7163 182.808 55.5714 182.851C55.4293 182.891 55.2646 182.926 55.0771 182.957C54.8924 182.986 54.712 183.011 54.5359 183.034C54.3626 183.054 54.2219 183.071 54.114 183.085C53.8526 183.119 53.6083 183.175 53.381 183.251C53.1566 183.325 52.9748 183.437 52.8356 183.588C52.6992 183.736 52.631 183.937 52.631 184.193C52.631 184.543 52.7603 184.807 53.0188 184.986C53.2802 185.162 53.6112 185.25 54.0117 185.25ZM58.6939 179.455H59.6996V185.062H62.1712V179.455H63.1768V185.062H65.6484V179.455H66.6541V186H58.6939V179.455ZM73.3487 177L73.8601 177.614C73.6612 177.807 73.4311 177.942 73.1697 178.018C72.9084 178.095 72.6129 178.142 72.2834 178.159C71.9538 178.176 71.5874 178.193 71.1839 178.21C70.7294 178.227 70.353 178.338 70.0547 178.543C69.7564 178.747 69.5263 179.043 69.3643 179.429C69.2024 179.815 69.0987 180.29 69.0533 180.852H69.1385C69.3601 180.443 69.6669 180.142 70.0589 179.949C70.451 179.756 70.8714 179.659 71.3203 179.659C71.8317 179.659 72.2919 179.778 72.701 180.017C73.1101 180.256 73.4339 180.609 73.6726 181.078C73.9112 181.547 74.0305 182.125 74.0305 182.812C74.0305 183.497 73.9084 184.088 73.6641 184.585C73.4226 185.082 73.0831 185.466 72.6456 185.736C72.2109 186.003 71.701 186.136 71.1158 186.136C70.5305 186.136 70.0178 185.999 69.5774 185.723C69.1371 185.445 68.7947 185.033 68.5504 184.487C68.3061 183.939 68.1839 183.261 68.1839 182.455V181.756C68.1839 180.298 68.4311 179.193 68.9254 178.44C69.4226 177.687 70.1697 177.298 71.1669 177.273C71.5192 177.261 71.8331 177.259 72.1087 177.264C72.3842 177.27 72.6243 177.257 72.8288 177.226C73.0334 177.195 73.2067 177.119 73.3487 177ZM71.1158 185.233C71.5107 185.233 71.8501 185.134 72.1342 184.935C72.4212 184.736 72.6413 184.456 72.7947 184.095C72.9482 183.732 73.0249 183.304 73.0249 182.812C73.0249 182.335 72.9467 181.929 72.7905 181.594C72.6371 181.259 72.4169 181.003 72.13 180.827C71.843 180.651 71.4993 180.562 71.0987 180.562C70.8061 180.562 70.5433 180.612 70.3104 180.712C70.0774 180.811 69.8786 180.957 69.7138 181.151C69.549 181.344 69.4212 181.58 69.3303 181.858C69.2422 182.136 69.1953 182.455 69.1896 182.812C69.1896 183.545 69.3615 184.132 69.7053 184.572C70.049 185.013 70.5192 185.233 71.1158 185.233ZM78.228 186.136C77.6371 186.136 77.1186 185.996 76.6726 185.714C76.2294 185.433 75.8828 185.04 75.6328 184.534C75.3857 184.028 75.2621 183.437 75.2621 182.761C75.2621 182.08 75.3857 181.484 75.6328 180.976C75.8828 180.467 76.2294 180.072 76.6726 179.791C77.1186 179.51 77.6371 179.369 78.228 179.369C78.8189 179.369 79.3359 179.51 79.7791 179.791C80.2251 180.072 80.5717 180.467 80.8189 180.976C81.0689 181.484 81.1939 182.08 81.1939 182.761C81.1939 183.437 81.0689 184.028 80.8189 184.534C80.5717 185.04 80.2251 185.433 79.7791 185.714C79.3359 185.996 78.8189 186.136 78.228 186.136ZM78.228 185.233C78.6768 185.233 79.0462 185.118 79.3359 184.888C79.6257 184.658 79.8402 184.355 79.9794 183.98C80.1186 183.605 80.1882 183.199 80.1882 182.761C80.1882 182.324 80.1186 181.916 79.9794 181.538C79.8402 181.161 79.6257 180.855 79.3359 180.622C79.0462 180.389 78.6768 180.273 78.228 180.273C77.7791 180.273 77.4098 180.389 77.12 180.622C76.8303 180.855 76.6158 181.161 76.4766 181.538C76.3374 181.916 76.2678 182.324 76.2678 182.761C76.2678 183.199 76.3374 183.605 76.4766 183.98C76.6158 184.355 76.8303 184.658 77.12 184.888C77.4098 185.118 77.7791 185.233 78.228 185.233ZM82.729 188.455V179.455H83.7006V180.494H83.82C83.8938 180.381 83.9961 180.236 84.1268 180.06C84.2603 179.881 84.4506 179.722 84.6978 179.582C84.9478 179.44 85.2859 179.369 85.712 179.369C86.2631 179.369 86.7489 179.507 87.1694 179.783C87.5898 180.058 87.918 180.449 88.1538 180.955C88.3896 181.46 88.5075 182.057 88.5075 182.744C88.5075 183.438 88.3896 184.038 88.1538 184.547C87.918 185.053 87.5913 185.445 87.1737 185.723C86.756 185.999 86.2745 186.136 85.729 186.136C85.3086 186.136 84.9719 186.067 84.7191 185.928C84.4663 185.786 84.2717 185.625 84.1353 185.446C83.9989 185.264 83.8938 185.114 83.82 184.994H83.7347V188.455H82.729ZM83.7177 182.727C83.7177 183.222 83.7901 183.658 83.935 184.036C84.0799 184.411 84.2915 184.705 84.57 184.918C84.8484 185.128 85.1893 185.233 85.5927 185.233C86.0131 185.233 86.364 185.122 86.6452 184.901C86.9293 184.676 87.1424 184.375 87.2844 183.997C87.4293 183.616 87.5018 183.193 87.5018 182.727C87.5018 182.267 87.4308 181.852 87.2887 181.483C87.1495 181.111 86.9379 180.817 86.6538 180.601C86.3725 180.382 86.0188 180.273 85.5927 180.273C85.1836 180.273 84.8398 180.376 84.5614 180.584C84.283 180.788 84.0728 181.075 83.9308 181.445C83.7887 181.811 83.7177 182.239 83.7177 182.727ZM89.3427 187.875V185.062H89.8881C90.0217 184.923 90.1367 184.773 90.2333 184.611C90.3299 184.449 90.4137 184.257 90.4847 184.036C90.5586 183.811 90.6211 183.538 90.6722 183.217C90.7234 182.893 90.7688 182.503 90.8086 182.045L91.0302 179.455H95.1893V185.062H96.195V187.875H95.1893V186H90.3484V187.875H89.3427ZM91.0302 185.062H94.1836V180.392H91.9677L91.7972 182.045C91.7262 182.73 91.6381 183.328 91.533 183.839C91.4279 184.351 91.2603 184.759 91.0302 185.062Z" fill="#002E50"/>
<rect x="1" y="199" width="135" height="23" fill="#CFEC52"/>
<path opacity="0.8" d="M43.517 214.119V213.131H44.0625C44.2727 213.131 44.4489 213.089 44.5909 213.007C44.7358 212.925 44.8551 212.818 44.9489 212.688C45.0455 212.557 45.125 212.42 45.1875 212.278L45.3239 211.955L42.3068 205.273H43.4489L45.8523 210.693L48.0511 205.273H49.1761L46.1591 212.585C46.0398 212.858 45.9034 213.111 45.75 213.344C45.5994 213.577 45.3935 213.764 45.1321 213.906C44.8736 214.048 44.5227 214.119 44.0795 214.119H43.517ZM52.142 214.136C51.5284 214.136 51 213.991 50.5568 213.702C50.1136 213.412 49.7727 213.013 49.5341 212.504C49.2955 211.996 49.1761 211.415 49.1761 210.761C49.1761 210.097 49.2983 209.51 49.5426 209.001C49.7898 208.49 50.1335 208.091 50.5739 207.804C51.017 207.514 51.5341 207.369 52.125 207.369C52.5852 207.369 53 207.455 53.3693 207.625C53.7386 207.795 54.0412 208.034 54.277 208.341C54.5128 208.648 54.6591 209.006 54.7159 209.415H53.7102C53.6335 209.116 53.4631 208.852 53.1989 208.622C52.9375 208.389 52.5852 208.273 52.142 208.273C51.75 208.273 51.4063 208.375 51.1108 208.58C50.8182 208.781 50.5895 209.067 50.4247 209.436C50.2628 209.803 50.1818 210.233 50.1818 210.727C50.1818 211.233 50.2614 211.673 50.4205 212.048C50.5824 212.423 50.8097 212.714 51.1023 212.922C51.3977 213.129 51.7443 213.233 52.142 213.233C52.4034 213.233 52.6406 213.188 52.8537 213.097C53.0668 213.006 53.2472 212.875 53.3949 212.705C53.5426 212.534 53.6477 212.33 53.7102 212.091H54.7159C54.6591 212.477 54.5185 212.825 54.294 213.135C54.0724 213.442 53.7784 213.686 53.4119 213.868C53.0483 214.047 52.625 214.136 52.142 214.136ZM55.6705 208.392V207.455H60.9886V208.392H58.8409V214H57.8352V208.392H55.6705ZM62.4556 216.455V207.455H63.4272V208.494H63.5465C63.6204 208.381 63.7227 208.236 63.8533 208.06C63.9869 207.881 64.1772 207.722 64.4244 207.582C64.6744 207.44 65.0124 207.369 65.4386 207.369C65.9897 207.369 66.4755 207.507 66.896 207.783C67.3164 208.058 67.6445 208.449 67.8803 208.955C68.1161 209.46 68.234 210.057 68.234 210.744C68.234 211.438 68.1161 212.038 67.8803 212.547C67.6445 213.053 67.3178 213.445 66.9002 213.723C66.4826 213.999 66.0011 214.136 65.4556 214.136C65.0352 214.136 64.6985 214.067 64.4457 213.928C64.1928 213.786 63.9982 213.625 63.8619 213.446C63.7255 213.264 63.6204 213.114 63.5465 212.994H63.4613V216.455H62.4556ZM63.4442 210.727C63.4442 211.222 63.5167 211.658 63.6616 212.036C63.8065 212.411 64.0181 212.705 64.2965 212.918C64.5749 213.128 64.9158 213.233 65.3192 213.233C65.7397 213.233 66.0906 213.122 66.3718 212.901C66.6559 212.676 66.869 212.375 67.011 211.997C67.1559 211.616 67.2283 211.193 67.2283 210.727C67.2283 210.267 67.1573 209.852 67.0153 209.483C66.8761 209.111 66.6644 208.817 66.3803 208.601C66.0991 208.382 65.7454 208.273 65.3192 208.273C64.9102 208.273 64.5664 208.376 64.288 208.584C64.0096 208.788 63.7994 209.075 63.6573 209.445C63.5153 209.811 63.4442 210.239 63.4442 210.727ZM72.4272 214.136C71.8363 214.136 71.3178 213.996 70.8718 213.714C70.4286 213.433 70.082 213.04 69.832 212.534C69.5849 212.028 69.4613 211.437 69.4613 210.761C69.4613 210.08 69.5849 209.484 69.832 208.976C70.082 208.467 70.4286 208.072 70.8718 207.791C71.3178 207.51 71.8363 207.369 72.4272 207.369C73.0181 207.369 73.5352 207.51 73.9783 207.791C74.4244 208.072 74.771 208.467 75.0181 208.976C75.2681 209.484 75.3931 210.08 75.3931 210.761C75.3931 211.437 75.2681 212.028 75.0181 212.534C74.771 213.04 74.4244 213.433 73.9783 213.714C73.5352 213.996 73.0181 214.136 72.4272 214.136ZM72.4272 213.233C72.8761 213.233 73.2454 213.118 73.5352 212.888C73.8249 212.658 74.0394 212.355 74.1786 211.98C74.3178 211.605 74.3874 211.199 74.3874 210.761C74.3874 210.324 74.3178 209.916 74.1786 209.538C74.0394 209.161 73.8249 208.855 73.5352 208.622C73.2454 208.389 72.8761 208.273 72.4272 208.273C71.9783 208.273 71.609 208.389 71.3192 208.622C71.0295 208.855 70.815 209.161 70.6758 209.538C70.5366 209.916 70.467 210.324 70.467 210.761C70.467 211.199 70.5366 211.605 70.6758 211.98C70.815 212.355 71.0295 212.658 71.3192 212.888C71.609 213.118 71.9783 213.233 72.4272 213.233ZM77.9339 212.517L81.0874 207.455H82.2464V214H81.2408V208.938L78.1044 214H76.9283V207.455H77.9339V212.517ZM80.4226 205.273H81.3601C81.3601 205.733 81.201 206.109 80.8828 206.402C80.5646 206.695 80.1328 206.841 79.5874 206.841C79.0504 206.841 78.6229 206.695 78.3047 206.402C77.9893 206.109 77.8317 205.733 77.8317 205.273H78.7692C78.7692 205.494 78.8303 205.689 78.9524 205.857C79.0774 206.024 79.2891 206.108 79.5874 206.108C79.8857 206.108 80.0987 206.024 80.2266 205.857C80.3572 205.689 80.4226 205.494 80.4226 205.273ZM86.7475 214.136C86.1339 214.136 85.6055 213.991 85.1623 213.702C84.7191 213.412 84.3782 213.013 84.1396 212.504C83.9009 211.996 83.7816 211.415 83.7816 210.761C83.7816 210.097 83.9038 209.51 84.1481 209.001C84.3952 208.49 84.739 208.091 85.1793 207.804C85.6225 207.514 86.1396 207.369 86.7305 207.369C87.1907 207.369 87.6055 207.455 87.9748 207.625C88.3441 207.795 88.6467 208.034 88.8825 208.341C89.1183 208.648 89.2646 209.006 89.3214 209.415H88.3157C88.239 209.116 88.0685 208.852 87.8043 208.622C87.543 208.389 87.1907 208.273 86.7475 208.273C86.3555 208.273 86.0117 208.375 85.7163 208.58C85.4237 208.781 85.195 209.067 85.0302 209.436C84.8683 209.803 84.7873 210.233 84.7873 210.727C84.7873 211.233 84.8668 211.673 85.0259 212.048C85.1879 212.423 85.4151 212.714 85.7077 212.922C86.0032 213.129 86.3498 213.233 86.7475 213.233C87.0089 213.233 87.2461 213.188 87.4592 213.097C87.6722 213.006 87.8526 212.875 88.0004 212.705C88.1481 212.534 88.2532 212.33 88.3157 212.091H89.3214C89.2646 212.477 89.1239 212.825 88.8995 213.135C88.6779 213.442 88.3839 213.686 88.0174 213.868C87.6538 214.047 87.2305 214.136 86.7475 214.136ZM90.2759 208.392V207.455H95.5941V208.392H93.4464V214H92.4407V208.392H90.2759ZM97.0611 214V207.455H99.7372C100.442 207.455 101.001 207.614 101.416 207.932C101.831 208.25 102.038 208.67 102.038 209.193C102.038 209.591 101.92 209.899 101.685 210.118C101.449 210.334 101.146 210.48 100.777 210.557C101.018 210.591 101.253 210.676 101.48 210.812C101.71 210.949 101.901 211.136 102.051 211.375C102.202 211.611 102.277 211.901 102.277 212.244C102.277 212.58 102.192 212.879 102.021 213.143C101.851 213.408 101.607 213.616 101.288 213.77C100.97 213.923 100.589 214 100.146 214H97.0611ZM98.0156 213.08H100.146C100.493 213.08 100.764 212.997 100.96 212.832C101.156 212.668 101.254 212.443 101.254 212.159C101.254 211.821 101.156 211.555 100.96 211.362C100.764 211.166 100.493 211.068 100.146 211.068H98.0156V213.08ZM98.0156 210.199H99.7372C100.007 210.199 100.239 210.162 100.432 210.088C100.625 210.011 100.773 209.903 100.875 209.764C100.98 209.622 101.033 209.455 101.033 209.261C101.033 208.986 100.918 208.77 100.688 208.614C100.457 208.455 100.141 208.375 99.7372 208.375H98.0156V210.199ZM105.725 214.153C105.311 214.153 104.934 214.075 104.596 213.919C104.258 213.76 103.99 213.531 103.791 213.233C103.592 212.932 103.493 212.568 103.493 212.142C103.493 211.767 103.566 211.463 103.714 211.23C103.862 210.994 104.059 210.81 104.306 210.676C104.554 210.543 104.826 210.443 105.125 210.378C105.426 210.31 105.728 210.256 106.032 210.216C106.43 210.165 106.752 210.126 107 210.101C107.25 210.072 107.431 210.026 107.545 209.96C107.662 209.895 107.72 209.781 107.72 209.619V209.585C107.72 209.165 107.605 208.838 107.375 208.605C107.147 208.372 106.802 208.256 106.339 208.256C105.859 208.256 105.483 208.361 105.21 208.571C104.937 208.781 104.745 209.006 104.635 209.244L103.68 208.903C103.85 208.506 104.078 208.196 104.362 207.974C104.649 207.75 104.961 207.594 105.299 207.506C105.64 207.415 105.975 207.369 106.305 207.369C106.515 207.369 106.757 207.395 107.029 207.446C107.305 207.494 107.571 207.595 107.826 207.749C108.085 207.902 108.299 208.134 108.47 208.443C108.64 208.753 108.725 209.168 108.725 209.688V214H107.72V213.114H107.669C107.6 213.256 107.487 213.408 107.328 213.57C107.169 213.732 106.957 213.869 106.693 213.983C106.429 214.097 106.106 214.153 105.725 214.153ZM105.879 213.25C106.277 213.25 106.612 213.172 106.885 213.016C107.16 212.859 107.368 212.658 107.507 212.411C107.649 212.163 107.72 211.903 107.72 211.631V210.71C107.677 210.761 107.583 210.808 107.439 210.851C107.297 210.891 107.132 210.926 106.944 210.957C106.76 210.986 106.579 211.011 106.403 211.034C106.23 211.054 106.089 211.071 105.981 211.085C105.72 211.119 105.475 211.175 105.248 211.251C105.024 211.325 104.842 211.437 104.703 211.588C104.566 211.736 104.498 211.937 104.498 212.193C104.498 212.543 104.627 212.807 104.886 212.986C105.147 213.162 105.478 213.25 105.879 213.25Z" fill="#002E50"/>
<path opacity="0.8" d="M48.3239 233.273V234.21H44.1136V242H43.0568V233.273H48.3239ZM50.8583 242.153C50.4435 242.153 50.0671 242.075 49.729 241.919C49.391 241.76 49.1225 241.531 48.9237 241.233C48.7248 240.932 48.6254 240.568 48.6254 240.142C48.6254 239.767 48.6992 239.463 48.8469 239.23C48.9947 238.994 49.1921 238.81 49.4393 238.676C49.6864 238.543 49.9592 238.443 50.2575 238.378C50.5586 238.31 50.8612 238.256 51.1651 238.216C51.5629 238.165 51.8853 238.126 52.1325 238.101C52.3825 238.072 52.5643 238.026 52.6779 237.96C52.7944 237.895 52.8526 237.781 52.8526 237.619V237.585C52.8526 237.165 52.7376 236.838 52.5075 236.605C52.2802 236.372 51.935 236.256 51.4719 236.256C50.9918 236.256 50.6154 236.361 50.3427 236.571C50.07 236.781 49.8782 237.006 49.7674 237.244L48.8129 236.903C48.9833 236.506 49.2106 236.196 49.4947 235.974C49.7816 235.75 50.0941 235.594 50.4322 235.506C50.7731 235.415 51.1083 235.369 51.4379 235.369C51.6481 235.369 51.8896 235.395 52.1623 235.446C52.4379 235.494 52.7035 235.595 52.9592 235.749C53.2177 235.902 53.4322 236.134 53.6026 236.443C53.7731 236.753 53.8583 237.168 53.8583 237.688V242H52.8526V241.114H52.8015C52.7333 241.256 52.6197 241.408 52.4606 241.57C52.3015 241.732 52.0898 241.869 51.8256 241.983C51.5614 242.097 51.239 242.153 50.8583 242.153ZM51.0117 241.25C51.4094 241.25 51.7447 241.172 52.0174 241.016C52.293 240.859 52.5004 240.658 52.6396 240.411C52.7816 240.163 52.8526 239.903 52.8526 239.631V238.71C52.81 238.761 52.7163 238.808 52.5714 238.851C52.4293 238.891 52.2646 238.926 52.0771 238.957C51.8924 238.986 51.712 239.011 51.5359 239.034C51.3626 239.054 51.2219 239.071 51.114 239.085C50.8526 239.119 50.6083 239.175 50.381 239.251C50.1566 239.325 49.9748 239.437 49.8356 239.588C49.6992 239.736 49.631 239.937 49.631 240.193C49.631 240.543 49.7603 240.807 50.0188 240.986C50.2802 241.162 50.6112 241.25 51.0117 241.25ZM55.1143 242V241.062H55.353C55.549 241.062 55.7124 241.024 55.843 240.947C55.9737 240.868 56.0788 240.73 56.1584 240.534C56.2408 240.335 56.3033 240.06 56.3459 239.707C56.3913 239.352 56.424 238.901 56.4439 238.352L56.5632 235.455H60.9268V242H59.9212V236.392H57.5178L57.4155 238.727C57.3928 239.264 57.3445 239.737 57.2706 240.146C57.1996 240.553 57.0902 240.893 56.9425 241.169C56.7976 241.445 56.6044 241.652 56.3629 241.791C56.1214 241.93 55.8189 242 55.4553 242H55.1143ZM65.5163 242.136C64.8857 242.136 64.3416 241.997 63.8842 241.719C63.4297 241.438 63.0788 241.045 62.8317 240.543C62.5874 240.037 62.4652 239.449 62.4652 238.778C62.4652 238.108 62.5874 237.517 62.8317 237.006C63.0788 236.491 63.4226 236.091 63.8629 235.804C64.3061 235.514 64.8232 235.369 65.4141 235.369C65.755 235.369 66.0916 235.426 66.424 235.54C66.7564 235.653 67.0589 235.838 67.3317 236.094C67.6044 236.347 67.8217 236.682 67.9837 237.099C68.1456 237.517 68.2266 238.031 68.2266 238.642V239.068H63.1811V238.199H67.2038C67.2038 237.83 67.13 237.5 66.9822 237.21C66.8374 236.92 66.63 236.692 66.3601 236.524C66.093 236.357 65.7777 236.273 65.4141 236.273C65.0135 236.273 64.6669 236.372 64.3743 236.571C64.0845 236.767 63.8615 237.023 63.7053 237.338C63.549 237.653 63.4709 237.991 63.4709 238.352V238.932C63.4709 239.426 63.5561 239.845 63.7266 240.189C63.8999 240.53 64.1399 240.79 64.4467 240.969C64.7536 241.145 65.1101 241.233 65.5163 241.233C65.7805 241.233 66.0192 241.196 66.2322 241.122C66.4482 241.045 66.6342 240.932 66.7905 240.781C66.9467 240.628 67.0675 240.437 67.1527 240.21L68.1243 240.483C68.022 240.812 67.8501 241.102 67.6087 241.352C67.3672 241.599 67.0689 241.793 66.7138 241.932C66.3587 242.068 65.9595 242.136 65.5163 242.136ZM69.7564 244.455V235.455H70.728V236.494H70.8473C70.9212 236.381 71.0234 236.236 71.1541 236.06C71.2876 235.881 71.478 235.722 71.7251 235.582C71.9751 235.44 72.3132 235.369 72.7393 235.369C73.2905 235.369 73.7763 235.507 74.1967 235.783C74.6172 236.058 74.9453 236.449 75.1811 236.955C75.4169 237.46 75.5348 238.057 75.5348 238.744C75.5348 239.438 75.4169 240.038 75.1811 240.547C74.9453 241.053 74.6186 241.445 74.201 241.723C73.7834 241.999 73.3018 242.136 72.7564 242.136C72.3359 242.136 71.9993 242.067 71.7464 241.928C71.4936 241.786 71.299 241.625 71.1626 241.446C71.0263 241.264 70.9212 241.114 70.8473 240.994H70.7621V244.455H69.7564ZM70.745 238.727C70.745 239.222 70.8175 239.658 70.9624 240.036C71.1072 240.411 71.3189 240.705 71.5973 240.918C71.8757 241.128 72.2166 241.233 72.62 241.233C73.0405 241.233 73.3913 241.122 73.6726 240.901C73.9567 240.676 74.1697 240.375 74.3118 239.997C74.4567 239.616 74.5291 239.193 74.5291 238.727C74.5291 238.267 74.4581 237.852 74.3161 237.483C74.1768 237.111 73.9652 236.817 73.6811 236.601C73.3999 236.382 73.0462 236.273 72.62 236.273C72.2109 236.273 71.8672 236.376 71.5888 236.584C71.3104 236.788 71.1001 237.075 70.9581 237.445C70.8161 237.811 70.745 238.239 70.745 238.727ZM79.8132 242.136C79.1825 242.136 78.6385 241.997 78.1811 241.719C77.7266 241.438 77.3757 241.045 77.1286 240.543C76.8842 240.037 76.7621 239.449 76.7621 238.778C76.7621 238.108 76.8842 237.517 77.1286 237.006C77.3757 236.491 77.7195 236.091 78.1598 235.804C78.603 235.514 79.12 235.369 79.7109 235.369C80.0518 235.369 80.3885 235.426 80.7209 235.54C81.0533 235.653 81.3558 235.838 81.6286 236.094C81.9013 236.347 82.1186 236.682 82.2805 237.099C82.4425 237.517 82.5234 238.031 82.5234 238.642V239.068H77.478V238.199H81.5007C81.5007 237.83 81.4268 237.5 81.2791 237.21C81.1342 236.92 80.9268 236.692 80.657 236.524C80.3899 236.357 80.0746 236.273 79.7109 236.273C79.3104 236.273 78.9638 236.372 78.6712 236.571C78.3814 236.767 78.1584 237.023 78.0021 237.338C77.8459 237.653 77.7678 237.991 77.7678 238.352V238.932C77.7678 239.426 77.853 239.845 78.0234 240.189C78.1967 240.53 78.4368 240.79 78.7436 240.969C79.0504 241.145 79.407 241.233 79.8132 241.233C80.0774 241.233 80.3161 241.196 80.5291 241.122C80.745 241.045 80.9311 240.932 81.0874 240.781C81.2436 240.628 81.3643 240.437 81.4496 240.21L82.4212 240.483C82.3189 240.812 82.147 241.102 81.9055 241.352C81.6641 241.599 81.3658 241.793 81.0107 241.932C80.6555 242.068 80.2564 242.136 79.8132 242.136ZM87.9908 242V236.375H86.2521C85.8601 236.375 85.5518 236.466 85.3274 236.648C85.103 236.83 84.9908 237.08 84.9908 237.398C84.9908 237.71 85.0916 237.956 85.2933 238.135C85.4979 238.314 85.7777 238.403 86.1328 238.403H88.2464V239.341H86.1328C85.6896 239.341 85.3075 239.263 84.9865 239.107C84.6655 238.95 84.4183 238.727 84.245 238.438C84.0717 238.145 83.9851 237.798 83.9851 237.398C83.9851 236.994 84.076 236.648 84.2578 236.358C84.4396 236.068 84.6996 235.845 85.0376 235.689C85.3786 235.533 85.7834 235.455 86.2521 235.455H88.9453V242H87.9908ZM83.6271 242L85.4851 238.744H86.576L84.718 242H83.6271Z" fill="#002E50"/>
<path opacity="0.8" d="M49.5852 261.273V270H48.5284V262.21H44.1307V270H43.0739V261.273H49.5852ZM51.0011 270V269.062H51.2397C51.4357 269.062 51.5991 269.024 51.7298 268.947C51.8604 268.868 51.9656 268.73 52.0451 268.534C52.1275 268.335 52.19 268.06 52.2326 267.707C52.2781 267.352 52.3107 266.901 52.3306 266.352L52.4499 263.455H56.8136V270H55.8079V264.392H53.4045L53.3022 266.727C53.2795 267.264 53.2312 267.737 53.1573 268.146C53.0863 268.553 52.9769 268.893 52.8292 269.169C52.6843 269.445 52.4911 269.652 52.2496 269.791C52.0082 269.93 51.7056 270 51.342 270H51.0011ZM61.4031 270.136C60.7724 270.136 60.2283 269.997 59.771 269.719C59.3164 269.438 58.9656 269.045 58.7184 268.543C58.4741 268.037 58.3519 267.449 58.3519 266.778C58.3519 266.108 58.4741 265.517 58.7184 265.006C58.9656 264.491 59.3093 264.091 59.7496 263.804C60.1928 263.514 60.7099 263.369 61.3008 263.369C61.6417 263.369 61.9783 263.426 62.3107 263.54C62.6431 263.653 62.9457 263.838 63.2184 264.094C63.4911 264.347 63.7085 264.682 63.8704 265.099C64.0323 265.517 64.1133 266.031 64.1133 266.642V267.068H59.0678V266.199H63.0906C63.0906 265.83 63.0167 265.5 62.869 265.21C62.7241 264.92 62.5167 264.692 62.2468 264.524C61.9798 264.357 61.6644 264.273 61.3008 264.273C60.9002 264.273 60.5536 264.372 60.261 264.571C59.9712 264.767 59.7482 265.023 59.592 265.338C59.4357 265.653 59.3576 265.991 59.3576 266.352V266.932C59.3576 267.426 59.4428 267.845 59.6133 268.189C59.7866 268.53 60.0266 268.79 60.3335 268.969C60.6403 269.145 60.9968 269.233 61.4031 269.233C61.6673 269.233 61.9059 269.196 62.119 269.122C62.3349 269.045 62.521 268.932 62.6772 268.781C62.8335 268.628 62.9542 268.437 63.0394 268.21L64.011 268.483C63.9087 268.812 63.7369 269.102 63.4954 269.352C63.2539 269.599 62.9556 269.793 62.6005 269.932C62.2454 270.068 61.8462 270.136 61.4031 270.136ZM66.6488 268.517L69.8022 263.455H70.9613V270H69.9556V264.938L66.8192 270H65.6431V263.455H66.6488V268.517ZM69.1374 261.273H70.0749C70.0749 261.733 69.9158 262.109 69.5977 262.402C69.2795 262.695 68.8477 262.841 68.3022 262.841C67.7653 262.841 67.3377 262.695 67.0195 262.402C66.7042 262.109 66.5465 261.733 66.5465 261.273H67.484C67.484 261.494 67.5451 261.689 67.6673 261.857C67.7923 262.024 68.0039 262.108 68.3022 262.108C68.6005 262.108 68.8136 262.024 68.9414 261.857C69.0721 261.689 69.1374 261.494 69.1374 261.273ZM72.2237 270V269.062H72.4624C72.6584 269.062 72.8217 269.024 72.9524 268.947C73.0831 268.868 73.1882 268.73 73.2678 268.534C73.3501 268.335 73.4126 268.06 73.4553 267.707C73.5007 267.352 73.5334 266.901 73.5533 266.352L73.6726 263.455H78.0362V270H77.0305V264.392H74.6271L74.5249 266.727C74.5021 267.264 74.4538 267.737 74.38 268.146C74.3089 268.553 74.1996 268.893 74.0518 269.169C73.907 269.445 73.7138 269.652 73.4723 269.791C73.2308 269.93 72.9283 270 72.5646 270H72.2237ZM80.8871 268.517L84.0405 263.455H85.1996V270H84.1939V264.938L81.0575 270H79.8814V263.455H80.8871V268.517ZM89.7006 270.136C89.087 270.136 88.5586 269.991 88.1154 269.702C87.6722 269.412 87.3313 269.013 87.0927 268.504C86.854 267.996 86.7347 267.415 86.7347 266.761C86.7347 266.097 86.8569 265.51 87.1012 265.001C87.3484 264.49 87.6921 264.091 88.1325 263.804C88.5756 263.514 89.0927 263.369 89.6836 263.369C90.1438 263.369 90.5586 263.455 90.9279 263.625C91.2972 263.795 91.5998 264.034 91.8356 264.341C92.0714 264.648 92.2177 265.006 92.2745 265.415H91.2688C91.1921 265.116 91.0217 264.852 90.7575 264.622C90.4961 264.389 90.1438 264.273 89.7006 264.273C89.3086 264.273 88.9648 264.375 88.6694 264.58C88.3768 264.781 88.1481 265.067 87.9833 265.436C87.8214 265.803 87.7404 266.233 87.7404 266.727C87.7404 267.233 87.82 267.673 87.979 268.048C88.141 268.423 88.3683 268.714 88.6609 268.922C88.9563 269.129 89.3029 269.233 89.7006 269.233C89.962 269.233 90.1992 269.188 90.4123 269.097C90.6254 269.006 90.8058 268.875 90.9535 268.705C91.1012 268.534 91.2063 268.33 91.2688 268.091H92.2745C92.2177 268.477 92.0771 268.825 91.8526 269.135C91.631 269.442 91.337 269.686 90.9705 269.868C90.6069 270.047 90.1836 270.136 89.7006 270.136ZM93.229 264.392V263.455H98.5472V264.392H96.3995V270H95.3938V264.392H93.229ZM100.884 265.824H102.759C103.526 265.824 104.112 266.018 104.518 266.408C104.925 266.797 105.128 267.29 105.128 267.886C105.128 268.278 105.037 268.635 104.855 268.956C104.673 269.274 104.406 269.528 104.054 269.719C103.702 269.906 103.27 270 102.759 270H100.014V263.455H101.02V269.062H102.759C103.156 269.062 103.483 268.957 103.739 268.747C103.994 268.537 104.122 268.267 104.122 267.938C104.122 267.591 103.994 267.308 103.739 267.089C103.483 266.871 103.156 266.761 102.759 266.761H100.884V265.824ZM106.168 270V263.455H107.173V270H106.168Z" fill="#002E50"/>
<path opacity="0.8" d="M50.4205 294.636C50.4205 295.557 50.2543 296.352 49.9219 297.023C49.5895 297.693 49.1335 298.21 48.554 298.574C47.9744 298.938 47.3125 299.119 46.5682 299.119C45.8239 299.119 45.1619 298.938 44.5824 298.574C44.0028 298.21 43.5469 297.693 43.2145 297.023C42.8821 296.352 42.7159 295.557 42.7159 294.636C42.7159 293.716 42.8821 292.92 43.2145 292.25C43.5469 291.58 44.0028 291.062 44.5824 290.699C45.1619 290.335 45.8239 290.153 46.5682 290.153C47.3125 290.153 47.9744 290.335 48.554 290.699C49.1335 291.062 49.5895 291.58 49.9219 292.25C50.2543 292.92 50.4205 293.716 50.4205 294.636ZM49.3977 294.636C49.3977 293.881 49.2713 293.243 49.0185 292.723C48.7685 292.203 48.429 291.81 48 291.543C47.5739 291.276 47.0966 291.142 46.5682 291.142C46.0398 291.142 45.5611 291.276 45.1321 291.543C44.706 291.81 44.3665 292.203 44.1136 292.723C43.8636 293.243 43.7386 293.881 43.7386 294.636C43.7386 295.392 43.8636 296.03 44.1136 296.55C44.3665 297.07 44.706 297.463 45.1321 297.73C45.5611 297.997 46.0398 298.131 46.5682 298.131C47.0966 298.131 47.5739 297.997 48 297.73C48.429 297.463 48.7685 297.07 49.0185 296.55C49.2713 296.03 49.3977 295.392 49.3977 294.636ZM51.6861 293.392V292.455H57.0043V293.392H54.8565V299H53.8509V293.392H51.6861ZM63.1768 292.455V299H62.1712V292.455H63.1768ZM62.7848 295.574V296.511C62.5575 296.597 62.3317 296.672 62.1072 296.737C61.8828 296.8 61.647 296.849 61.3999 296.886C61.1527 296.92 60.8814 296.938 60.5859 296.938C59.8445 296.938 59.2493 296.737 58.8004 296.337C58.3544 295.936 58.1314 295.335 58.1314 294.534V292.438H59.1371V294.534C59.1371 294.869 59.201 295.145 59.3288 295.361C59.4567 295.577 59.63 295.737 59.8487 295.842C60.0675 295.947 60.3132 296 60.5859 296C61.0121 296 61.397 295.962 61.7408 295.885C62.0874 295.805 62.4354 295.702 62.7848 295.574ZM67.7663 299.136C67.1357 299.136 66.5916 298.997 66.1342 298.719C65.6797 298.438 65.3288 298.045 65.0817 297.543C64.8374 297.037 64.7152 296.449 64.7152 295.778C64.7152 295.108 64.8374 294.517 65.0817 294.006C65.3288 293.491 65.6726 293.091 66.1129 292.804C66.5561 292.514 67.0732 292.369 67.6641 292.369C68.005 292.369 68.3416 292.426 68.674 292.54C69.0064 292.653 69.3089 292.838 69.5817 293.094C69.8544 293.347 70.0717 293.682 70.2337 294.099C70.3956 294.517 70.4766 295.031 70.4766 295.642V296.068H65.4311V295.199H69.4538C69.4538 294.83 69.38 294.5 69.2322 294.21C69.0874 293.92 68.88 293.692 68.6101 293.524C68.343 293.357 68.0277 293.273 67.6641 293.273C67.2635 293.273 66.9169 293.372 66.6243 293.571C66.3345 293.767 66.1115 294.023 65.9553 294.338C65.799 294.653 65.7209 294.991 65.7209 295.352V295.932C65.7209 296.426 65.8061 296.845 65.9766 297.189C66.1499 297.53 66.3899 297.79 66.6967 297.969C67.0036 298.145 67.3601 298.233 67.7663 298.233C68.0305 298.233 68.2692 298.196 68.4822 298.122C68.6982 298.045 68.8842 297.932 69.0405 297.781C69.1967 297.628 69.3175 297.437 69.4027 297.21L70.3743 297.483C70.272 297.812 70.1001 298.102 69.8587 298.352C69.6172 298.599 69.3189 298.793 68.9638 298.932C68.6087 299.068 68.2095 299.136 67.7663 299.136ZM71.397 293.392V292.455H76.7152V293.392H74.5675V299H73.5618V293.392H71.397Z" fill="#002E50"/>
<path opacity="0.8" d="M62.9775 104.273H64.0343V110.051C64.0343 110.648 63.8936 111.18 63.6124 111.649C63.334 112.115 62.9405 112.483 62.432 112.753C61.9235 113.02 61.3269 113.153 60.6422 113.153C59.9576 113.153 59.361 113.02 58.8525 112.753C58.3439 112.483 57.949 112.115 57.6678 111.649C57.3894 111.18 57.2502 110.648 57.2502 110.051V104.273H58.307V109.966C58.307 110.392 58.4007 110.771 58.5882 111.104C58.7757 111.433 59.0428 111.693 59.3894 111.884C59.7388 112.071 60.1564 112.165 60.6422 112.165C61.128 112.165 61.5456 112.071 61.8951 111.884C62.2445 111.693 62.5115 111.433 62.6962 111.104C62.8837 110.771 62.9775 110.392 62.9775 109.966V104.273ZM70.6447 107.92L69.7413 108.176C69.6845 108.026 69.6007 107.879 69.4899 107.737C69.3819 107.592 69.2342 107.473 69.0467 107.379C68.8592 107.286 68.6191 107.239 68.3265 107.239C67.926 107.239 67.5922 107.331 67.3251 107.516C67.0609 107.697 66.9288 107.929 66.9288 108.21C66.9288 108.46 67.0197 108.658 67.2015 108.803C67.3833 108.947 67.6674 109.068 68.0538 109.165L69.0254 109.403C69.6106 109.545 70.0467 109.763 70.3336 110.055C70.6206 110.345 70.764 110.719 70.764 111.176C70.764 111.551 70.6561 111.886 70.4402 112.182C70.2271 112.477 69.9288 112.71 69.5453 112.881C69.1618 113.051 68.7157 113.136 68.2072 113.136C67.5396 113.136 66.987 112.991 66.5495 112.702C66.112 112.412 65.835 111.989 65.7186 111.432L66.6731 111.193C66.764 111.545 66.9359 111.81 67.1887 111.986C67.4444 112.162 67.7782 112.25 68.1902 112.25C68.6589 112.25 69.0311 112.151 69.3066 111.952C69.585 111.75 69.7243 111.509 69.7243 111.227C69.7243 111 69.6447 110.81 69.4856 110.656C69.3265 110.5 69.0822 110.384 68.7527 110.307L67.6618 110.051C67.0623 109.909 66.622 109.689 66.3407 109.391C66.0623 109.089 65.9231 108.713 65.9231 108.261C65.9231 107.892 66.0268 107.565 66.2342 107.281C66.4444 106.997 66.7299 106.774 67.0907 106.612C67.4544 106.45 67.8663 106.369 68.3265 106.369C68.9743 106.369 69.4828 106.511 69.8521 106.795C70.2243 107.08 70.4885 107.455 70.6447 107.92ZM75.0222 113.136C74.3915 113.136 73.8475 112.997 73.3901 112.719C72.9355 112.438 72.5847 112.045 72.3375 111.543C72.0932 111.037 71.9711 110.449 71.9711 109.778C71.9711 109.108 72.0932 108.517 72.3375 108.006C72.5847 107.491 72.9284 107.091 73.3688 106.804C73.812 106.514 74.329 106.369 74.9199 106.369C75.2608 106.369 75.5975 106.426 75.9299 106.54C76.2623 106.653 76.5648 106.838 76.8375 107.094C77.1103 107.347 77.3276 107.682 77.4895 108.099C77.6515 108.517 77.7324 109.031 77.7324 109.642V110.068H72.687V109.199H76.7097C76.7097 108.83 76.6358 108.5 76.4881 108.21C76.3432 107.92 76.1358 107.692 75.8659 107.524C75.5989 107.357 75.2836 107.273 74.9199 107.273C74.5194 107.273 74.1728 107.372 73.8801 107.571C73.5904 107.767 73.3674 108.023 73.2111 108.338C73.0549 108.653 72.9767 108.991 72.9767 109.352V109.932C72.9767 110.426 73.062 110.845 73.2324 111.189C73.4057 111.53 73.6458 111.79 73.9526 111.969C74.2594 112.145 74.6159 112.233 75.0222 112.233C75.2864 112.233 75.525 112.196 75.7381 112.122C75.954 112.045 76.1401 111.932 76.2963 111.781C76.4526 111.628 76.5733 111.437 76.6586 111.21L77.6301 111.483C77.5279 111.812 77.356 112.102 77.1145 112.352C76.873 112.599 76.5748 112.793 76.2196 112.932C75.8645 113.068 75.4654 113.136 75.0222 113.136ZM79.2623 113V106.455H80.2338V107.443H80.302C80.4213 107.119 80.6373 106.857 80.9498 106.655C81.2623 106.453 81.6145 106.352 82.0066 106.352C82.0804 106.352 82.1728 106.354 82.2836 106.357C82.3944 106.359 82.4782 106.364 82.535 106.369V107.392C82.5009 107.384 82.4228 107.371 82.3006 107.354C82.1813 107.334 82.0549 107.324 81.9213 107.324C81.6032 107.324 81.3191 107.391 81.0691 107.524C80.8219 107.655 80.6259 107.837 80.481 108.07C80.339 108.3 80.2679 108.562 80.2679 108.858V113H79.2623Z" fill="#002E50"/>
<path opacity="0.8" d="M167.101 27.4545C167.05 27.0227 166.843 26.6875 166.479 26.4489C166.115 26.2102 165.669 26.0909 165.141 26.0909C164.754 26.0909 164.416 26.1534 164.127 26.2784C163.84 26.4034 163.615 26.5753 163.453 26.794C163.294 27.0128 163.215 27.2614 163.215 27.5398C163.215 27.7727 163.27 27.973 163.381 28.1406C163.494 28.3054 163.639 28.4432 163.816 28.554C163.992 28.6619 164.176 28.7514 164.369 28.8224C164.563 28.8906 164.74 28.946 164.902 28.9886L165.789 29.2273C166.016 29.2869 166.269 29.3693 166.547 29.4744C166.828 29.5795 167.097 29.723 167.352 29.9048C167.611 30.0838 167.824 30.3139 167.992 30.5952C168.159 30.8764 168.243 31.2216 168.243 31.6307C168.243 32.1023 168.119 32.5284 167.872 32.9091C167.628 33.2898 167.27 33.5923 166.798 33.8168C166.33 34.0412 165.76 34.1534 165.09 34.1534C164.465 34.1534 163.923 34.0526 163.466 33.8509C163.012 33.6491 162.654 33.3679 162.392 33.0071C162.134 32.6463 161.987 32.2273 161.953 31.75H163.044C163.073 32.0795 163.183 32.3523 163.377 32.5682C163.573 32.7812 163.82 32.9403 164.118 33.0455C164.419 33.1477 164.743 33.1989 165.09 33.1989C165.493 33.1989 165.855 33.1335 166.176 33.0028C166.497 32.8693 166.752 32.6847 166.939 32.4489C167.127 32.2102 167.22 31.9318 167.22 31.6136C167.22 31.3239 167.139 31.0881 166.977 30.9062C166.816 30.7244 166.602 30.5767 166.338 30.4631C166.074 30.3494 165.789 30.25 165.482 30.1648L164.408 29.858C163.726 29.6619 163.186 29.3821 162.789 29.0185C162.391 28.6548 162.192 28.179 162.192 27.5909C162.192 27.1023 162.324 26.6761 162.588 26.3125C162.855 25.946 163.213 25.6619 163.662 25.4602C164.114 25.2557 164.618 25.1534 165.175 25.1534C165.737 25.1534 166.237 25.2543 166.675 25.456C167.112 25.6548 167.459 25.9276 167.715 26.2741C167.973 26.6207 168.11 27.0142 168.124 27.4545H167.101ZM172.589 34.1364C171.958 34.1364 171.414 33.9972 170.956 33.7188C170.502 33.4375 170.151 33.0455 169.904 32.5426C169.66 32.0369 169.537 31.4489 169.537 30.7784C169.537 30.108 169.66 29.517 169.904 29.0057C170.151 28.4915 170.495 28.0909 170.935 27.804C171.378 27.5142 171.895 27.3693 172.486 27.3693C172.827 27.3693 173.164 27.4261 173.496 27.5398C173.829 27.6534 174.131 27.8381 174.404 28.0938C174.677 28.3466 174.894 28.6818 175.056 29.0994C175.218 29.517 175.299 30.0312 175.299 30.642V31.0682H170.253V30.1989H174.276C174.276 29.8295 174.202 29.5 174.055 29.2102C173.91 28.9205 173.702 28.6918 173.432 28.5241C173.165 28.3565 172.85 28.2727 172.486 28.2727C172.086 28.2727 171.739 28.3722 171.447 28.571C171.157 28.767 170.934 29.0227 170.778 29.3381C170.621 29.6534 170.543 29.9915 170.543 30.3523V30.9318C170.543 31.4261 170.628 31.8452 170.799 32.1889C170.972 32.5298 171.212 32.7898 171.519 32.9688C171.826 33.1449 172.182 33.233 172.589 33.233C172.853 33.233 173.091 33.196 173.305 33.1222C173.52 33.0455 173.706 32.9318 173.863 32.7812C174.019 32.6278 174.14 32.4375 174.225 32.2102L175.197 32.483C175.094 32.8125 174.922 33.1023 174.681 33.3523C174.439 33.5994 174.141 33.7926 173.786 33.9318C173.431 34.0682 173.032 34.1364 172.589 34.1364ZM178.755 34.1534C178.34 34.1534 177.964 34.0753 177.626 33.919C177.287 33.7599 177.019 33.5312 176.82 33.233C176.621 32.9318 176.522 32.5682 176.522 32.142C176.522 31.767 176.596 31.4631 176.743 31.2301C176.891 30.9943 177.089 30.8097 177.336 30.6761C177.583 30.5426 177.856 30.4432 178.154 30.3778C178.455 30.3097 178.758 30.2557 179.062 30.2159C179.459 30.1648 179.782 30.1264 180.029 30.1009C180.279 30.0724 180.461 30.0256 180.574 29.9602C180.691 29.8949 180.749 29.7812 180.749 29.6193V29.5852C180.749 29.1648 180.634 28.8381 180.404 28.6051C180.177 28.3722 179.831 28.2557 179.368 28.2557C178.888 28.2557 178.512 28.3608 178.239 28.571C177.966 28.7812 177.775 29.0057 177.664 29.2443L176.709 28.9034C176.88 28.5057 177.107 28.196 177.391 27.9744C177.678 27.75 177.991 27.5937 178.329 27.5057C178.67 27.4148 179.005 27.3693 179.334 27.3693C179.545 27.3693 179.786 27.3949 180.059 27.446C180.334 27.4943 180.6 27.5952 180.856 27.7486C181.114 27.902 181.329 28.1335 181.499 28.4432C181.67 28.7528 181.755 29.1676 181.755 29.6875V34H180.749V33.1136H180.698C180.63 33.2557 180.516 33.4077 180.357 33.5696C180.198 33.7315 179.986 33.8693 179.722 33.983C179.458 34.0966 179.135 34.1534 178.755 34.1534ZM178.908 33.25C179.306 33.25 179.641 33.1719 179.914 33.0156C180.189 32.8594 180.397 32.6577 180.536 32.4105C180.678 32.1634 180.749 31.9034 180.749 31.6307V30.7102C180.706 30.7614 180.613 30.8082 180.468 30.8509C180.326 30.8906 180.161 30.9261 179.974 30.9574C179.789 30.9858 179.608 31.0114 179.432 31.0341C179.259 31.054 179.118 31.071 179.01 31.0852C178.749 31.1193 178.505 31.1747 178.278 31.2514C178.053 31.3253 177.871 31.4375 177.732 31.5881C177.596 31.7358 177.528 31.9375 177.528 32.1932C177.528 32.5426 177.657 32.8068 177.915 32.9858C178.177 33.1619 178.508 33.25 178.908 33.25ZM183.59 34V27.4545H184.562V28.4432H184.63C184.749 28.1193 184.965 27.8565 185.278 27.6548C185.59 27.4531 185.943 27.3523 186.335 27.3523C186.409 27.3523 186.501 27.3537 186.612 27.3565C186.722 27.3594 186.806 27.3636 186.863 27.3693V28.392C186.829 28.3835 186.751 28.3707 186.629 28.3537C186.509 28.3338 186.383 28.3239 186.249 28.3239C185.931 28.3239 185.647 28.3906 185.397 28.5241C185.15 28.6548 184.954 28.8366 184.809 29.0696C184.667 29.2997 184.596 29.5625 184.596 29.858V34H183.59ZM190.515 34.1364C189.901 34.1364 189.373 33.9915 188.93 33.7017C188.487 33.4119 188.146 33.0128 187.907 32.5043C187.669 31.9957 187.549 31.4148 187.549 30.7614C187.549 30.0966 187.671 29.5099 187.916 29.0014C188.163 28.4901 188.507 28.0909 188.947 27.804C189.39 27.5142 189.907 27.3693 190.498 27.3693C190.958 27.3693 191.373 27.4545 191.742 27.625C192.112 27.7955 192.414 28.0341 192.65 28.3409C192.886 28.6477 193.032 29.0057 193.089 29.4148H192.083C192.007 29.1165 191.836 28.8523 191.572 28.6222C191.311 28.3892 190.958 28.2727 190.515 28.2727C190.123 28.2727 189.779 28.375 189.484 28.5795C189.191 28.7812 188.963 29.0668 188.798 29.4361C188.636 29.8026 188.555 30.233 188.555 30.7273C188.555 31.233 188.634 31.6733 188.794 32.0483C188.955 32.4233 189.183 32.7145 189.475 32.9219C189.771 33.1293 190.117 33.233 190.515 33.233C190.776 33.233 191.014 33.1875 191.227 33.0966C191.44 33.0057 191.62 32.875 191.768 32.7045C191.916 32.5341 192.021 32.3295 192.083 32.0909H193.089C193.032 32.4773 192.892 32.8253 192.667 33.1349C192.445 33.4418 192.151 33.6861 191.785 33.8679C191.421 34.0469 190.998 34.1364 190.515 34.1364ZM195.565 30.0625V34H194.559V25.2727H195.565V28.4773H195.65C195.803 28.1392 196.034 27.8707 196.34 27.6719C196.65 27.4702 197.062 27.3693 197.576 27.3693C198.022 27.3693 198.413 27.4588 198.748 27.6378C199.083 27.8139 199.343 28.0852 199.528 28.4517C199.715 28.8153 199.809 29.2784 199.809 29.8409V34H198.803V29.9091C198.803 29.3892 198.669 28.9872 198.399 28.7031C198.132 28.4162 197.761 28.2727 197.286 28.2727C196.957 28.2727 196.661 28.3423 196.4 28.4815C196.142 28.6207 195.937 28.8239 195.786 29.0909C195.639 29.358 195.565 29.6818 195.565 30.0625Z" fill="#002E50"/>
<path opacity="0.8" d="M167.223 63L164.723 59.6619H163.828V63H162.947V55.7273H163.828V58.8807H164.211L167.123 55.7273H168.174L165.234 58.9233L168.274 63H167.223ZM170.136 61.7642L172.764 57.5455H173.73V63H172.892V58.7812L170.278 63H169.298V57.5455H170.136V61.7642ZM177.552 63.1136C177.026 63.1136 176.573 62.9976 176.192 62.7656C175.813 62.5312 175.521 62.2045 175.315 61.7855C175.111 61.3641 175.009 60.8741 175.009 60.3153C175.009 59.7566 175.111 59.2642 175.315 58.8381C175.521 58.4096 175.807 58.0758 176.174 57.8366C176.544 57.5952 176.974 57.4744 177.467 57.4744C177.751 57.4744 178.031 57.5218 178.308 57.6165C178.585 57.7112 178.838 57.8651 179.065 58.0781C179.292 58.2888 179.473 58.5682 179.608 58.9162C179.743 59.2642 179.811 59.6927 179.811 60.2017V60.5568H175.606V59.8324H178.958C178.958 59.5246 178.897 59.25 178.774 59.0085C178.653 58.767 178.48 58.5765 178.255 58.4368C178.033 58.2971 177.77 58.2273 177.467 58.2273C177.133 58.2273 176.844 58.3101 176.6 58.4759C176.359 58.6392 176.173 58.8523 176.043 59.1151C175.913 59.3778 175.847 59.6596 175.847 59.9602V60.4432C175.847 60.8551 175.919 61.2043 176.061 61.4908C176.205 61.7749 176.405 61.9915 176.661 62.1406C176.916 62.2874 177.213 62.3608 177.552 62.3608C177.772 62.3608 177.971 62.33 178.149 62.2685C178.329 62.2045 178.484 62.1098 178.614 61.9844C178.744 61.8565 178.845 61.6979 178.916 61.5085L179.725 61.7358C179.64 62.0104 179.497 62.2519 179.296 62.4602C179.094 62.6662 178.846 62.8272 178.55 62.9432C178.254 63.0568 177.921 63.1136 177.552 63.1136ZM181.085 63V57.5455H183.316C183.903 57.5455 184.369 57.678 184.715 57.9432C185.06 58.2083 185.233 58.5587 185.233 58.9943C185.233 59.3258 185.135 59.5826 184.938 59.7649C184.742 59.9448 184.49 60.0668 184.182 60.1307C184.383 60.1591 184.579 60.2301 184.768 60.3438C184.96 60.4574 185.118 60.6136 185.244 60.8125C185.369 61.009 185.432 61.2505 185.432 61.5369C185.432 61.8163 185.361 62.0661 185.219 62.2862C185.077 62.5064 184.873 62.6804 184.608 62.8082C184.343 62.9361 184.026 63 183.656 63H181.085ZM181.881 62.233H183.656C183.945 62.233 184.171 62.1643 184.335 62.027C184.498 61.8897 184.58 61.7027 184.58 61.4659C184.58 61.1842 184.498 60.9628 184.335 60.8018C184.171 60.6385 183.945 60.5568 183.656 60.5568H181.881V62.233ZM181.881 59.8324H183.316C183.54 59.8324 183.733 59.8016 183.894 59.7401C184.055 59.6761 184.178 59.5862 184.264 59.4702C184.351 59.3518 184.395 59.2121 184.395 59.0511C184.395 58.8215 184.299 58.6416 184.107 58.5114C183.916 58.3788 183.652 58.3125 183.316 58.3125H181.881V59.8324Z" fill="#002E50"/>
<path opacity="0.8" d="M218.256 63V62.1903H218.469C218.772 62.1903 219.007 62.0933 219.175 61.8991C219.344 61.705 219.464 61.3913 219.538 60.9581C219.613 60.5249 219.664 59.9508 219.69 59.2358L219.818 55.7273H224.25V63H223.369V56.5085H220.656L220.543 59.4062C220.514 60.1686 220.444 60.8172 220.333 61.3523C220.222 61.8873 220.027 62.2957 219.747 62.5774C219.468 62.8591 219.061 63 218.526 63H218.256ZM228.112 63.1136C227.619 63.1136 227.187 62.9964 226.816 62.7621C226.446 62.5277 226.158 62.1998 225.949 61.7784C225.743 61.357 225.64 60.8646 225.64 60.3011C225.64 59.733 225.743 59.237 225.949 58.8132C226.158 58.3894 226.446 58.0604 226.816 57.826C227.187 57.5916 227.619 57.4744 228.112 57.4744C228.604 57.4744 229.035 57.5916 229.404 57.826C229.776 58.0604 230.065 58.3894 230.271 58.8132C230.479 59.237 230.583 59.733 230.583 60.3011C230.583 60.8646 230.479 61.357 230.271 61.7784C230.065 62.1998 229.776 62.5277 229.404 62.7621C229.035 62.9964 228.604 63.1136 228.112 63.1136ZM228.112 62.3608C228.486 62.3608 228.794 62.2649 229.035 62.0732C229.277 61.8814 229.455 61.6293 229.571 61.3168C229.687 61.0043 229.745 60.6657 229.745 60.3011C229.745 59.9366 229.687 59.5968 229.571 59.282C229.455 58.9671 229.277 58.7126 229.035 58.5185C228.794 58.3243 228.486 58.2273 228.112 58.2273C227.738 58.2273 227.43 58.3243 227.189 58.5185C226.947 58.7126 226.768 58.9671 226.652 59.282C226.536 59.5968 226.478 59.9366 226.478 60.3011C226.478 60.6657 226.536 61.0043 226.652 61.3168C226.768 61.6293 226.947 61.8814 227.189 62.0732C227.43 62.2649 227.738 62.3608 228.112 62.3608ZM235.513 59.8892V60.6705H232.502V59.8892H235.513ZM232.701 57.5455V63H231.863V57.5455H232.701ZM236.153 57.5455V63H235.314V57.5455H236.153ZM237.101 64.5625V62.2188H237.555C237.666 62.1027 237.762 61.9773 237.843 61.8423C237.923 61.7074 237.993 61.5476 238.052 61.3629C238.114 61.1759 238.166 60.9486 238.209 60.6811C238.251 60.4112 238.289 60.0857 238.322 59.7045L238.507 57.5455H241.973V62.2188H242.811V64.5625H241.973V63H237.939V64.5625H237.101ZM238.507 62.2188H241.135V58.3267H239.288L239.146 59.7045C239.087 60.2751 239.014 60.7734 238.926 61.1996C238.838 61.6257 238.699 61.9654 238.507 62.2188ZM246.139 63.1136C245.647 63.1136 245.215 62.9964 244.843 62.7621C244.474 62.5277 244.185 62.1998 243.977 61.7784C243.771 61.357 243.668 60.8646 243.668 60.3011C243.668 59.733 243.771 59.237 243.977 58.8132C244.185 58.3894 244.474 58.0604 244.843 57.826C245.215 57.5916 245.647 57.4744 246.139 57.4744C246.632 57.4744 247.063 57.5916 247.432 57.826C247.804 58.0604 248.092 58.3894 248.298 58.8132C248.507 59.237 248.611 59.733 248.611 60.3011C248.611 60.8646 248.507 61.357 248.298 61.7784C248.092 62.1998 247.804 62.5277 247.432 62.7621C247.063 62.9964 246.632 63.1136 246.139 63.1136ZM246.139 62.3608C246.513 62.3608 246.821 62.2649 247.062 62.0732C247.304 61.8814 247.483 61.6293 247.599 61.3168C247.715 61.0043 247.773 60.6657 247.773 60.3011C247.773 59.9366 247.715 59.5968 247.599 59.282C247.483 58.9671 247.304 58.7126 247.062 58.5185C246.821 58.3243 246.513 58.2273 246.139 58.2273C245.765 58.2273 245.457 58.3243 245.216 58.5185C244.974 58.7126 244.796 58.9671 244.68 59.282C244.564 59.5968 244.506 59.9366 244.506 60.3011C244.506 60.6657 244.564 61.0043 244.68 61.3168C244.796 61.6293 244.974 61.8814 245.216 62.0732C245.457 62.2649 245.765 62.3608 246.139 62.3608ZM253.541 59.8892V60.6705H250.529V59.8892H253.541ZM250.728 57.5455V63H249.89V57.5455H250.728ZM254.18 57.5455V63H253.342V57.5455H254.18Z" fill="#002E50"/>
<path opacity="0.8" d="M287.881 63V55.7273H288.761V58.9659H292.639V55.7273H293.52V63H292.639V59.7472H288.761V63H287.881ZM295.894 59.5199H297.456C298.096 59.5199 298.584 59.6821 298.923 60.0064C299.261 60.3307 299.431 60.7415 299.431 61.2386C299.431 61.5653 299.355 61.8625 299.203 62.13C299.052 62.3951 298.829 62.607 298.536 62.7656C298.242 62.9219 297.882 63 297.456 63H295.169V57.5455H296.007V62.2188H297.456C297.788 62.2188 298.06 62.1312 298.273 61.956C298.486 61.7808 298.593 61.5559 298.593 61.2812C298.593 60.9924 298.486 60.7569 298.273 60.5746C298.06 60.3923 297.788 60.3011 297.456 60.3011H295.894V59.5199ZM303.32 59.9318V60.7131H300.437V59.9318H303.32ZM301.147 57.5455V63H300.309V57.5455H301.147ZM304.996 63.1136C304.504 63.1136 304.072 62.9964 303.7 62.7621C303.331 62.5277 303.042 62.1998 302.834 61.7784C302.628 61.357 302.525 60.8646 302.525 60.3011C302.525 59.733 302.628 59.237 302.834 58.8132C303.042 58.3894 303.331 58.0604 303.7 57.826C304.072 57.5916 304.504 57.4744 304.996 57.4744C305.489 57.4744 305.92 57.5916 306.289 57.826C306.661 58.0604 306.949 58.3894 307.155 58.8132C307.364 59.237 307.468 59.733 307.468 60.3011C307.468 60.8646 307.364 61.357 307.155 61.7784C306.949 62.1998 306.661 62.5277 306.289 62.7621C305.92 62.9964 305.489 63.1136 304.996 63.1136ZM304.996 62.3608C305.37 62.3608 305.678 62.2649 305.92 62.0732C306.161 61.8814 306.34 61.6293 306.456 61.3168C306.572 61.0043 306.63 60.6657 306.63 60.3011C306.63 59.9366 306.572 59.5968 306.456 59.282C306.34 58.9671 306.161 58.7126 305.92 58.5185C305.678 58.3243 305.37 58.2273 304.996 58.2273C304.622 58.2273 304.314 58.3243 304.073 58.5185C303.831 58.7126 303.653 58.9671 303.537 59.282C303.421 59.5968 303.363 59.9366 303.363 60.3011C303.363 60.6657 303.421 61.0043 303.537 61.3168C303.653 61.6293 303.831 61.8814 304.073 62.0732C304.314 62.2649 304.622 62.3608 304.996 62.3608ZM311.956 59.4915V60.2727H308.775V59.4915H311.956ZM313.545 55.7273H314.411V61.4517H314.482L318.46 55.7273H319.312V63H318.431V57.2898H318.36L314.397 63H313.545V55.7273ZM317.124 53.9091H317.906C317.906 54.2926 317.773 54.6063 317.508 54.8501C317.243 55.094 316.883 55.2159 316.428 55.2159C315.981 55.2159 315.625 55.094 315.359 54.8501C315.097 54.6063 314.965 54.2926 314.965 53.9091H315.746C315.746 54.0937 315.797 54.2559 315.899 54.3956C316.003 54.5353 316.18 54.6051 316.428 54.6051C316.677 54.6051 316.854 54.5353 316.961 54.3956C317.07 54.2559 317.124 54.0937 317.124 53.9091ZM323.176 63.1136C322.684 63.1136 322.252 62.9964 321.88 62.7621C321.511 62.5277 321.222 62.1998 321.014 61.7784C320.808 61.357 320.705 60.8646 320.705 60.3011C320.705 59.733 320.808 59.237 321.014 58.8132C321.222 58.3894 321.511 58.0604 321.88 57.826C322.252 57.5916 322.684 57.4744 323.176 57.4744C323.669 57.4744 324.1 57.5916 324.469 57.826C324.841 58.0604 325.129 58.3894 325.335 58.8132C325.544 59.237 325.648 59.733 325.648 60.3011C325.648 60.8646 325.544 61.357 325.335 61.7784C325.129 62.1998 324.841 62.5277 324.469 62.7621C324.1 62.9964 323.669 63.1136 323.176 63.1136ZM323.176 62.3608C323.55 62.3608 323.858 62.2649 324.1 62.0732C324.341 61.8814 324.52 61.6293 324.636 61.3168C324.752 61.0043 324.81 60.6657 324.81 60.3011C324.81 59.9366 324.752 59.5968 324.636 59.282C324.52 58.9671 324.341 58.7126 324.1 58.5185C323.858 58.3243 323.55 58.2273 323.176 58.2273C322.802 58.2273 322.494 58.3243 322.253 58.5185C322.012 58.7126 321.833 58.9671 321.717 59.282C321.601 59.5968 321.543 59.9366 321.543 60.3011C321.543 60.6657 321.601 61.0043 321.717 61.3168C321.833 61.6293 322.012 61.8814 322.253 62.0732C322.494 62.2649 322.802 62.3608 323.176 62.3608ZM326.927 65.0455V57.5455H327.737V58.4119H327.836C327.898 58.3172 327.983 58.1965 328.092 58.0497C328.203 57.9006 328.362 57.768 328.568 57.652C328.776 57.5336 329.058 57.4744 329.413 57.4744C329.872 57.4744 330.277 57.5893 330.627 57.8189C330.978 58.0485 331.251 58.3741 331.448 58.7955C331.644 59.2169 331.743 59.714 331.743 60.2869C331.743 60.8646 331.644 61.3653 331.448 61.7891C331.251 62.2105 330.979 62.5372 330.631 62.7692C330.283 62.9988 329.882 63.1136 329.427 63.1136C329.077 63.1136 328.796 63.0556 328.586 62.9396C328.375 62.8213 328.213 62.6875 328.099 62.5384C327.985 62.3868 327.898 62.2614 327.836 62.1619H327.765V65.0455H326.927ZM327.751 60.2727C327.751 60.6847 327.811 61.0481 327.932 61.3629C328.053 61.6754 328.229 61.9205 328.461 62.098C328.693 62.2732 328.977 62.3608 329.314 62.3608C329.664 62.3608 329.956 62.2685 330.191 62.0838C330.427 61.8968 330.605 61.6458 330.723 61.331C330.844 61.0137 330.904 60.661 330.904 60.2727C330.904 59.8892 330.845 59.5436 330.727 59.2358C330.611 58.9257 330.435 58.6806 330.198 58.5007C329.963 58.3184 329.669 58.2273 329.314 58.2273C328.973 58.2273 328.686 58.3137 328.454 58.4865C328.222 58.657 328.047 58.8961 327.929 59.2038C327.81 59.5092 327.751 59.8655 327.751 60.2727ZM333.021 63V57.5455H333.859V59.9176H334.413L336.373 57.5455H337.453L335.251 60.1733L337.481 63H336.402L334.612 60.6989H333.859V63H333.021Z" fill="#002E50"/>
<path d="M505.733 27H504.852C504.8 26.7467 504.709 26.5241 504.579 26.3324C504.451 26.1406 504.295 25.9796 504.11 25.8494C503.928 25.7169 503.725 25.6174 503.503 25.5511C503.28 25.4848 503.048 25.4517 502.807 25.4517C502.366 25.4517 501.968 25.563 501.61 25.7855C501.255 26.008 500.972 26.3359 500.761 26.7692C500.553 27.2024 500.449 27.7339 500.449 28.3636C500.449 28.9934 500.553 29.5249 500.761 29.9581C500.972 30.3913 501.255 30.7192 501.61 30.9418C501.968 31.1643 502.366 31.2756 502.807 31.2756C503.048 31.2756 503.28 31.2424 503.503 31.1761C503.725 31.1098 503.928 31.0116 504.11 30.8814C504.295 30.7488 504.451 30.5866 504.579 30.3949C504.709 30.2008 504.8 29.9782 504.852 29.7273H505.733C505.667 30.099 505.546 30.4316 505.371 30.7251C505.196 31.0187 504.978 31.2685 504.717 31.4744C504.457 31.678 504.165 31.8331 503.84 31.9396C503.518 32.0462 503.174 32.0994 502.807 32.0994C502.187 32.0994 501.635 31.9479 501.152 31.6449C500.669 31.3419 500.289 30.911 500.012 30.3523C499.735 29.7936 499.597 29.1307 499.597 28.3636C499.597 27.5966 499.735 26.9337 500.012 26.375C500.289 25.8163 500.669 25.3854 501.152 25.0824C501.635 24.7794 502.187 24.6278 502.807 24.6278C503.174 24.6278 503.518 24.6811 503.84 24.7876C504.165 24.8942 504.457 25.0504 504.717 25.2564C504.978 25.46 505.196 25.7086 505.371 26.0021C505.546 26.2933 505.667 26.6259 505.733 27ZM509.258 32.1136C508.766 32.1136 508.334 31.9964 507.962 31.7621C507.593 31.5277 507.304 31.1998 507.096 30.7784C506.89 30.357 506.787 29.8646 506.787 29.3011C506.787 28.733 506.89 28.237 507.096 27.8132C507.304 27.3894 507.593 27.0604 507.962 26.826C508.334 26.5916 508.766 26.4744 509.258 26.4744C509.751 26.4744 510.182 26.5916 510.551 26.826C510.923 27.0604 511.211 27.3894 511.417 27.8132C511.626 28.237 511.73 28.733 511.73 29.3011C511.73 29.8646 511.626 30.357 511.417 30.7784C511.211 31.1998 510.923 31.5277 510.551 31.7621C510.182 31.9964 509.751 32.1136 509.258 32.1136ZM509.258 31.3608C509.632 31.3608 509.94 31.2649 510.182 31.0732C510.423 30.8814 510.602 30.6293 510.718 30.3168C510.834 30.0043 510.892 29.6657 510.892 29.3011C510.892 28.9366 510.834 28.5968 510.718 28.282C510.602 27.9671 510.423 27.7126 510.182 27.5185C509.94 27.3243 509.632 27.2273 509.258 27.2273C508.884 27.2273 508.577 27.3243 508.335 27.5185C508.094 27.7126 507.915 27.9671 507.799 28.282C507.683 28.5968 507.625 28.9366 507.625 29.3011C507.625 29.6657 507.683 30.0043 507.799 30.3168C507.915 30.6293 508.094 30.8814 508.335 31.0732C508.577 31.2649 508.884 31.3608 509.258 31.3608ZM512.668 30.608H513.563C513.582 30.8542 513.693 31.0412 513.897 31.169C514.103 31.2969 514.371 31.3608 514.7 31.3608C515.036 31.3608 515.323 31.2921 515.562 31.1548C515.802 31.0152 515.921 30.7902 515.921 30.4801C515.921 30.2978 515.876 30.1392 515.786 30.0043C515.696 29.867 515.57 29.7604 515.406 29.6847C515.243 29.6089 515.05 29.571 514.827 29.571H513.89V28.8182H514.827C515.161 28.8182 515.407 28.7424 515.566 28.5909C515.727 28.4394 515.808 28.25 515.808 28.0227C515.808 27.7789 515.721 27.5836 515.548 27.4368C515.375 27.2876 515.13 27.2131 514.813 27.2131C514.494 27.2131 514.227 27.2853 514.014 27.4297C513.801 27.5717 513.689 27.7552 513.677 27.9801H512.796C512.806 27.6866 512.896 27.4273 513.066 27.2024C513.237 26.9751 513.469 26.7976 513.762 26.6697C514.056 26.5395 514.392 26.4744 514.771 26.4744C515.154 26.4744 515.487 26.5419 515.768 26.6768C516.053 26.8094 516.272 26.9905 516.425 27.2202C516.582 27.4474 516.66 27.7055 516.66 27.9943C516.66 28.3021 516.573 28.5507 516.401 28.7401C516.228 28.9295 516.011 29.0644 515.751 29.1449V29.2017C515.957 29.2159 516.135 29.2822 516.287 29.4006C516.441 29.5166 516.56 29.6693 516.646 29.8587C516.731 30.0457 516.773 30.2528 516.773 30.4801C516.773 30.8116 516.685 31.1004 516.507 31.3466C516.33 31.5904 516.086 31.7798 515.776 31.9148C515.465 32.0473 515.112 32.1136 514.714 32.1136C514.328 32.1136 513.982 32.0509 513.677 31.9254C513.371 31.7976 513.129 31.6212 512.949 31.3963C512.771 31.169 512.678 30.9062 512.668 30.608ZM517.368 33.5625V31.2188H517.823C517.934 31.1027 518.03 30.9773 518.11 30.8423C518.191 30.7074 518.261 30.5476 518.32 30.3629C518.382 30.1759 518.434 29.9486 518.476 29.6811C518.519 29.4112 518.557 29.0857 518.59 28.7045L518.775 26.5455H522.24V31.2188H523.078V33.5625H522.24V32H518.206V33.5625H517.368ZM518.775 31.2188H521.402V27.3267H519.556L519.414 28.7045C519.355 29.2751 519.281 29.7734 519.194 30.1996C519.106 30.6257 518.966 30.9654 518.775 31.2188ZM525.796 32.1278C525.45 32.1278 525.137 32.0627 524.855 31.9325C524.573 31.8 524.349 31.6094 524.184 31.3608C524.018 31.1098 523.935 30.8068 523.935 30.4517C523.935 30.1392 523.997 29.8859 524.12 29.6918C524.243 29.4953 524.407 29.3414 524.613 29.2301C524.819 29.1188 525.047 29.036 525.295 28.9815C525.546 28.9247 525.798 28.8797 526.052 28.8466C526.383 28.804 526.652 28.772 526.858 28.7507C527.066 28.727 527.218 28.688 527.312 28.6335C527.409 28.5791 527.458 28.4844 527.458 28.3494V28.321C527.458 27.9706 527.362 27.6984 527.17 27.5043C526.981 27.3101 526.693 27.2131 526.307 27.2131C525.907 27.2131 525.594 27.3007 525.366 27.4759C525.139 27.651 524.979 27.8381 524.887 28.0369L524.091 27.7528C524.233 27.4214 524.423 27.1634 524.66 26.9787C524.899 26.7917 525.159 26.6615 525.441 26.5881C525.725 26.5123 526.004 26.4744 526.279 26.4744C526.454 26.4744 526.655 26.4957 526.883 26.5384C527.112 26.5786 527.334 26.6626 527.547 26.7905C527.762 26.9183 527.941 27.1113 528.083 27.3693C528.225 27.6274 528.296 27.973 528.296 28.4062V32H527.458V31.2614H527.415C527.358 31.3797 527.264 31.5064 527.131 31.6413C526.999 31.7763 526.822 31.8911 526.602 31.9858C526.382 32.0805 526.113 32.1278 525.796 32.1278ZM525.924 31.375C526.255 31.375 526.535 31.3099 526.762 31.1797C526.992 31.0495 527.164 30.8814 527.28 30.6754C527.399 30.4695 527.458 30.2528 527.458 30.0256V29.2585C527.422 29.3011 527.344 29.3402 527.224 29.3757C527.105 29.4089 526.968 29.4384 526.812 29.4645C526.658 29.4882 526.507 29.5095 526.361 29.5284C526.216 29.545 526.099 29.5592 526.009 29.571C525.791 29.5994 525.588 29.6456 525.398 29.7095C525.211 29.7711 525.06 29.8646 524.944 29.9901C524.83 30.1132 524.773 30.2812 524.773 30.4943C524.773 30.7855 524.881 31.0057 525.096 31.1548C525.314 31.3016 525.59 31.375 525.924 31.375ZM529.083 27.3267V26.5455H533.515V27.3267H531.725V32H530.887V27.3267H529.083ZM535.462 28.5199H537.025C537.664 28.5199 538.153 28.6821 538.491 29.0064C538.83 29.3307 538.999 29.7415 538.999 30.2386C538.999 30.5653 538.923 30.8625 538.772 31.13C538.62 31.3951 538.398 31.607 538.104 31.7656C537.811 31.9219 537.451 32 537.025 32H534.738V26.5455H535.576V31.2188H537.025C537.356 31.2188 537.628 31.1312 537.841 30.956C538.055 30.7808 538.161 30.5559 538.161 30.2812C538.161 29.9924 538.055 29.7569 537.841 29.5746C537.628 29.3923 537.356 29.3011 537.025 29.3011H535.462V28.5199Z" fill="white"/>
<g clip-path="url(#clip0_54919_1269)">
<path d="M64.015 24.4799H61.0187C60.9617 24.4796 60.906 24.4967 60.8591 24.529C60.8122 24.5612 60.7762 24.6071 60.7561 24.6604L58.4588 30.8959L56.2403 24.6604C56.2208 24.6065 56.185 24.5599 56.1381 24.527C56.0911 24.4941 56.0351 24.4765 55.9778 24.4766H52.906C52.8597 24.4759 52.8141 24.487 52.7733 24.5088C52.7325 24.5306 52.698 24.5624 52.6729 24.6013C52.647 24.6394 52.631 24.6834 52.6264 24.7292C52.6218 24.7751 52.6288 24.8214 52.6467 24.8639L57.0181 35.2804C57.0399 35.3311 57.0761 35.3743 57.1222 35.4046C57.1683 35.4349 57.2222 35.4511 57.2774 35.4511H59.4237C59.4776 35.4509 59.5302 35.435 59.5751 35.4052C59.62 35.3755 59.6552 35.3333 59.6764 35.2837L64.271 24.8671C64.2903 24.825 64.2987 24.7786 64.2953 24.7324C64.292 24.6861 64.277 24.6414 64.2518 24.6025C64.2266 24.5636 64.192 24.5316 64.1512 24.5096C64.1104 24.4876 64.0647 24.4762 64.0183 24.4766L64.015 24.4799Z" fill="#002E50"/>
<path d="M69.0888 24.4796H66.2926C66.2186 24.4796 66.1477 24.509 66.0954 24.5613C66.0431 24.6136 66.0137 24.6846 66.0137 24.7586V34.9323C66.0137 35.0681 66.0676 35.1983 66.1636 35.2943C66.2596 35.3903 66.3899 35.4443 66.5256 35.4443H68.859C68.9948 35.4443 69.125 35.3903 69.221 35.2943C69.3171 35.1983 69.371 35.0681 69.371 34.9323V24.7586C69.3701 24.6843 69.34 24.6133 69.2872 24.5611C69.2343 24.5089 69.1631 24.4796 69.0888 24.4796Z" fill="#002E50"/>
<path d="M86.0731 24.4796H83.277C83.1229 24.4796 82.998 24.6045 82.998 24.7586V35.1752C82.998 35.3292 83.1229 35.4541 83.277 35.4541H86.0731C86.2272 35.4541 86.3521 35.3292 86.3521 35.1752V24.7586C86.3521 24.6045 86.2272 24.4796 86.0731 24.4796Z" fill="#002E50"/>
<path d="M111.189 26.3336C110.933 25.6847 110.472 25.1372 109.876 24.7747C109.229 24.4157 108.496 24.2388 107.756 24.2628C107.598 24.2628 107.428 24.2628 107.274 24.2792C107.051 24.2937 106.83 24.3345 106.617 24.4006C105.925 24.6054 105.286 24.9606 104.747 25.4409L104.72 24.7485C104.717 24.6765 104.686 24.6085 104.634 24.5585C104.582 24.5084 104.513 24.4801 104.441 24.4794H101.763C101.689 24.4794 101.618 24.5088 101.566 24.5611C101.514 24.6134 101.484 24.6843 101.484 24.7583V35.1716C101.484 35.2456 101.514 35.3166 101.566 35.3689C101.618 35.4212 101.689 35.4506 101.763 35.4506H104.559C104.633 35.4506 104.704 35.4212 104.757 35.3689C104.809 35.3166 104.838 35.2456 104.838 35.1716V28.9131C104.835 28.6864 104.883 28.4619 104.98 28.2568C105.076 28.0513 105.209 27.8655 105.373 27.7087C105.541 27.5463 105.743 27.423 105.964 27.3477C106.22 27.2561 106.49 27.2116 106.762 27.2164H106.916C107.154 27.209 107.39 27.2633 107.602 27.374C107.825 27.5037 107.996 27.7083 108.084 27.9516C108.213 28.2954 108.273 28.6611 108.261 29.028V35.1716C108.261 35.2456 108.291 35.3166 108.343 35.3689C108.395 35.4212 108.466 35.4506 108.54 35.4506H111.336C111.41 35.4506 111.481 35.4212 111.534 35.3689C111.586 35.3166 111.615 35.2456 111.615 35.1716V28.795C111.638 27.9544 111.493 27.1177 111.189 26.3336Z" fill="#002E50"/>
<path d="M77.9311 28.697L76.0244 28.313C74.8921 28.0669 74.8987 27.7026 74.902 27.5221C74.9009 27.4489 74.9153 27.3763 74.9441 27.309C74.9729 27.2418 75.0156 27.1813 75.0693 27.1316C75.398 26.8647 75.8151 26.7311 76.2377 26.7574C76.963 26.7574 77.5077 27.0856 77.6948 27.6403C77.7128 27.6957 77.748 27.7439 77.7951 27.7781C77.8423 27.8123 77.8991 27.8307 77.9574 27.8306H80.6911C80.7321 27.8307 80.7726 27.8218 80.8099 27.8046C80.8471 27.7875 80.8801 27.7624 80.9067 27.7312C80.9332 27.6999 80.9526 27.6633 80.9636 27.6238C80.9746 27.5843 80.9768 27.5429 80.9701 27.5024C80.678 25.343 78.9386 24.1057 76.1917 24.1057C74.5508 24.1057 73.1757 24.5685 72.3421 25.4185C72.045 25.7161 71.8111 26.0707 71.6543 26.4609C71.4975 26.8512 71.4212 27.269 71.4298 27.6895C71.4298 29.4387 72.5259 30.548 74.7116 30.9713L76.5429 31.3356C77.5274 31.5358 77.6686 31.8607 77.6751 32.1101C77.6751 32.5827 77.0713 32.9109 76.2311 32.9109C75.6371 32.9109 74.879 32.7501 74.6328 31.9789C74.6143 31.9229 74.5787 31.8741 74.5311 31.8393C74.4834 31.8046 74.426 31.7857 74.367 31.7852H71.433C71.3932 31.7845 71.3536 31.7927 71.3173 31.8092C71.281 31.8256 71.2488 31.85 71.223 31.8804C71.1965 31.9106 71.1768 31.9462 71.1655 31.9847C71.1542 32.0233 71.1514 32.0638 71.1574 32.1036C71.4856 34.2827 73.3661 35.5823 76.2245 35.5823C79.1552 35.5823 81.2064 34.0366 81.213 31.8181C81.2064 30.1738 80.1332 29.1466 77.9311 28.697Z" fill="#002E50"/>
<path d="M96.9056 24.9981C95.9909 24.5089 94.9696 24.2529 93.9323 24.2529C92.8949 24.2529 91.8736 24.5089 90.9589 24.9981C90.1032 25.4772 89.389 26.1734 88.8881 27.0165C88.3743 27.9066 88.1123 28.9196 88.13 29.9472C88.1101 30.9823 88.3721 32.0033 88.8881 32.9008C89.3846 33.7493 90.1013 34.4478 90.9622 34.9224C91.8783 35.4053 92.8983 35.6577 93.9339 35.6577C94.9695 35.6577 95.9895 35.4053 96.9056 34.9224C97.7646 34.4472 98.4782 33.7472 98.9699 32.8975C99.4754 32.0035 99.7326 30.9905 99.7149 29.9636C99.7343 28.9381 99.4757 27.9265 98.9666 27.0362C98.4746 26.1845 97.7628 25.4806 96.9056 24.9981ZM96.6792 27.2199V32.7466H91.1657V27.2298L96.6792 27.2199Z" fill="#002E50"/>
<path d="M68.7727 20.3282C68.4502 20.1183 68.0745 20.0044 67.6897 20C67.3737 20.0003 67.0636 20.0855 66.7917 20.2465C66.5198 20.4076 66.2961 20.6387 66.144 20.9156C65.9844 21.2163 65.9108 21.5552 65.931 21.895C65.9513 22.2348 66.0647 22.5625 66.2588 22.8421C66.3457 22.9816 66.4623 23.1004 66.6001 23.19C66.9218 23.3993 67.2962 23.5131 67.6799 23.5181C67.9955 23.5178 68.3053 23.433 68.5771 23.2726C68.8489 23.1122 69.0728 22.8819 69.2256 22.6058C69.3851 22.3045 69.4587 21.9651 69.4384 21.6248C69.4182 21.2845 69.3048 20.9563 69.1108 20.6761C69.0224 20.5387 68.9075 20.4204 68.7727 20.3282Z" fill="#002E50"/>
<path d="M85.7582 20.3282C85.4357 20.1183 85.06 20.0044 84.6752 20C84.3592 20.0003 84.0491 20.0855 83.7772 20.2465C83.5053 20.4076 83.2816 20.6387 83.1294 20.9156C82.9692 21.2161 82.8951 21.5551 82.9154 21.895C82.9357 22.235 83.0495 22.5627 83.2443 22.8421C83.3337 22.9839 83.4537 23.1039 83.5955 23.1932C83.9171 23.4026 84.2915 23.5164 84.6752 23.5214C84.9917 23.5213 85.3024 23.4363 85.5748 23.2753C85.8473 23.1142 86.0716 22.883 86.2242 22.6058C86.3839 22.3044 86.4574 21.9648 86.4366 21.6243C86.4157 21.2838 86.3014 20.9557 86.1061 20.6761C86.0161 20.5368 85.8975 20.4182 85.7582 20.3282Z" fill="#002E50"/>
<path d="M36.2523 24.3846H33.4529C33.3789 24.3846 33.3079 24.414 33.2556 24.4663C33.2033 24.5186 33.1739 24.5896 33.1739 24.6636V25.2904C33.0361 25.1952 32.9048 25.1132 32.7703 25.0344C31.8669 24.5344 30.8491 24.2777 29.8166 24.2895C28.7743 24.2743 27.7461 24.531 26.8334 25.0344C25.9757 25.5149 25.2602 26.2134 24.7593 27.0593C24.2451 27.9492 23.983 28.9624 24.0012 29.99C23.9803 31.0252 24.2424 32.0465 24.7593 32.9437C25.2558 33.7922 25.9725 34.4907 26.8334 34.9653C27.7476 35.464 28.7754 35.7173 29.8166 35.7004C30.848 35.7138 31.8654 35.4606 32.7703 34.9653C32.9546 34.8679 33.1322 34.7582 33.3019 34.6371L33.3314 35.2147C33.3348 35.2864 33.3657 35.354 33.4177 35.4035C33.4696 35.4531 33.5386 35.4806 33.6104 35.4806H36.2359C36.3099 35.4806 36.3808 35.4512 36.4331 35.3988C36.4854 35.3465 36.5148 35.2756 36.5148 35.2016V24.6702C36.5167 24.5978 36.4903 24.5276 36.4413 24.4743C36.3923 24.421 36.3245 24.3889 36.2523 24.3846ZM32.8917 27.23V32.7468H27.3749V27.23H32.8917Z" fill="#002E50"/>
<path fill-rule="evenodd" clip-rule="evenodd" d="M47.8394 20.3246H50.6355C50.7075 20.3279 50.7755 20.3587 50.8255 20.4106C50.8756 20.4624 50.9039 20.5315 50.9046 20.6035V35.2012C50.9037 35.2755 50.8736 35.3464 50.8208 35.3987C50.768 35.4509 50.6967 35.4802 50.6224 35.4802H47.9969C47.9257 35.4794 47.8575 35.4514 47.8062 35.402C47.755 35.3526 47.7246 35.2854 47.7212 35.2143L47.6917 34.6367C47.5208 34.7579 47.3421 34.8675 47.1567 34.9649C46.24 35.4478 45.2195 35.7001 44.1834 35.7001C43.1473 35.7001 42.1267 35.4478 41.21 34.9649C40.3482 34.4903 39.6305 33.7919 39.1326 32.9433C38.6173 32.0455 38.3553 31.0246 38.3745 29.9896C38.3513 28.9841 38.6028 27.9914 39.1018 27.1182C39.6009 26.245 40.3286 25.5244 41.2068 25.034C42.1226 24.5448 43.145 24.2888 44.1834 24.2888C45.2218 24.2888 46.2441 24.5448 47.16 25.034C47.2946 25.1128 47.4259 25.1948 47.5604 25.29V20.6035C47.5613 20.5298 47.5909 20.4594 47.6431 20.4072C47.6952 20.3551 47.7656 20.3254 47.8394 20.3246ZM41.6763 27.2326H47.1931V32.7493H41.6763V27.2326Z" fill="#002E50"/>
</g>
<rect x="0.5" y="0.5" width="576" height="334" rx="9.5" stroke="#002E50"/>
<rect x="136" y="1" width="1" height="334" fill="#002E50"/>
<circle cx="69" cy="81" r="17" fill="#002E50"/>
<circle cx="28.5" cy="182.5" r="2.5" fill="#002E50"/>
<circle cx="28.5" cy="210.5" r="2.5" fill="#002E50"/>
<circle cx="28.5" cy="238.5" r="2.5" fill="#002E50"/>
<circle cx="28.5" cy="266.5" r="2.5" fill="#002E50"/>
<circle cx="28.5" cy="294.5" r="2.5" fill="#002E50"/>
<rect x="153.5" y="18.5" width="319" height="21" stroke="#002E50"/>
<rect x="153" y="52" width="1" height="15" fill="#002E50"/>
<rect x="210" y="52" width="1" height="15" fill="#002E50"/>
<rect x="279" y="52" width="1" height="15" fill="#002E50"/>
<rect x="154" y="99" width="319" height="45" fill="#CFEC52"/>
<rect x="154" y="152" width="319" height="45" fill="#CFEC52"/>
<rect x="154" y="205" width="319" height="45" fill="#CFEC52"/>
<rect x="154" y="258" width="319" height="45" fill="#CFEC52"/>
<defs>
<clipPath id="clip0_54919_1269">
<rect width="87.619" height="16" fill="white" transform="translate(24 20)"/>
</clipPath>
</defs>
</svg>
