<svg width="577" height="335" viewBox="0 0 577 335" fill="none" xmlns="http://www.w3.org/2000/svg">
<path opacity="0.8" d="M42.3068 188.114V185.062H42.8693C43.0625 184.886 43.2443 184.638 43.4148 184.317C43.5881 183.993 43.7344 183.561 43.8537 183.021C43.9759 182.479 44.0568 181.79 44.0966 180.955L44.2841 177.273H49.4659V185.062H50.4716V188.097H49.4659V186H43.3125V188.114H42.3068ZM44.1307 185.062H48.4602V178.21H45.2386L45.1023 180.955C45.0682 181.591 45.0085 182.168 44.9233 182.685C44.8381 183.199 44.7287 183.655 44.5952 184.053C44.4616 184.447 44.3068 184.784 44.1307 185.062ZM53.8583 186.153C53.4435 186.153 53.0671 186.075 52.729 185.919C52.391 185.76 52.1225 185.531 51.9237 185.233C51.7248 184.932 51.6254 184.568 51.6254 184.142C51.6254 183.767 51.6992 183.463 51.8469 183.23C51.9947 182.994 52.1921 182.81 52.4393 182.676C52.6864 182.543 52.9592 182.443 53.2575 182.378C53.5586 182.31 53.8612 182.256 54.1651 182.216C54.5629 182.165 54.8853 182.126 55.1325 182.101C55.3825 182.072 55.5643 182.026 55.6779 181.96C55.7944 181.895 55.8526 181.781 55.8526 181.619V181.585C55.8526 181.165 55.7376 180.838 55.5075 180.605C55.2802 180.372 54.935 180.256 54.4719 180.256C53.9918 180.256 53.6154 180.361 53.3427 180.571C53.07 180.781 52.8782 181.006 52.7674 181.244L51.8129 180.903C51.9833 180.506 52.2106 180.196 52.4947 179.974C52.7816 179.75 53.0941 179.594 53.4322 179.506C53.7731 179.415 54.1083 179.369 54.4379 179.369C54.6481 179.369 54.8896 179.395 55.1623 179.446C55.4379 179.494 55.7035 179.595 55.9592 179.749C56.2177 179.902 56.4322 180.134 56.6026 180.443C56.7731 180.753 56.8583 181.168 56.8583 181.688V186H55.8526V185.114H55.8015C55.7333 185.256 55.6197 185.408 55.4606 185.57C55.3015 185.732 55.0898 185.869 54.8256 185.983C54.5614 186.097 54.239 186.153 53.8583 186.153ZM54.0117 185.25C54.4094 185.25 54.7447 185.172 55.0174 185.016C55.293 184.859 55.5004 184.658 55.6396 184.411C55.7816 184.163 55.8526 183.903 55.8526 183.631V182.71C55.81 182.761 55.7163 182.808 55.5714 182.851C55.4293 182.891 55.2646 182.926 55.0771 182.957C54.8924 182.986 54.712 183.011 54.5359 183.034C54.3626 183.054 54.2219 183.071 54.114 183.085C53.8526 183.119 53.6083 183.175 53.381 183.251C53.1566 183.325 52.9748 183.437 52.8356 183.588C52.6992 183.736 52.631 183.937 52.631 184.193C52.631 184.543 52.7603 184.807 53.0188 184.986C53.2802 185.162 53.6112 185.25 54.0117 185.25ZM58.6939 179.455H59.6996V185.062H62.1712V179.455H63.1768V185.062H65.6484V179.455H66.6541V186H58.6939V179.455ZM73.3487 177L73.8601 177.614C73.6612 177.807 73.4311 177.942 73.1697 178.018C72.9084 178.095 72.6129 178.142 72.2834 178.159C71.9538 178.176 71.5874 178.193 71.1839 178.21C70.7294 178.227 70.353 178.338 70.0547 178.543C69.7564 178.747 69.5263 179.043 69.3643 179.429C69.2024 179.815 69.0987 180.29 69.0533 180.852H69.1385C69.3601 180.443 69.6669 180.142 70.0589 179.949C70.451 179.756 70.8714 179.659 71.3203 179.659C71.8317 179.659 72.2919 179.778 72.701 180.017C73.1101 180.256 73.4339 180.609 73.6726 181.078C73.9112 181.547 74.0305 182.125 74.0305 182.812C74.0305 183.497 73.9084 184.088 73.6641 184.585C73.4226 185.082 73.0831 185.466 72.6456 185.736C72.2109 186.003 71.701 186.136 71.1158 186.136C70.5305 186.136 70.0178 185.999 69.5774 185.723C69.1371 185.445 68.7947 185.033 68.5504 184.487C68.3061 183.939 68.1839 183.261 68.1839 182.455V181.756C68.1839 180.298 68.4311 179.193 68.9254 178.44C69.4226 177.687 70.1697 177.298 71.1669 177.273C71.5192 177.261 71.8331 177.259 72.1087 177.264C72.3842 177.27 72.6243 177.257 72.8288 177.226C73.0334 177.195 73.2067 177.119 73.3487 177ZM71.1158 185.233C71.5107 185.233 71.8501 185.134 72.1342 184.935C72.4212 184.736 72.6413 184.456 72.7947 184.095C72.9482 183.732 73.0249 183.304 73.0249 182.812C73.0249 182.335 72.9467 181.929 72.7905 181.594C72.6371 181.259 72.4169 181.003 72.13 180.827C71.843 180.651 71.4993 180.562 71.0987 180.562C70.8061 180.562 70.5433 180.612 70.3104 180.712C70.0774 180.811 69.8786 180.957 69.7138 181.151C69.549 181.344 69.4212 181.58 69.3303 181.858C69.2422 182.136 69.1953 182.455 69.1896 182.812C69.1896 183.545 69.3615 184.132 69.7053 184.572C70.049 185.013 70.5192 185.233 71.1158 185.233ZM78.228 186.136C77.6371 186.136 77.1186 185.996 76.6726 185.714C76.2294 185.433 75.8828 185.04 75.6328 184.534C75.3857 184.028 75.2621 183.437 75.2621 182.761C75.2621 182.08 75.3857 181.484 75.6328 180.976C75.8828 180.467 76.2294 180.072 76.6726 179.791C77.1186 179.51 77.6371 179.369 78.228 179.369C78.8189 179.369 79.3359 179.51 79.7791 179.791C80.2251 180.072 80.5717 180.467 80.8189 180.976C81.0689 181.484 81.1939 182.08 81.1939 182.761C81.1939 183.437 81.0689 184.028 80.8189 184.534C80.5717 185.04 80.2251 185.433 79.7791 185.714C79.3359 185.996 78.8189 186.136 78.228 186.136ZM78.228 185.233C78.6768 185.233 79.0462 185.118 79.3359 184.888C79.6257 184.658 79.8402 184.355 79.9794 183.98C80.1186 183.605 80.1882 183.199 80.1882 182.761C80.1882 182.324 80.1186 181.916 79.9794 181.538C79.8402 181.161 79.6257 180.855 79.3359 180.622C79.0462 180.389 78.6768 180.273 78.228 180.273C77.7791 180.273 77.4098 180.389 77.12 180.622C76.8303 180.855 76.6158 181.161 76.4766 181.538C76.3374 181.916 76.2678 182.324 76.2678 182.761C76.2678 183.199 76.3374 183.605 76.4766 183.98C76.6158 184.355 76.8303 184.658 77.12 184.888C77.4098 185.118 77.7791 185.233 78.228 185.233ZM82.729 188.455V179.455H83.7006V180.494H83.82C83.8938 180.381 83.9961 180.236 84.1268 180.06C84.2603 179.881 84.4506 179.722 84.6978 179.582C84.9478 179.44 85.2859 179.369 85.712 179.369C86.2631 179.369 86.7489 179.507 87.1694 179.783C87.5898 180.058 87.918 180.449 88.1538 180.955C88.3896 181.46 88.5075 182.057 88.5075 182.744C88.5075 183.438 88.3896 184.038 88.1538 184.547C87.918 185.053 87.5913 185.445 87.1737 185.723C86.756 185.999 86.2745 186.136 85.729 186.136C85.3086 186.136 84.9719 186.067 84.7191 185.928C84.4663 185.786 84.2717 185.625 84.1353 185.446C83.9989 185.264 83.8938 185.114 83.82 184.994H83.7347V188.455H82.729ZM83.7177 182.727C83.7177 183.222 83.7901 183.658 83.935 184.036C84.0799 184.411 84.2915 184.705 84.57 184.918C84.8484 185.128 85.1893 185.233 85.5927 185.233C86.0131 185.233 86.364 185.122 86.6452 184.901C86.9293 184.676 87.1424 184.375 87.2844 183.997C87.4293 183.616 87.5018 183.193 87.5018 182.727C87.5018 182.267 87.4308 181.852 87.2887 181.483C87.1495 181.111 86.9379 180.817 86.6538 180.601C86.3725 180.382 86.0188 180.273 85.5927 180.273C85.1836 180.273 84.8398 180.376 84.5614 180.584C84.283 180.788 84.0728 181.075 83.9308 181.445C83.7887 181.811 83.7177 182.239 83.7177 182.727ZM89.3427 187.875V185.062H89.8881C90.0217 184.923 90.1367 184.773 90.2333 184.611C90.3299 184.449 90.4137 184.257 90.4847 184.036C90.5586 183.811 90.6211 183.538 90.6722 183.217C90.7234 182.893 90.7688 182.503 90.8086 182.045L91.0302 179.455H95.1893V185.062H96.195V187.875H95.1893V186H90.3484V187.875H89.3427ZM91.0302 185.062H94.1836V180.392H91.9677L91.7972 182.045C91.7262 182.73 91.6381 183.328 91.533 183.839C91.4279 184.351 91.2603 184.759 91.0302 185.062Z" fill="#002E50"/>
<path opacity="0.8" d="M154.959 34V25.2727H158.07C158.749 25.2727 159.311 25.3963 159.757 25.6435C160.203 25.8906 160.537 26.2287 160.759 26.6577C160.98 27.0838 161.091 27.5639 161.091 28.098C161.091 28.6349 160.979 29.1179 160.754 29.5469C160.533 29.973 160.197 30.3111 159.749 30.5611C159.303 30.8082 158.741 30.9318 158.065 30.9318H155.926V29.8153H157.946C158.375 29.8153 158.723 29.7415 158.99 29.5938C159.257 29.4432 159.453 29.2386 159.578 28.9801C159.703 28.7216 159.766 28.4276 159.766 28.098C159.766 27.7685 159.703 27.4759 159.578 27.2202C159.453 26.9645 159.256 26.7642 158.986 26.6193C158.719 26.4744 158.366 26.402 157.929 26.402H156.276V34H154.959ZM165.271 34.1321C164.626 34.1321 164.071 33.9943 163.605 33.7188C163.142 33.4403 162.784 33.0497 162.531 32.5469C162.281 32.0412 162.156 31.4489 162.156 30.7699C162.156 30.0994 162.281 29.5085 162.531 28.9972C162.784 28.4858 163.136 28.0866 163.588 27.7997C164.043 27.5128 164.574 27.3693 165.182 27.3693C165.551 27.3693 165.909 27.4304 166.256 27.5526C166.602 27.6747 166.913 27.8665 167.189 28.1278C167.464 28.3892 167.682 28.7287 167.841 29.1463C168 29.5611 168.08 30.0653 168.08 30.6591V31.1108H162.876V30.1562H166.831C166.831 29.821 166.763 29.5241 166.626 29.2656C166.49 29.0043 166.298 28.7983 166.051 28.6477C165.807 28.4972 165.52 28.4219 165.19 28.4219C164.832 28.4219 164.52 28.5099 164.253 28.6861C163.989 28.8594 163.784 29.0866 163.639 29.3679C163.497 29.6463 163.426 29.9489 163.426 30.2756V31.0213C163.426 31.4588 163.503 31.831 163.656 32.1378C163.812 32.4446 164.03 32.679 164.308 32.8409C164.587 33 164.912 33.0795 165.284 33.0795C165.526 33.0795 165.746 33.0455 165.945 32.9773C166.143 32.9062 166.315 32.8011 166.46 32.6619C166.605 32.5227 166.716 32.3509 166.793 32.1463L167.999 32.3636C167.902 32.7187 167.729 33.0298 167.479 33.2969C167.232 33.5611 166.92 33.767 166.545 33.9148C166.173 34.0597 165.749 34.1321 165.271 34.1321ZM169.493 34V27.4545H170.767V30.1989H171.381L173.542 27.4545H175.118L172.583 30.6378L175.148 34H173.567L171.594 31.3835H170.767V34H169.493ZM175.622 34L175.618 32.8963H175.852C176.034 32.8963 176.186 32.858 176.308 32.7812C176.433 32.7017 176.536 32.5682 176.615 32.3807C176.695 32.1932 176.756 31.9347 176.798 31.6051C176.841 31.2727 176.872 30.8551 176.892 30.3523L177.007 27.4545H181.575V34H180.327V28.554H178.188L178.085 30.7784C178.06 31.3182 178.004 31.7898 177.919 32.1932C177.837 32.5966 177.716 32.9332 177.557 33.2031C177.398 33.4702 177.193 33.6705 176.943 33.804C176.693 33.9347 176.389 34 176.031 34H175.622ZM185.179 34.1449C184.765 34.1449 184.39 34.0682 184.054 33.9148C183.719 33.7585 183.453 33.5327 183.257 33.2372C183.064 32.9418 182.968 32.5795 182.968 32.1506C182.968 31.7812 183.039 31.4773 183.181 31.2386C183.323 31 183.515 30.8111 183.756 30.6719C183.998 30.5327 184.267 30.4276 184.566 30.3565C184.864 30.2855 185.168 30.2315 185.478 30.1946C185.87 30.1491 186.188 30.1122 186.432 30.0838C186.676 30.0526 186.854 30.0028 186.965 29.9347C187.076 29.8665 187.131 29.7557 187.131 29.6023V29.5724C187.131 29.2003 187.026 28.9119 186.816 28.7074C186.608 28.5028 186.299 28.4006 185.887 28.4006C185.458 28.4006 185.12 28.4957 184.873 28.6861C184.628 28.8736 184.459 29.0824 184.365 29.3125L183.168 29.0398C183.31 28.642 183.517 28.321 183.79 28.0767C184.066 27.8295 184.382 27.6506 184.74 27.5398C185.098 27.4261 185.475 27.3693 185.87 27.3693C186.131 27.3693 186.408 27.4006 186.701 27.4631C186.996 27.5227 187.272 27.6335 187.527 27.7955C187.786 27.9574 187.998 28.1889 188.162 28.4901C188.327 28.7884 188.409 29.1761 188.409 29.6534V34H187.165V33.1051H187.114C187.032 33.2699 186.908 33.4318 186.743 33.5909C186.578 33.75 186.367 33.8821 186.108 33.9872C185.85 34.0923 185.54 34.1449 185.179 34.1449ZM185.456 33.1222C185.809 33.1222 186.11 33.0526 186.36 32.9134C186.613 32.7741 186.804 32.5923 186.935 32.3679C187.069 32.1406 187.135 31.8977 187.135 31.6392V30.7955C187.09 30.8409 187.002 30.8835 186.871 30.9233C186.743 30.9602 186.597 30.9929 186.432 31.0213C186.267 31.0469 186.107 31.071 185.951 31.0938C185.794 31.1136 185.664 31.1307 185.559 31.1449C185.311 31.1761 185.086 31.2287 184.881 31.3026C184.679 31.3764 184.517 31.483 184.395 31.6222C184.276 31.7585 184.216 31.9403 184.216 32.1676C184.216 32.483 184.333 32.7216 184.566 32.8835C184.799 33.0426 185.096 33.1222 185.456 33.1222ZM193.78 32.4233L195.893 27.4545H196.993L194.253 34H193.307L190.622 27.4545H191.709L193.78 32.4233ZM191.355 27.4545V34H190.107V27.4545H191.355ZM196.239 34V27.4545H197.479V34H196.239ZM201.082 34.1449C200.667 34.1449 200.292 34.0682 199.957 33.9148C199.621 33.7585 199.356 33.5327 199.16 33.2372C198.967 32.9418 198.87 32.5795 198.87 32.1506C198.87 31.7812 198.941 31.4773 199.083 31.2386C199.225 31 199.417 30.8111 199.658 30.6719C199.9 30.5327 200.17 30.4276 200.468 30.3565C200.766 30.2855 201.07 30.2315 201.38 30.1946C201.772 30.1491 202.09 30.1122 202.335 30.0838C202.579 30.0526 202.756 30.0028 202.867 29.9347C202.978 29.8665 203.033 29.7557 203.033 29.6023V29.5724C203.033 29.2003 202.928 28.9119 202.718 28.7074C202.511 28.5028 202.201 28.4006 201.789 28.4006C201.36 28.4006 201.022 28.4957 200.775 28.6861C200.531 28.8736 200.362 29.0824 200.268 29.3125L199.07 29.0398C199.212 28.642 199.42 28.321 199.692 28.0767C199.968 27.8295 200.285 27.6506 200.643 27.5398C201.001 27.4261 201.377 27.3693 201.772 27.3693C202.033 27.3693 202.31 27.4006 202.603 27.4631C202.898 27.5227 203.174 27.6335 203.43 27.7955C203.688 27.9574 203.9 28.1889 204.065 28.4901C204.229 28.7884 204.312 29.1761 204.312 29.6534V34H203.067V33.1051H203.016C202.934 33.2699 202.81 33.4318 202.646 33.5909C202.481 33.75 202.269 33.8821 202.011 33.9872C201.752 34.0923 201.442 34.1449 201.082 34.1449ZM201.359 33.1222C201.711 33.1222 202.012 33.0526 202.262 32.9134C202.515 32.7741 202.707 32.5923 202.837 32.3679C202.971 32.1406 203.038 31.8977 203.038 31.6392V30.7955C202.992 30.8409 202.904 30.8835 202.773 30.9233C202.646 30.9602 202.499 30.9929 202.335 31.0213C202.17 31.0469 202.009 31.071 201.853 31.0938C201.697 31.1136 201.566 31.1307 201.461 31.1449C201.214 31.1761 200.988 31.2287 200.783 31.3026C200.582 31.3764 200.42 31.483 200.298 31.6222C200.178 31.7585 200.119 31.9403 200.119 32.1676C200.119 32.483 200.235 32.7216 200.468 32.8835C200.701 33.0426 200.998 33.1222 201.359 33.1222ZM217.03 32.8366L216.915 36.0625H215.602V34H214.989V32.8366H217.03ZM209.287 34V25.2727H210.548V32.858H214.759V25.2727H216.024V34H209.287ZM219.092 34.1193V32.9602H219.616C219.835 32.9602 220.016 32.9233 220.158 32.8494C220.303 32.7756 220.42 32.6761 220.511 32.5511C220.605 32.4233 220.683 32.2841 220.746 32.1335L220.869 31.8224L217.801 25.2727H219.199L221.487 30.3182L223.524 25.2727H224.905L221.888 32.4872C221.76 32.777 221.612 33.0455 221.445 33.2926C221.28 33.5398 221.06 33.7401 220.784 33.8935C220.509 34.044 220.143 34.1193 219.689 34.1193H219.092ZM226.15 25.2727H227.748L230.527 32.0568H230.629L233.407 25.2727H235.005V34H233.752V27.6847H233.672L231.098 33.9872H230.058L227.484 27.6804H227.403V34H226.15V25.2727Z" fill="#002E50"/>
<rect x="1" y="199" width="135" height="23" fill="#CFEC52"/>
<path opacity="0.8" d="M43.517 214.119V213.131H44.0625C44.2727 213.131 44.4489 213.089 44.5909 213.007C44.7358 212.925 44.8551 212.818 44.9489 212.688C45.0455 212.557 45.125 212.42 45.1875 212.278L45.3239 211.955L42.3068 205.273H43.4489L45.8523 210.693L48.0511 205.273H49.1761L46.1591 212.585C46.0398 212.858 45.9034 213.111 45.75 213.344C45.5994 213.577 45.3935 213.764 45.1321 213.906C44.8736 214.048 44.5227 214.119 44.0795 214.119H43.517ZM52.142 214.136C51.5284 214.136 51 213.991 50.5568 213.702C50.1136 213.412 49.7727 213.013 49.5341 212.504C49.2955 211.996 49.1761 211.415 49.1761 210.761C49.1761 210.097 49.2983 209.51 49.5426 209.001C49.7898 208.49 50.1335 208.091 50.5739 207.804C51.017 207.514 51.5341 207.369 52.125 207.369C52.5852 207.369 53 207.455 53.3693 207.625C53.7386 207.795 54.0412 208.034 54.277 208.341C54.5128 208.648 54.6591 209.006 54.7159 209.415H53.7102C53.6335 209.116 53.4631 208.852 53.1989 208.622C52.9375 208.389 52.5852 208.273 52.142 208.273C51.75 208.273 51.4063 208.375 51.1108 208.58C50.8182 208.781 50.5895 209.067 50.4247 209.436C50.2628 209.803 50.1818 210.233 50.1818 210.727C50.1818 211.233 50.2614 211.673 50.4205 212.048C50.5824 212.423 50.8097 212.714 51.1023 212.922C51.3977 213.129 51.7443 213.233 52.142 213.233C52.4034 213.233 52.6406 213.188 52.8537 213.097C53.0668 213.006 53.2472 212.875 53.3949 212.705C53.5426 212.534 53.6477 212.33 53.7102 212.091H54.7159C54.6591 212.477 54.5185 212.825 54.294 213.135C54.0724 213.442 53.7784 213.686 53.4119 213.868C53.0483 214.047 52.625 214.136 52.142 214.136ZM55.6705 208.392V207.455H60.9886V208.392H58.8409V214H57.8352V208.392H55.6705ZM62.4556 216.455V207.455H63.4272V208.494H63.5465C63.6204 208.381 63.7227 208.236 63.8533 208.06C63.9869 207.881 64.1772 207.722 64.4244 207.582C64.6744 207.44 65.0124 207.369 65.4386 207.369C65.9897 207.369 66.4755 207.507 66.896 207.783C67.3164 208.058 67.6445 208.449 67.8803 208.955C68.1161 209.46 68.234 210.057 68.234 210.744C68.234 211.438 68.1161 212.038 67.8803 212.547C67.6445 213.053 67.3178 213.445 66.9002 213.723C66.4826 213.999 66.0011 214.136 65.4556 214.136C65.0352 214.136 64.6985 214.067 64.4457 213.928C64.1928 213.786 63.9982 213.625 63.8619 213.446C63.7255 213.264 63.6204 213.114 63.5465 212.994H63.4613V216.455H62.4556ZM63.4442 210.727C63.4442 211.222 63.5167 211.658 63.6616 212.036C63.8065 212.411 64.0181 212.705 64.2965 212.918C64.5749 213.128 64.9158 213.233 65.3192 213.233C65.7397 213.233 66.0906 213.122 66.3718 212.901C66.6559 212.676 66.869 212.375 67.011 211.997C67.1559 211.616 67.2283 211.193 67.2283 210.727C67.2283 210.267 67.1573 209.852 67.0153 209.483C66.8761 209.111 66.6644 208.817 66.3803 208.601C66.0991 208.382 65.7454 208.273 65.3192 208.273C64.9102 208.273 64.5664 208.376 64.288 208.584C64.0096 208.788 63.7994 209.075 63.6573 209.445C63.5153 209.811 63.4442 210.239 63.4442 210.727ZM72.4272 214.136C71.8363 214.136 71.3178 213.996 70.8718 213.714C70.4286 213.433 70.082 213.04 69.832 212.534C69.5849 212.028 69.4613 211.437 69.4613 210.761C69.4613 210.08 69.5849 209.484 69.832 208.976C70.082 208.467 70.4286 208.072 70.8718 207.791C71.3178 207.51 71.8363 207.369 72.4272 207.369C73.0181 207.369 73.5352 207.51 73.9783 207.791C74.4244 208.072 74.771 208.467 75.0181 208.976C75.2681 209.484 75.3931 210.08 75.3931 210.761C75.3931 211.437 75.2681 212.028 75.0181 212.534C74.771 213.04 74.4244 213.433 73.9783 213.714C73.5352 213.996 73.0181 214.136 72.4272 214.136ZM72.4272 213.233C72.8761 213.233 73.2454 213.118 73.5352 212.888C73.8249 212.658 74.0394 212.355 74.1786 211.98C74.3178 211.605 74.3874 211.199 74.3874 210.761C74.3874 210.324 74.3178 209.916 74.1786 209.538C74.0394 209.161 73.8249 208.855 73.5352 208.622C73.2454 208.389 72.8761 208.273 72.4272 208.273C71.9783 208.273 71.609 208.389 71.3192 208.622C71.0295 208.855 70.815 209.161 70.6758 209.538C70.5366 209.916 70.467 210.324 70.467 210.761C70.467 211.199 70.5366 211.605 70.6758 211.98C70.815 212.355 71.0295 212.658 71.3192 212.888C71.609 213.118 71.9783 213.233 72.4272 213.233ZM77.9339 212.517L81.0874 207.455H82.2464V214H81.2408V208.938L78.1044 214H76.9283V207.455H77.9339V212.517ZM80.4226 205.273H81.3601C81.3601 205.733 81.201 206.109 80.8828 206.402C80.5646 206.695 80.1328 206.841 79.5874 206.841C79.0504 206.841 78.6229 206.695 78.3047 206.402C77.9893 206.109 77.8317 205.733 77.8317 205.273H78.7692C78.7692 205.494 78.8303 205.689 78.9524 205.857C79.0774 206.024 79.2891 206.108 79.5874 206.108C79.8857 206.108 80.0987 206.024 80.2266 205.857C80.3572 205.689 80.4226 205.494 80.4226 205.273ZM86.7475 214.136C86.1339 214.136 85.6055 213.991 85.1623 213.702C84.7191 213.412 84.3782 213.013 84.1396 212.504C83.9009 211.996 83.7816 211.415 83.7816 210.761C83.7816 210.097 83.9038 209.51 84.1481 209.001C84.3952 208.49 84.739 208.091 85.1793 207.804C85.6225 207.514 86.1396 207.369 86.7305 207.369C87.1907 207.369 87.6055 207.455 87.9748 207.625C88.3441 207.795 88.6467 208.034 88.8825 208.341C89.1183 208.648 89.2646 209.006 89.3214 209.415H88.3157C88.239 209.116 88.0685 208.852 87.8043 208.622C87.543 208.389 87.1907 208.273 86.7475 208.273C86.3555 208.273 86.0117 208.375 85.7163 208.58C85.4237 208.781 85.195 209.067 85.0302 209.436C84.8683 209.803 84.7873 210.233 84.7873 210.727C84.7873 211.233 84.8668 211.673 85.0259 212.048C85.1879 212.423 85.4151 212.714 85.7077 212.922C86.0032 213.129 86.3498 213.233 86.7475 213.233C87.0089 213.233 87.2461 213.188 87.4592 213.097C87.6722 213.006 87.8526 212.875 88.0004 212.705C88.1481 212.534 88.2532 212.33 88.3157 212.091H89.3214C89.2646 212.477 89.1239 212.825 88.8995 213.135C88.6779 213.442 88.3839 213.686 88.0174 213.868C87.6538 214.047 87.2305 214.136 86.7475 214.136ZM90.2759 208.392V207.455H95.5941V208.392H93.4464V214H92.4407V208.392H90.2759ZM97.0611 214V207.455H99.7372C100.442 207.455 101.001 207.614 101.416 207.932C101.831 208.25 102.038 208.67 102.038 209.193C102.038 209.591 101.92 209.899 101.685 210.118C101.449 210.334 101.146 210.48 100.777 210.557C101.018 210.591 101.253 210.676 101.48 210.812C101.71 210.949 101.901 211.136 102.051 211.375C102.202 211.611 102.277 211.901 102.277 212.244C102.277 212.58 102.192 212.879 102.021 213.143C101.851 213.408 101.607 213.616 101.288 213.77C100.97 213.923 100.589 214 100.146 214H97.0611ZM98.0156 213.08H100.146C100.493 213.08 100.764 212.997 100.96 212.832C101.156 212.668 101.254 212.443 101.254 212.159C101.254 211.821 101.156 211.555 100.96 211.362C100.764 211.166 100.493 211.068 100.146 211.068H98.0156V213.08ZM98.0156 210.199H99.7372C100.007 210.199 100.239 210.162 100.432 210.088C100.625 210.011 100.773 209.903 100.875 209.764C100.98 209.622 101.033 209.455 101.033 209.261C101.033 208.986 100.918 208.77 100.688 208.614C100.457 208.455 100.141 208.375 99.7372 208.375H98.0156V210.199ZM105.725 214.153C105.311 214.153 104.934 214.075 104.596 213.919C104.258 213.76 103.99 213.531 103.791 213.233C103.592 212.932 103.493 212.568 103.493 212.142C103.493 211.767 103.566 211.463 103.714 211.23C103.862 210.994 104.059 210.81 104.306 210.676C104.554 210.543 104.826 210.443 105.125 210.378C105.426 210.31 105.728 210.256 106.032 210.216C106.43 210.165 106.752 210.126 107 210.101C107.25 210.072 107.431 210.026 107.545 209.96C107.662 209.895 107.72 209.781 107.72 209.619V209.585C107.72 209.165 107.605 208.838 107.375 208.605C107.147 208.372 106.802 208.256 106.339 208.256C105.859 208.256 105.483 208.361 105.21 208.571C104.937 208.781 104.745 209.006 104.635 209.244L103.68 208.903C103.85 208.506 104.078 208.196 104.362 207.974C104.649 207.75 104.961 207.594 105.299 207.506C105.64 207.415 105.975 207.369 106.305 207.369C106.515 207.369 106.757 207.395 107.029 207.446C107.305 207.494 107.571 207.595 107.826 207.749C108.085 207.902 108.299 208.134 108.47 208.443C108.64 208.753 108.725 209.168 108.725 209.688V214H107.72V213.114H107.669C107.6 213.256 107.487 213.408 107.328 213.57C107.169 213.732 106.957 213.869 106.693 213.983C106.429 214.097 106.106 214.153 105.725 214.153ZM105.879 213.25C106.277 213.25 106.612 213.172 106.885 213.016C107.16 212.859 107.368 212.658 107.507 212.411C107.649 212.163 107.72 211.903 107.72 211.631V210.71C107.677 210.761 107.583 210.808 107.439 210.851C107.297 210.891 107.132 210.926 106.944 210.957C106.76 210.986 106.579 211.011 106.403 211.034C106.23 211.054 106.089 211.071 105.981 211.085C105.72 211.119 105.475 211.175 105.248 211.251C105.024 211.325 104.842 211.437 104.703 211.588C104.566 211.736 104.498 211.937 104.498 212.193C104.498 212.543 104.627 212.807 104.886 212.986C105.147 213.162 105.478 213.25 105.879 213.25Z" fill="#002E50"/>
<path opacity="0.8" d="M48.3239 233.273V234.21H44.1136V242H43.0568V233.273H48.3239ZM50.8583 242.153C50.4435 242.153 50.0671 242.075 49.729 241.919C49.391 241.76 49.1225 241.531 48.9237 241.233C48.7248 240.932 48.6254 240.568 48.6254 240.142C48.6254 239.767 48.6992 239.463 48.8469 239.23C48.9947 238.994 49.1921 238.81 49.4393 238.676C49.6864 238.543 49.9592 238.443 50.2575 238.378C50.5586 238.31 50.8612 238.256 51.1651 238.216C51.5629 238.165 51.8853 238.126 52.1325 238.101C52.3825 238.072 52.5643 238.026 52.6779 237.96C52.7944 237.895 52.8526 237.781 52.8526 237.619V237.585C52.8526 237.165 52.7376 236.838 52.5075 236.605C52.2802 236.372 51.935 236.256 51.4719 236.256C50.9918 236.256 50.6154 236.361 50.3427 236.571C50.07 236.781 49.8782 237.006 49.7674 237.244L48.8129 236.903C48.9833 236.506 49.2106 236.196 49.4947 235.974C49.7816 235.75 50.0941 235.594 50.4322 235.506C50.7731 235.415 51.1083 235.369 51.4379 235.369C51.6481 235.369 51.8896 235.395 52.1623 235.446C52.4379 235.494 52.7035 235.595 52.9592 235.749C53.2177 235.902 53.4322 236.134 53.6026 236.443C53.7731 236.753 53.8583 237.168 53.8583 237.688V242H52.8526V241.114H52.8015C52.7333 241.256 52.6197 241.408 52.4606 241.57C52.3015 241.732 52.0898 241.869 51.8256 241.983C51.5614 242.097 51.239 242.153 50.8583 242.153ZM51.0117 241.25C51.4094 241.25 51.7447 241.172 52.0174 241.016C52.293 240.859 52.5004 240.658 52.6396 240.411C52.7816 240.163 52.8526 239.903 52.8526 239.631V238.71C52.81 238.761 52.7163 238.808 52.5714 238.851C52.4293 238.891 52.2646 238.926 52.0771 238.957C51.8924 238.986 51.712 239.011 51.5359 239.034C51.3626 239.054 51.2219 239.071 51.114 239.085C50.8526 239.119 50.6083 239.175 50.381 239.251C50.1566 239.325 49.9748 239.437 49.8356 239.588C49.6992 239.736 49.631 239.937 49.631 240.193C49.631 240.543 49.7603 240.807 50.0188 240.986C50.2802 241.162 50.6112 241.25 51.0117 241.25ZM55.1143 242V241.062H55.353C55.549 241.062 55.7124 241.024 55.843 240.947C55.9737 240.868 56.0788 240.73 56.1584 240.534C56.2408 240.335 56.3033 240.06 56.3459 239.707C56.3913 239.352 56.424 238.901 56.4439 238.352L56.5632 235.455H60.9268V242H59.9212V236.392H57.5178L57.4155 238.727C57.3928 239.264 57.3445 239.737 57.2706 240.146C57.1996 240.553 57.0902 240.893 56.9425 241.169C56.7976 241.445 56.6044 241.652 56.3629 241.791C56.1214 241.93 55.8189 242 55.4553 242H55.1143ZM65.5163 242.136C64.8857 242.136 64.3416 241.997 63.8842 241.719C63.4297 241.438 63.0788 241.045 62.8317 240.543C62.5874 240.037 62.4652 239.449 62.4652 238.778C62.4652 238.108 62.5874 237.517 62.8317 237.006C63.0788 236.491 63.4226 236.091 63.8629 235.804C64.3061 235.514 64.8232 235.369 65.4141 235.369C65.755 235.369 66.0916 235.426 66.424 235.54C66.7564 235.653 67.0589 235.838 67.3317 236.094C67.6044 236.347 67.8217 236.682 67.9837 237.099C68.1456 237.517 68.2266 238.031 68.2266 238.642V239.068H63.1811V238.199H67.2038C67.2038 237.83 67.13 237.5 66.9822 237.21C66.8374 236.92 66.63 236.692 66.3601 236.524C66.093 236.357 65.7777 236.273 65.4141 236.273C65.0135 236.273 64.6669 236.372 64.3743 236.571C64.0845 236.767 63.8615 237.023 63.7053 237.338C63.549 237.653 63.4709 237.991 63.4709 238.352V238.932C63.4709 239.426 63.5561 239.845 63.7266 240.189C63.8999 240.53 64.1399 240.79 64.4467 240.969C64.7536 241.145 65.1101 241.233 65.5163 241.233C65.7805 241.233 66.0192 241.196 66.2322 241.122C66.4482 241.045 66.6342 240.932 66.7905 240.781C66.9467 240.628 67.0675 240.437 67.1527 240.21L68.1243 240.483C68.022 240.812 67.8501 241.102 67.6087 241.352C67.3672 241.599 67.0689 241.793 66.7138 241.932C66.3587 242.068 65.9595 242.136 65.5163 242.136ZM69.7564 244.455V235.455H70.728V236.494H70.8473C70.9212 236.381 71.0234 236.236 71.1541 236.06C71.2876 235.881 71.478 235.722 71.7251 235.582C71.9751 235.44 72.3132 235.369 72.7393 235.369C73.2905 235.369 73.7763 235.507 74.1967 235.783C74.6172 236.058 74.9453 236.449 75.1811 236.955C75.4169 237.46 75.5348 238.057 75.5348 238.744C75.5348 239.438 75.4169 240.038 75.1811 240.547C74.9453 241.053 74.6186 241.445 74.201 241.723C73.7834 241.999 73.3018 242.136 72.7564 242.136C72.3359 242.136 71.9993 242.067 71.7464 241.928C71.4936 241.786 71.299 241.625 71.1626 241.446C71.0263 241.264 70.9212 241.114 70.8473 240.994H70.7621V244.455H69.7564ZM70.745 238.727C70.745 239.222 70.8175 239.658 70.9624 240.036C71.1072 240.411 71.3189 240.705 71.5973 240.918C71.8757 241.128 72.2166 241.233 72.62 241.233C73.0405 241.233 73.3913 241.122 73.6726 240.901C73.9567 240.676 74.1697 240.375 74.3118 239.997C74.4567 239.616 74.5291 239.193 74.5291 238.727C74.5291 238.267 74.4581 237.852 74.3161 237.483C74.1768 237.111 73.9652 236.817 73.6811 236.601C73.3999 236.382 73.0462 236.273 72.62 236.273C72.2109 236.273 71.8672 236.376 71.5888 236.584C71.3104 236.788 71.1001 237.075 70.9581 237.445C70.8161 237.811 70.745 238.239 70.745 238.727ZM79.8132 242.136C79.1825 242.136 78.6385 241.997 78.1811 241.719C77.7266 241.438 77.3757 241.045 77.1286 240.543C76.8842 240.037 76.7621 239.449 76.7621 238.778C76.7621 238.108 76.8842 237.517 77.1286 237.006C77.3757 236.491 77.7195 236.091 78.1598 235.804C78.603 235.514 79.12 235.369 79.7109 235.369C80.0518 235.369 80.3885 235.426 80.7209 235.54C81.0533 235.653 81.3558 235.838 81.6286 236.094C81.9013 236.347 82.1186 236.682 82.2805 237.099C82.4425 237.517 82.5234 238.031 82.5234 238.642V239.068H77.478V238.199H81.5007C81.5007 237.83 81.4268 237.5 81.2791 237.21C81.1342 236.92 80.9268 236.692 80.657 236.524C80.3899 236.357 80.0746 236.273 79.7109 236.273C79.3104 236.273 78.9638 236.372 78.6712 236.571C78.3814 236.767 78.1584 237.023 78.0021 237.338C77.8459 237.653 77.7678 237.991 77.7678 238.352V238.932C77.7678 239.426 77.853 239.845 78.0234 240.189C78.1967 240.53 78.4368 240.79 78.7436 240.969C79.0504 241.145 79.407 241.233 79.8132 241.233C80.0774 241.233 80.3161 241.196 80.5291 241.122C80.745 241.045 80.9311 240.932 81.0874 240.781C81.2436 240.628 81.3643 240.437 81.4496 240.21L82.4212 240.483C82.3189 240.812 82.147 241.102 81.9055 241.352C81.6641 241.599 81.3658 241.793 81.0107 241.932C80.6555 242.068 80.2564 242.136 79.8132 242.136ZM87.9908 242V236.375H86.2521C85.8601 236.375 85.5518 236.466 85.3274 236.648C85.103 236.83 84.9908 237.08 84.9908 237.398C84.9908 237.71 85.0916 237.956 85.2933 238.135C85.4979 238.314 85.7777 238.403 86.1328 238.403H88.2464V239.341H86.1328C85.6896 239.341 85.3075 239.263 84.9865 239.107C84.6655 238.95 84.4183 238.727 84.245 238.438C84.0717 238.145 83.9851 237.798 83.9851 237.398C83.9851 236.994 84.076 236.648 84.2578 236.358C84.4396 236.068 84.6996 235.845 85.0376 235.689C85.3786 235.533 85.7834 235.455 86.2521 235.455H88.9453V242H87.9908ZM83.6271 242L85.4851 238.744H86.576L84.718 242H83.6271Z" fill="#002E50"/>
<path opacity="0.8" d="M49.5852 261.273V270H48.5284V262.21H44.1307V270H43.0739V261.273H49.5852ZM51.0011 270V269.062H51.2397C51.4357 269.062 51.5991 269.024 51.7298 268.947C51.8604 268.868 51.9656 268.73 52.0451 268.534C52.1275 268.335 52.19 268.06 52.2326 267.707C52.2781 267.352 52.3107 266.901 52.3306 266.352L52.4499 263.455H56.8136V270H55.8079V264.392H53.4045L53.3022 266.727C53.2795 267.264 53.2312 267.737 53.1573 268.146C53.0863 268.553 52.9769 268.893 52.8292 269.169C52.6843 269.445 52.4911 269.652 52.2496 269.791C52.0082 269.93 51.7056 270 51.342 270H51.0011ZM61.4031 270.136C60.7724 270.136 60.2283 269.997 59.771 269.719C59.3164 269.438 58.9656 269.045 58.7184 268.543C58.4741 268.037 58.3519 267.449 58.3519 266.778C58.3519 266.108 58.4741 265.517 58.7184 265.006C58.9656 264.491 59.3093 264.091 59.7496 263.804C60.1928 263.514 60.7099 263.369 61.3008 263.369C61.6417 263.369 61.9783 263.426 62.3107 263.54C62.6431 263.653 62.9457 263.838 63.2184 264.094C63.4911 264.347 63.7085 264.682 63.8704 265.099C64.0323 265.517 64.1133 266.031 64.1133 266.642V267.068H59.0678V266.199H63.0906C63.0906 265.83 63.0167 265.5 62.869 265.21C62.7241 264.92 62.5167 264.692 62.2468 264.524C61.9798 264.357 61.6644 264.273 61.3008 264.273C60.9002 264.273 60.5536 264.372 60.261 264.571C59.9712 264.767 59.7482 265.023 59.592 265.338C59.4357 265.653 59.3576 265.991 59.3576 266.352V266.932C59.3576 267.426 59.4428 267.845 59.6133 268.189C59.7866 268.53 60.0266 268.79 60.3335 268.969C60.6403 269.145 60.9968 269.233 61.4031 269.233C61.6673 269.233 61.9059 269.196 62.119 269.122C62.3349 269.045 62.521 268.932 62.6772 268.781C62.8335 268.628 62.9542 268.437 63.0394 268.21L64.011 268.483C63.9087 268.812 63.7369 269.102 63.4954 269.352C63.2539 269.599 62.9556 269.793 62.6005 269.932C62.2454 270.068 61.8462 270.136 61.4031 270.136ZM66.6488 268.517L69.8022 263.455H70.9613V270H69.9556V264.938L66.8192 270H65.6431V263.455H66.6488V268.517ZM69.1374 261.273H70.0749C70.0749 261.733 69.9158 262.109 69.5977 262.402C69.2795 262.695 68.8477 262.841 68.3022 262.841C67.7653 262.841 67.3377 262.695 67.0195 262.402C66.7042 262.109 66.5465 261.733 66.5465 261.273H67.484C67.484 261.494 67.5451 261.689 67.6673 261.857C67.7923 262.024 68.0039 262.108 68.3022 262.108C68.6005 262.108 68.8136 262.024 68.9414 261.857C69.0721 261.689 69.1374 261.494 69.1374 261.273ZM72.2237 270V269.062H72.4624C72.6584 269.062 72.8217 269.024 72.9524 268.947C73.0831 268.868 73.1882 268.73 73.2678 268.534C73.3501 268.335 73.4126 268.06 73.4553 267.707C73.5007 267.352 73.5334 266.901 73.5533 266.352L73.6726 263.455H78.0362V270H77.0305V264.392H74.6271L74.5249 266.727C74.5021 267.264 74.4538 267.737 74.38 268.146C74.3089 268.553 74.1996 268.893 74.0518 269.169C73.907 269.445 73.7138 269.652 73.4723 269.791C73.2308 269.93 72.9283 270 72.5646 270H72.2237ZM80.8871 268.517L84.0405 263.455H85.1996V270H84.1939V264.938L81.0575 270H79.8814V263.455H80.8871V268.517ZM89.7006 270.136C89.087 270.136 88.5586 269.991 88.1154 269.702C87.6722 269.412 87.3313 269.013 87.0927 268.504C86.854 267.996 86.7347 267.415 86.7347 266.761C86.7347 266.097 86.8569 265.51 87.1012 265.001C87.3484 264.49 87.6921 264.091 88.1325 263.804C88.5756 263.514 89.0927 263.369 89.6836 263.369C90.1438 263.369 90.5586 263.455 90.9279 263.625C91.2972 263.795 91.5998 264.034 91.8356 264.341C92.0714 264.648 92.2177 265.006 92.2745 265.415H91.2688C91.1921 265.116 91.0217 264.852 90.7575 264.622C90.4961 264.389 90.1438 264.273 89.7006 264.273C89.3086 264.273 88.9648 264.375 88.6694 264.58C88.3768 264.781 88.1481 265.067 87.9833 265.436C87.8214 265.803 87.7404 266.233 87.7404 266.727C87.7404 267.233 87.82 267.673 87.979 268.048C88.141 268.423 88.3683 268.714 88.6609 268.922C88.9563 269.129 89.3029 269.233 89.7006 269.233C89.962 269.233 90.1992 269.188 90.4123 269.097C90.6254 269.006 90.8058 268.875 90.9535 268.705C91.1012 268.534 91.2063 268.33 91.2688 268.091H92.2745C92.2177 268.477 92.0771 268.825 91.8526 269.135C91.631 269.442 91.337 269.686 90.9705 269.868C90.6069 270.047 90.1836 270.136 89.7006 270.136ZM93.229 264.392V263.455H98.5472V264.392H96.3995V270H95.3938V264.392H93.229ZM100.884 265.824H102.759C103.526 265.824 104.112 266.018 104.518 266.408C104.925 266.797 105.128 267.29 105.128 267.886C105.128 268.278 105.037 268.635 104.855 268.956C104.673 269.274 104.406 269.528 104.054 269.719C103.702 269.906 103.27 270 102.759 270H100.014V263.455H101.02V269.062H102.759C103.156 269.062 103.483 268.957 103.739 268.747C103.994 268.537 104.122 268.267 104.122 267.938C104.122 267.591 103.994 267.308 103.739 267.089C103.483 266.871 103.156 266.761 102.759 266.761H100.884V265.824ZM106.168 270V263.455H107.173V270H106.168Z" fill="#002E50"/>
<path opacity="0.8" d="M50.4205 294.636C50.4205 295.557 50.2543 296.352 49.9219 297.023C49.5895 297.693 49.1335 298.21 48.554 298.574C47.9744 298.938 47.3125 299.119 46.5682 299.119C45.8239 299.119 45.1619 298.938 44.5824 298.574C44.0028 298.21 43.5469 297.693 43.2145 297.023C42.8821 296.352 42.7159 295.557 42.7159 294.636C42.7159 293.716 42.8821 292.92 43.2145 292.25C43.5469 291.58 44.0028 291.062 44.5824 290.699C45.1619 290.335 45.8239 290.153 46.5682 290.153C47.3125 290.153 47.9744 290.335 48.554 290.699C49.1335 291.062 49.5895 291.58 49.9219 292.25C50.2543 292.92 50.4205 293.716 50.4205 294.636ZM49.3977 294.636C49.3977 293.881 49.2713 293.243 49.0185 292.723C48.7685 292.203 48.429 291.81 48 291.543C47.5739 291.276 47.0966 291.142 46.5682 291.142C46.0398 291.142 45.5611 291.276 45.1321 291.543C44.706 291.81 44.3665 292.203 44.1136 292.723C43.8636 293.243 43.7386 293.881 43.7386 294.636C43.7386 295.392 43.8636 296.03 44.1136 296.55C44.3665 297.07 44.706 297.463 45.1321 297.73C45.5611 297.997 46.0398 298.131 46.5682 298.131C47.0966 298.131 47.5739 297.997 48 297.73C48.429 297.463 48.7685 297.07 49.0185 296.55C49.2713 296.03 49.3977 295.392 49.3977 294.636ZM51.6861 293.392V292.455H57.0043V293.392H54.8565V299H53.8509V293.392H51.6861ZM63.1768 292.455V299H62.1712V292.455H63.1768ZM62.7848 295.574V296.511C62.5575 296.597 62.3317 296.672 62.1072 296.737C61.8828 296.8 61.647 296.849 61.3999 296.886C61.1527 296.92 60.8814 296.938 60.5859 296.938C59.8445 296.938 59.2493 296.737 58.8004 296.337C58.3544 295.936 58.1314 295.335 58.1314 294.534V292.438H59.1371V294.534C59.1371 294.869 59.201 295.145 59.3288 295.361C59.4567 295.577 59.63 295.737 59.8487 295.842C60.0675 295.947 60.3132 296 60.5859 296C61.0121 296 61.397 295.962 61.7408 295.885C62.0874 295.805 62.4354 295.702 62.7848 295.574ZM67.7663 299.136C67.1357 299.136 66.5916 298.997 66.1342 298.719C65.6797 298.438 65.3288 298.045 65.0817 297.543C64.8374 297.037 64.7152 296.449 64.7152 295.778C64.7152 295.108 64.8374 294.517 65.0817 294.006C65.3288 293.491 65.6726 293.091 66.1129 292.804C66.5561 292.514 67.0732 292.369 67.6641 292.369C68.005 292.369 68.3416 292.426 68.674 292.54C69.0064 292.653 69.3089 292.838 69.5817 293.094C69.8544 293.347 70.0717 293.682 70.2337 294.099C70.3956 294.517 70.4766 295.031 70.4766 295.642V296.068H65.4311V295.199H69.4538C69.4538 294.83 69.38 294.5 69.2322 294.21C69.0874 293.92 68.88 293.692 68.6101 293.524C68.343 293.357 68.0277 293.273 67.6641 293.273C67.2635 293.273 66.9169 293.372 66.6243 293.571C66.3345 293.767 66.1115 294.023 65.9553 294.338C65.799 294.653 65.7209 294.991 65.7209 295.352V295.932C65.7209 296.426 65.8061 296.845 65.9766 297.189C66.1499 297.53 66.3899 297.79 66.6967 297.969C67.0036 298.145 67.3601 298.233 67.7663 298.233C68.0305 298.233 68.2692 298.196 68.4822 298.122C68.6982 298.045 68.8842 297.932 69.0405 297.781C69.1967 297.628 69.3175 297.437 69.4027 297.21L70.3743 297.483C70.272 297.812 70.1001 298.102 69.8587 298.352C69.6172 298.599 69.3189 298.793 68.9638 298.932C68.6087 299.068 68.2095 299.136 67.7663 299.136ZM71.397 293.392V292.455H76.7152V293.392H74.5675V299H73.5618V293.392H71.397Z" fill="#002E50"/>
<path opacity="0.8" d="M62.9775 104.273H64.0343V110.051C64.0343 110.648 63.8936 111.18 63.6124 111.649C63.334 112.115 62.9405 112.483 62.432 112.753C61.9235 113.02 61.3269 113.153 60.6422 113.153C59.9576 113.153 59.361 113.02 58.8525 112.753C58.3439 112.483 57.949 112.115 57.6678 111.649C57.3894 111.18 57.2502 110.648 57.2502 110.051V104.273H58.307V109.966C58.307 110.392 58.4007 110.771 58.5882 111.104C58.7757 111.433 59.0428 111.693 59.3894 111.884C59.7388 112.071 60.1564 112.165 60.6422 112.165C61.128 112.165 61.5456 112.071 61.8951 111.884C62.2445 111.693 62.5115 111.433 62.6962 111.104C62.8837 110.771 62.9775 110.392 62.9775 109.966V104.273ZM70.6447 107.92L69.7413 108.176C69.6845 108.026 69.6007 107.879 69.4899 107.737C69.3819 107.592 69.2342 107.473 69.0467 107.379C68.8592 107.286 68.6191 107.239 68.3265 107.239C67.926 107.239 67.5922 107.331 67.3251 107.516C67.0609 107.697 66.9288 107.929 66.9288 108.21C66.9288 108.46 67.0197 108.658 67.2015 108.803C67.3833 108.947 67.6674 109.068 68.0538 109.165L69.0254 109.403C69.6106 109.545 70.0467 109.763 70.3336 110.055C70.6206 110.345 70.764 110.719 70.764 111.176C70.764 111.551 70.6561 111.886 70.4402 112.182C70.2271 112.477 69.9288 112.71 69.5453 112.881C69.1618 113.051 68.7157 113.136 68.2072 113.136C67.5396 113.136 66.987 112.991 66.5495 112.702C66.112 112.412 65.835 111.989 65.7186 111.432L66.6731 111.193C66.764 111.545 66.9359 111.81 67.1887 111.986C67.4444 112.162 67.7782 112.25 68.1902 112.25C68.6589 112.25 69.0311 112.151 69.3066 111.952C69.585 111.75 69.7243 111.509 69.7243 111.227C69.7243 111 69.6447 110.81 69.4856 110.656C69.3265 110.5 69.0822 110.384 68.7527 110.307L67.6618 110.051C67.0623 109.909 66.622 109.689 66.3407 109.391C66.0623 109.089 65.9231 108.713 65.9231 108.261C65.9231 107.892 66.0268 107.565 66.2342 107.281C66.4444 106.997 66.7299 106.774 67.0907 106.612C67.4544 106.45 67.8663 106.369 68.3265 106.369C68.9743 106.369 69.4828 106.511 69.8521 106.795C70.2243 107.08 70.4885 107.455 70.6447 107.92ZM75.0222 113.136C74.3915 113.136 73.8475 112.997 73.3901 112.719C72.9355 112.438 72.5847 112.045 72.3375 111.543C72.0932 111.037 71.9711 110.449 71.9711 109.778C71.9711 109.108 72.0932 108.517 72.3375 108.006C72.5847 107.491 72.9284 107.091 73.3688 106.804C73.812 106.514 74.329 106.369 74.9199 106.369C75.2608 106.369 75.5975 106.426 75.9299 106.54C76.2623 106.653 76.5648 106.838 76.8375 107.094C77.1103 107.347 77.3276 107.682 77.4895 108.099C77.6515 108.517 77.7324 109.031 77.7324 109.642V110.068H72.687V109.199H76.7097C76.7097 108.83 76.6358 108.5 76.4881 108.21C76.3432 107.92 76.1358 107.692 75.8659 107.524C75.5989 107.357 75.2836 107.273 74.9199 107.273C74.5194 107.273 74.1728 107.372 73.8801 107.571C73.5904 107.767 73.3674 108.023 73.2111 108.338C73.0549 108.653 72.9767 108.991 72.9767 109.352V109.932C72.9767 110.426 73.062 110.845 73.2324 111.189C73.4057 111.53 73.6458 111.79 73.9526 111.969C74.2594 112.145 74.6159 112.233 75.0222 112.233C75.2864 112.233 75.525 112.196 75.7381 112.122C75.954 112.045 76.1401 111.932 76.2963 111.781C76.4526 111.628 76.5733 111.437 76.6586 111.21L77.6301 111.483C77.5279 111.812 77.356 112.102 77.1145 112.352C76.873 112.599 76.5748 112.793 76.2196 112.932C75.8645 113.068 75.4654 113.136 75.0222 113.136ZM79.2623 113V106.455H80.2338V107.443H80.302C80.4213 107.119 80.6373 106.857 80.9498 106.655C81.2623 106.453 81.6145 106.352 82.0066 106.352C82.0804 106.352 82.1728 106.354 82.2836 106.357C82.3944 106.359 82.4782 106.364 82.535 106.369V107.392C82.5009 107.384 82.4228 107.371 82.3006 107.354C82.1813 107.334 82.0549 107.324 81.9213 107.324C81.6032 107.324 81.3191 107.391 81.0691 107.524C80.8219 107.655 80.6259 107.837 80.481 108.07C80.339 108.3 80.2679 108.562 80.2679 108.858V113H79.2623Z" fill="#002E50"/>
<g clip-path="url(#clip0_54919_1267)">
<path d="M64.015 24.4799H61.0187C60.9617 24.4796 60.906 24.4967 60.8591 24.529C60.8122 24.5612 60.7762 24.6071 60.7561 24.6604L58.4588 30.8959L56.2403 24.6604C56.2208 24.6065 56.185 24.5599 56.1381 24.527C56.0911 24.4941 56.0351 24.4765 55.9778 24.4766H52.906C52.8597 24.4759 52.8141 24.487 52.7733 24.5088C52.7325 24.5306 52.698 24.5624 52.6729 24.6013C52.647 24.6394 52.631 24.6834 52.6264 24.7292C52.6218 24.7751 52.6288 24.8214 52.6467 24.8639L57.0181 35.2804C57.0399 35.3311 57.0761 35.3743 57.1222 35.4046C57.1683 35.4349 57.2222 35.4511 57.2774 35.4511H59.4237C59.4776 35.4509 59.5302 35.435 59.5751 35.4052C59.62 35.3755 59.6552 35.3333 59.6764 35.2837L64.271 24.8671C64.2903 24.825 64.2987 24.7786 64.2953 24.7324C64.292 24.6861 64.277 24.6414 64.2518 24.6025C64.2266 24.5636 64.192 24.5316 64.1512 24.5096C64.1104 24.4876 64.0647 24.4762 64.0183 24.4766L64.015 24.4799Z" fill="#002E50"/>
<path d="M69.0888 24.4796H66.2926C66.2186 24.4796 66.1477 24.509 66.0954 24.5613C66.0431 24.6136 66.0137 24.6846 66.0137 24.7586V34.9323C66.0137 35.0681 66.0676 35.1983 66.1636 35.2943C66.2596 35.3903 66.3899 35.4443 66.5256 35.4443H68.859C68.9948 35.4443 69.125 35.3903 69.221 35.2943C69.3171 35.1983 69.371 35.0681 69.371 34.9323V24.7586C69.3701 24.6843 69.34 24.6133 69.2872 24.5611C69.2343 24.5089 69.1631 24.4796 69.0888 24.4796Z" fill="#002E50"/>
<path d="M86.0731 24.4796H83.277C83.1229 24.4796 82.998 24.6045 82.998 24.7586V35.1752C82.998 35.3292 83.1229 35.4541 83.277 35.4541H86.0731C86.2272 35.4541 86.3521 35.3292 86.3521 35.1752V24.7586C86.3521 24.6045 86.2272 24.4796 86.0731 24.4796Z" fill="#002E50"/>
<path d="M111.189 26.3336C110.933 25.6847 110.472 25.1372 109.876 24.7747C109.229 24.4157 108.496 24.2388 107.756 24.2628C107.598 24.2628 107.428 24.2628 107.274 24.2792C107.051 24.2937 106.83 24.3345 106.617 24.4006C105.925 24.6054 105.286 24.9606 104.747 25.4409L104.72 24.7485C104.717 24.6765 104.686 24.6085 104.634 24.5585C104.582 24.5084 104.513 24.4801 104.441 24.4794H101.763C101.689 24.4794 101.618 24.5088 101.566 24.5611C101.514 24.6134 101.484 24.6843 101.484 24.7583V35.1716C101.484 35.2456 101.514 35.3166 101.566 35.3689C101.618 35.4212 101.689 35.4506 101.763 35.4506H104.559C104.633 35.4506 104.704 35.4212 104.757 35.3689C104.809 35.3166 104.838 35.2456 104.838 35.1716V28.9131C104.835 28.6864 104.883 28.4619 104.98 28.2568C105.076 28.0513 105.209 27.8655 105.373 27.7087C105.541 27.5463 105.743 27.423 105.964 27.3477C106.22 27.2561 106.49 27.2116 106.762 27.2164H106.916C107.154 27.209 107.39 27.2633 107.602 27.374C107.825 27.5037 107.996 27.7083 108.084 27.9516C108.213 28.2954 108.273 28.6611 108.261 29.028V35.1716C108.261 35.2456 108.291 35.3166 108.343 35.3689C108.395 35.4212 108.466 35.4506 108.54 35.4506H111.336C111.41 35.4506 111.481 35.4212 111.534 35.3689C111.586 35.3166 111.615 35.2456 111.615 35.1716V28.795C111.638 27.9544 111.493 27.1177 111.189 26.3336Z" fill="#002E50"/>
<path d="M77.9311 28.697L76.0244 28.313C74.8921 28.0669 74.8987 27.7026 74.902 27.5221C74.9009 27.4489 74.9153 27.3763 74.9441 27.309C74.9729 27.2418 75.0156 27.1813 75.0693 27.1316C75.398 26.8647 75.8151 26.7311 76.2377 26.7574C76.963 26.7574 77.5077 27.0856 77.6948 27.6403C77.7128 27.6957 77.748 27.7439 77.7951 27.7781C77.8423 27.8123 77.8991 27.8307 77.9574 27.8306H80.6911C80.7321 27.8307 80.7726 27.8218 80.8099 27.8046C80.8471 27.7875 80.8801 27.7624 80.9067 27.7312C80.9332 27.6999 80.9526 27.6633 80.9636 27.6238C80.9746 27.5843 80.9768 27.5429 80.9701 27.5024C80.678 25.343 78.9386 24.1057 76.1917 24.1057C74.5508 24.1057 73.1757 24.5685 72.3421 25.4185C72.045 25.7161 71.8111 26.0707 71.6543 26.4609C71.4975 26.8512 71.4212 27.269 71.4298 27.6895C71.4298 29.4387 72.5259 30.548 74.7116 30.9713L76.5429 31.3356C77.5274 31.5358 77.6686 31.8607 77.6751 32.1101C77.6751 32.5827 77.0713 32.9109 76.2311 32.9109C75.6371 32.9109 74.879 32.7501 74.6328 31.9789C74.6143 31.9229 74.5787 31.8741 74.5311 31.8393C74.4834 31.8046 74.426 31.7857 74.367 31.7852H71.433C71.3932 31.7845 71.3536 31.7927 71.3173 31.8092C71.281 31.8256 71.2488 31.85 71.223 31.8804C71.1965 31.9106 71.1768 31.9462 71.1655 31.9847C71.1542 32.0233 71.1514 32.0638 71.1574 32.1036C71.4856 34.2827 73.3661 35.5823 76.2245 35.5823C79.1552 35.5823 81.2064 34.0366 81.213 31.8181C81.2064 30.1738 80.1332 29.1466 77.9311 28.697Z" fill="#002E50"/>
<path d="M96.9056 24.9981C95.9909 24.5089 94.9696 24.2529 93.9323 24.2529C92.8949 24.2529 91.8736 24.5089 90.9589 24.9981C90.1032 25.4772 89.389 26.1734 88.8881 27.0165C88.3743 27.9066 88.1123 28.9196 88.13 29.9472C88.1101 30.9823 88.3721 32.0033 88.8881 32.9008C89.3846 33.7493 90.1013 34.4478 90.9622 34.9224C91.8783 35.4053 92.8983 35.6577 93.9339 35.6577C94.9695 35.6577 95.9895 35.4053 96.9056 34.9224C97.7646 34.4472 98.4782 33.7472 98.9699 32.8975C99.4754 32.0035 99.7326 30.9905 99.7149 29.9636C99.7343 28.9381 99.4757 27.9265 98.9666 27.0362C98.4746 26.1845 97.7628 25.4806 96.9056 24.9981ZM96.6792 27.2199V32.7466H91.1657V27.2298L96.6792 27.2199Z" fill="#002E50"/>
<path d="M68.7727 20.3282C68.4502 20.1183 68.0745 20.0044 67.6897 20C67.3737 20.0003 67.0636 20.0855 66.7917 20.2465C66.5198 20.4076 66.2961 20.6387 66.144 20.9156C65.9844 21.2163 65.9108 21.5552 65.931 21.895C65.9513 22.2348 66.0647 22.5625 66.2588 22.8421C66.3457 22.9816 66.4623 23.1004 66.6001 23.19C66.9218 23.3993 67.2962 23.5131 67.6799 23.5181C67.9955 23.5178 68.3053 23.433 68.5771 23.2726C68.8489 23.1122 69.0728 22.8819 69.2256 22.6058C69.3851 22.3045 69.4587 21.9651 69.4384 21.6248C69.4182 21.2845 69.3048 20.9563 69.1108 20.6761C69.0224 20.5387 68.9075 20.4204 68.7727 20.3282Z" fill="#002E50"/>
<path d="M85.7582 20.3282C85.4357 20.1183 85.06 20.0044 84.6752 20C84.3592 20.0003 84.0491 20.0855 83.7772 20.2465C83.5053 20.4076 83.2816 20.6387 83.1294 20.9156C82.9692 21.2161 82.8951 21.5551 82.9154 21.895C82.9357 22.235 83.0495 22.5627 83.2443 22.8421C83.3337 22.9839 83.4537 23.1039 83.5955 23.1932C83.9171 23.4026 84.2915 23.5164 84.6752 23.5214C84.9917 23.5213 85.3024 23.4363 85.5748 23.2753C85.8473 23.1142 86.0716 22.883 86.2242 22.6058C86.3839 22.3044 86.4574 21.9648 86.4366 21.6243C86.4157 21.2838 86.3014 20.9557 86.1061 20.6761C86.0161 20.5368 85.8975 20.4182 85.7582 20.3282Z" fill="#002E50"/>
<path d="M36.2523 24.3846H33.4529C33.3789 24.3846 33.3079 24.414 33.2556 24.4663C33.2033 24.5186 33.1739 24.5896 33.1739 24.6636V25.2904C33.0361 25.1952 32.9048 25.1132 32.7703 25.0344C31.8669 24.5344 30.8491 24.2777 29.8166 24.2895C28.7743 24.2743 27.7461 24.531 26.8334 25.0344C25.9757 25.5149 25.2602 26.2134 24.7593 27.0593C24.2451 27.9492 23.983 28.9624 24.0012 29.99C23.9803 31.0252 24.2424 32.0465 24.7593 32.9437C25.2558 33.7922 25.9725 34.4907 26.8334 34.9653C27.7476 35.464 28.7754 35.7173 29.8166 35.7004C30.848 35.7138 31.8654 35.4606 32.7703 34.9653C32.9546 34.8679 33.1322 34.7582 33.3019 34.6371L33.3314 35.2147C33.3348 35.2864 33.3657 35.354 33.4177 35.4035C33.4696 35.4531 33.5386 35.4806 33.6104 35.4806H36.2359C36.3099 35.4806 36.3808 35.4512 36.4331 35.3988C36.4854 35.3465 36.5148 35.2756 36.5148 35.2016V24.6702C36.5167 24.5978 36.4903 24.5276 36.4413 24.4743C36.3923 24.421 36.3245 24.3889 36.2523 24.3846ZM32.8917 27.23V32.7468H27.3749V27.23H32.8917Z" fill="#002E50"/>
<path fill-rule="evenodd" clip-rule="evenodd" d="M47.8394 20.3246H50.6355C50.7075 20.3279 50.7755 20.3587 50.8255 20.4106C50.8756 20.4624 50.9039 20.5315 50.9046 20.6035V35.2012C50.9037 35.2755 50.8736 35.3464 50.8208 35.3987C50.768 35.4509 50.6967 35.4802 50.6224 35.4802H47.9969C47.9257 35.4794 47.8575 35.4514 47.8062 35.402C47.755 35.3526 47.7246 35.2854 47.7212 35.2143L47.6917 34.6367C47.5208 34.7579 47.3421 34.8675 47.1567 34.9649C46.24 35.4478 45.2195 35.7001 44.1834 35.7001C43.1473 35.7001 42.1267 35.4478 41.21 34.9649C40.3482 34.4903 39.6305 33.7919 39.1326 32.9433C38.6173 32.0455 38.3553 31.0246 38.3745 29.9896C38.3513 28.9841 38.6028 27.9914 39.1018 27.1182C39.6009 26.245 40.3286 25.5244 41.2068 25.034C42.1226 24.5448 43.145 24.2888 44.1834 24.2888C45.2218 24.2888 46.2441 24.5448 47.16 25.034C47.2946 25.1128 47.4259 25.1948 47.5604 25.29V20.6035C47.5613 20.5298 47.5909 20.4594 47.6431 20.4072C47.6952 20.3551 47.7656 20.3254 47.8394 20.3246ZM41.6763 27.2326H47.1931V32.7493H41.6763V27.2326Z" fill="#002E50"/>
</g>
<rect x="0.5" y="0.5" width="576" height="334" rx="9.5" stroke="#002E50"/>
<rect x="136" y="1" width="1" height="334" fill="#002E50"/>
<circle cx="69" cy="81" r="17" fill="#002E50"/>
<circle cx="28.5" cy="182.5" r="2.5" fill="#002E50"/>
<circle cx="28.5" cy="210.5" r="2.5" fill="#002E50"/>
<circle cx="28.5" cy="238.5" r="2.5" fill="#002E50"/>
<circle cx="28.5" cy="266.5" r="2.5" fill="#002E50"/>
<circle cx="28.5" cy="294.5" r="2.5" fill="#002E50"/>
<rect x="154" y="64" width="402" height="239" fill="#CFEC52"/>
<path opacity="0.8" d="M166.799 85V77.7273H169.391C169.957 77.7273 170.426 77.8303 170.798 78.0362C171.169 78.2422 171.447 78.5239 171.632 78.8814C171.817 79.2365 171.909 79.6366 171.909 80.0817C171.909 80.5291 171.816 80.9316 171.629 81.2891C171.444 81.6442 171.165 81.9259 170.79 82.1342C170.419 82.3402 169.951 82.4432 169.388 82.4432H167.605V81.5128H169.288C169.646 81.5128 169.936 81.4512 170.158 81.3281C170.381 81.2027 170.544 81.0322 170.648 80.8168C170.753 80.6013 170.805 80.3563 170.805 80.0817C170.805 79.8071 170.753 79.5632 170.648 79.3501C170.544 79.1371 170.38 78.9702 170.155 78.8494C169.932 78.7287 169.639 78.6683 169.274 78.6683H167.896V85H166.799ZM174.649 85.1207C174.303 85.1207 173.991 85.0568 173.711 84.929C173.432 84.7988 173.211 84.6106 173.047 84.3643C172.886 84.1181 172.806 83.8163 172.806 83.4588C172.806 83.151 172.865 82.8977 172.983 82.6989C173.102 82.5 173.261 82.3426 173.463 82.2266C173.664 82.1106 173.889 82.023 174.137 81.9638C174.386 81.9046 174.639 81.8596 174.897 81.8288C175.224 81.791 175.489 81.7602 175.693 81.7365C175.896 81.7105 176.044 81.669 176.137 81.6122C176.229 81.5554 176.275 81.4631 176.275 81.3352V81.3104C176.275 81.0002 176.188 80.7599 176.012 80.5895C175.84 80.419 175.582 80.3338 175.238 80.3338C174.881 80.3338 174.599 80.4131 174.393 80.5717C174.19 80.728 174.049 80.902 173.971 81.0938L172.973 80.8665C173.091 80.535 173.264 80.2675 173.491 80.0639C173.721 79.858 173.985 79.7088 174.283 79.6165C174.581 79.5218 174.895 79.4744 175.224 79.4744C175.442 79.4744 175.673 79.5005 175.917 79.5526C176.163 79.6023 176.392 79.6946 176.605 79.8295C176.821 79.9645 176.997 80.1574 177.135 80.4084C177.272 80.657 177.341 80.9801 177.341 81.3778V85H176.304V84.2543H176.261C176.192 84.3916 176.089 84.5265 175.952 84.6591C175.815 84.7917 175.638 84.9018 175.423 84.9893C175.208 85.0769 174.949 85.1207 174.649 85.1207ZM174.88 84.2685C175.173 84.2685 175.424 84.2105 175.632 84.0945C175.843 83.9785 176.003 83.8269 176.112 83.6399C176.223 83.4505 176.279 83.2481 176.279 83.0327V82.3295C176.241 82.3674 176.167 82.4029 176.059 82.4361C175.952 82.4669 175.83 82.4941 175.693 82.5178C175.556 82.5391 175.422 82.5592 175.292 82.5781C175.161 82.5947 175.052 82.6089 174.965 82.6207C174.759 82.6468 174.571 82.6906 174.4 82.7521C174.232 82.8137 174.097 82.9025 173.995 83.0185C173.896 83.1321 173.846 83.2836 173.846 83.473C173.846 83.7358 173.943 83.9347 174.137 84.0696C174.332 84.2022 174.579 84.2685 174.88 84.2685ZM181.052 85.1101C180.524 85.1101 180.07 84.9905 179.689 84.7514C179.31 84.5099 179.019 84.1773 178.815 83.7536C178.612 83.3298 178.51 82.8445 178.51 82.2976C178.51 81.7436 178.614 81.2547 178.822 80.831C179.031 80.4048 179.324 80.0722 179.703 79.8331C180.082 79.594 180.528 79.4744 181.042 79.4744C181.456 79.4744 181.825 79.5514 182.15 79.7053C182.474 79.8568 182.736 80.0698 182.934 80.3445C183.136 80.6191 183.255 80.9399 183.293 81.3068H182.26C182.203 81.0511 182.073 80.831 181.869 80.6463C181.668 80.4616 181.398 80.3693 181.059 80.3693C180.764 80.3693 180.504 80.4474 180.282 80.6037C180.062 80.7576 179.89 80.9777 179.767 81.2642C179.644 81.5483 179.582 81.8845 179.582 82.2727C179.582 82.6705 179.643 83.0137 179.763 83.3026C179.884 83.5914 180.055 83.8151 180.275 83.9737C180.497 84.1323 180.759 84.2116 181.059 84.2116C181.261 84.2116 181.443 84.175 181.606 84.1016C181.772 84.0258 181.911 83.9181 182.022 83.7784C182.135 83.6387 182.215 83.4706 182.26 83.2741H183.293C183.255 83.6269 183.14 83.9418 182.949 84.2188C182.757 84.4957 182.5 84.7135 182.178 84.8722C181.858 85.0308 181.483 85.1101 181.052 85.1101ZM184.429 85V79.5455H188.878V85H187.838V80.4616H185.462V85H184.429ZM191.338 83.5121L193.742 79.5455H194.886V85H193.845V81.0298L191.452 85H190.298V79.5455H191.338V83.5121ZM198.611 85.1101C198.083 85.1101 197.628 84.9905 197.247 84.7514C196.869 84.5099 196.577 84.1773 196.374 83.7536C196.17 83.3298 196.068 82.8445 196.068 82.2976C196.068 81.7436 196.173 81.2547 196.381 80.831C196.589 80.4048 196.883 80.0722 197.262 79.8331C197.64 79.594 198.087 79.4744 198.6 79.4744C199.015 79.4744 199.384 79.5514 199.708 79.7053C200.033 79.8568 200.294 80.0698 200.493 80.3445C200.694 80.6191 200.814 80.9399 200.852 81.3068H199.818C199.762 81.0511 199.631 80.831 199.428 80.6463C199.227 80.4616 198.957 80.3693 198.618 80.3693C198.322 80.3693 198.063 80.4474 197.84 80.6037C197.62 80.7576 197.449 80.9777 197.325 81.2642C197.202 81.5483 197.141 81.8845 197.141 82.2727C197.141 82.6705 197.201 83.0137 197.322 83.3026C197.443 83.5914 197.613 83.8151 197.833 83.9737C198.056 84.1323 198.317 84.2116 198.618 84.2116C198.819 84.2116 199.002 84.175 199.165 84.1016C199.331 84.0258 199.469 83.9181 199.58 83.7784C199.694 83.6387 199.773 83.4706 199.818 83.2741H200.852C200.814 83.6269 200.699 83.9418 200.507 84.2188C200.316 84.4957 200.059 84.7135 199.737 84.8722C199.417 85.0308 199.042 85.1101 198.611 85.1101ZM203.575 85.1207C203.229 85.1207 202.916 85.0568 202.637 84.929C202.358 84.7988 202.136 84.6106 201.973 84.3643C201.812 84.1181 201.732 83.8163 201.732 83.4588C201.732 83.151 201.791 82.8977 201.909 82.6989C202.027 82.5 202.187 82.3426 202.388 82.2266C202.59 82.1106 202.815 82.023 203.063 81.9638C203.312 81.9046 203.565 81.8596 203.823 81.8288C204.15 81.791 204.415 81.7602 204.619 81.7365C204.822 81.7105 204.97 81.669 205.062 81.6122C205.155 81.5554 205.201 81.4631 205.201 81.3352V81.3104C205.201 81.0002 205.113 80.7599 204.938 80.5895C204.765 80.419 204.507 80.3338 204.164 80.3338C203.807 80.3338 203.525 80.4131 203.319 80.5717C203.115 80.728 202.974 80.902 202.896 81.0938L201.898 80.8665C202.017 80.535 202.19 80.2675 202.417 80.0639C202.647 79.858 202.911 79.7088 203.209 79.6165C203.507 79.5218 203.821 79.4744 204.15 79.4744C204.368 79.4744 204.598 79.5005 204.842 79.5526C205.089 79.6023 205.318 79.6946 205.531 79.8295C205.747 79.9645 205.923 80.1574 206.06 80.4084C206.198 80.657 206.266 80.9801 206.266 81.3778V85H205.229V84.2543H205.187C205.118 84.3916 205.015 84.5265 204.878 84.6591C204.741 84.7917 204.564 84.9018 204.349 84.9893C204.133 85.0769 203.875 85.1207 203.575 85.1207ZM203.805 84.2685C204.099 84.2685 204.35 84.2105 204.558 84.0945C204.769 83.9785 204.929 83.8269 205.038 83.6399C205.149 83.4505 205.205 83.2481 205.205 83.0327V82.3295C205.167 82.3674 205.093 82.4029 204.984 82.4361C204.878 82.4669 204.756 82.4941 204.619 82.5178C204.481 82.5391 204.348 82.5592 204.217 82.5781C204.087 82.5947 203.978 82.6089 203.891 82.6207C203.685 82.6468 203.496 82.6906 203.326 82.7521C203.158 82.8137 203.023 82.9025 202.921 83.0185C202.822 83.1321 202.772 83.2836 202.772 83.473C202.772 83.7358 202.869 83.9347 203.063 84.0696C203.257 84.2022 203.505 84.2685 203.805 84.2685ZM211.377 81.8146V82.7344H208.423V81.8146H211.377ZM208.721 79.5455V85H207.681V79.5455H208.721ZM212.119 79.5455V85H211.083V79.5455H212.119ZM214.58 83.5121L216.985 79.5455H218.128V85H217.088V81.0298L214.694 85H213.54V79.5455H214.58V83.5121ZM221.906 85.1101C221.369 85.1101 220.906 84.9953 220.518 84.7656C220.132 84.5336 219.834 84.2081 219.623 83.7891C219.415 83.3677 219.311 82.8741 219.311 82.3082C219.311 81.7495 219.415 81.2571 219.623 80.831C219.834 80.4048 220.127 80.0722 220.504 79.8331C220.883 79.594 221.325 79.4744 221.832 79.4744C222.14 79.4744 222.438 79.5253 222.727 79.6271C223.016 79.7289 223.275 79.8887 223.504 80.1065C223.734 80.3243 223.915 80.6072 224.048 80.9553C224.18 81.3009 224.247 81.7211 224.247 82.2159V82.5923H219.911V81.7969H223.206C223.206 81.5175 223.149 81.2701 223.036 81.0547C222.922 80.8369 222.762 80.6652 222.556 80.5398C222.353 80.4143 222.114 80.3516 221.839 80.3516C221.541 80.3516 221.28 80.425 221.058 80.5717C220.838 80.7161 220.667 80.9055 220.546 81.1399C220.428 81.3719 220.369 81.6241 220.369 81.8963V82.5178C220.369 82.8823 220.433 83.1925 220.561 83.4482C220.691 83.7038 220.872 83.8991 221.104 84.0341C221.336 84.1667 221.607 84.233 221.917 84.233C222.118 84.233 222.302 84.2045 222.468 84.1477C222.633 84.0885 222.776 84.0009 222.897 83.8849C223.018 83.7689 223.11 83.6257 223.174 83.4553L224.179 83.6364C224.099 83.9323 223.954 84.1915 223.746 84.4141C223.54 84.6342 223.281 84.8059 222.968 84.929C222.658 85.0497 222.304 85.1101 221.906 85.1101Z" fill="#002E50"/>
<path opacity="0.8" d="M166.7 216V215.205L169.161 212.655C169.423 212.378 169.64 212.135 169.81 211.927C169.983 211.716 170.112 211.516 170.197 211.327C170.283 211.137 170.325 210.936 170.325 210.723C170.325 210.482 170.268 210.273 170.155 210.098C170.041 209.92 169.886 209.784 169.69 209.69C169.493 209.593 169.272 209.544 169.026 209.544C168.765 209.544 168.538 209.597 168.344 209.704C168.15 209.81 168 209.961 167.896 210.155C167.792 210.349 167.74 210.576 167.74 210.837H166.692C166.692 210.394 166.794 210.007 166.998 209.675C167.201 209.344 167.481 209.087 167.836 208.905C168.191 208.72 168.595 208.628 169.047 208.628C169.504 208.628 169.906 208.719 170.254 208.901C170.605 209.081 170.878 209.327 171.075 209.64C171.271 209.95 171.369 210.3 171.369 210.691C171.369 210.961 171.318 211.225 171.217 211.483C171.117 211.741 170.943 212.029 170.695 212.346C170.446 212.661 170.1 213.043 169.658 213.493L168.212 215.006V215.059H171.487V216H166.7ZM175.29 216.099C174.781 216.099 174.331 216.012 173.94 215.837C173.552 215.661 173.248 215.42 173.028 215.112C172.808 214.804 172.699 214.454 172.701 214.061C172.699 213.753 172.761 213.47 172.889 213.212C173.019 212.952 173.196 212.735 173.418 212.562C173.641 212.387 173.889 212.276 174.164 212.229V212.186C173.802 212.098 173.512 211.904 173.294 211.604C173.076 211.303 172.969 210.957 172.971 210.567C172.969 210.195 173.067 209.864 173.266 209.572C173.467 209.279 173.743 209.048 174.093 208.88C174.443 208.712 174.842 208.628 175.29 208.628C175.732 208.628 176.128 208.713 176.476 208.884C176.826 209.052 177.102 209.282 177.303 209.576C177.504 209.867 177.606 210.197 177.609 210.567C177.606 210.957 177.495 211.303 177.275 211.604C177.055 211.904 176.768 212.098 176.415 212.186V212.229C176.688 212.276 176.933 212.387 177.151 212.562C177.371 212.735 177.546 212.952 177.676 213.212C177.809 213.47 177.876 213.753 177.879 214.061C177.876 214.454 177.765 214.804 177.545 215.112C177.325 215.42 177.019 215.661 176.629 215.837C176.24 216.012 175.794 216.099 175.29 216.099ZM175.29 215.201C175.59 215.201 175.851 215.151 176.071 215.052C176.291 214.95 176.462 214.809 176.582 214.629C176.703 214.447 176.765 214.234 176.767 213.99C176.765 213.737 176.698 213.513 176.568 213.319C176.44 213.125 176.266 212.972 176.046 212.861C175.826 212.75 175.574 212.694 175.29 212.694C175.003 212.694 174.749 212.75 174.526 212.861C174.304 212.972 174.129 213.125 174.001 213.319C173.873 213.513 173.81 213.737 173.812 213.99C173.81 214.234 173.868 214.447 173.987 214.629C174.107 214.809 174.279 214.95 174.501 215.052C174.724 215.151 174.987 215.201 175.29 215.201ZM175.29 211.817C175.531 211.817 175.746 211.768 175.933 211.671C176.12 211.574 176.266 211.439 176.373 211.266C176.482 211.094 176.537 210.891 176.54 210.659C176.537 210.432 176.483 210.233 176.376 210.062C176.272 209.892 176.127 209.761 175.94 209.668C175.753 209.574 175.536 209.526 175.29 209.526C175.039 209.526 174.819 209.574 174.629 209.668C174.442 209.761 174.297 209.892 174.192 210.062C174.088 210.233 174.037 210.432 174.04 210.659C174.037 210.891 174.089 211.094 174.196 211.266C174.303 211.439 174.449 211.574 174.636 211.671C174.826 211.768 175.044 211.817 175.29 211.817ZM181.935 208.386L179.591 217.094H178.643L180.987 208.386H181.935ZM185.355 216.121C184.794 216.118 184.314 215.97 183.916 215.677C183.519 215.383 183.214 214.956 183.004 214.395C182.793 213.834 182.688 213.158 182.688 212.367C182.688 211.579 182.793 210.905 183.004 210.347C183.217 209.788 183.522 209.362 183.92 209.068C184.32 208.775 184.798 208.628 185.355 208.628C185.911 208.628 186.388 208.776 186.786 209.072C187.183 209.365 187.488 209.791 187.698 210.35C187.911 210.906 188.018 211.579 188.018 212.367C188.018 213.16 187.913 213.837 187.702 214.398C187.491 214.957 187.187 215.384 186.789 215.68C186.392 215.974 185.913 216.121 185.355 216.121ZM185.355 215.173C185.847 215.173 186.232 214.932 186.509 214.452C186.788 213.971 186.928 213.276 186.928 212.367C186.928 211.763 186.864 211.253 186.736 210.837C186.61 210.418 186.429 210.1 186.193 209.885C185.958 209.667 185.679 209.558 185.355 209.558C184.865 209.558 184.48 209.8 184.2 210.283C183.921 210.766 183.78 211.46 183.778 212.367C183.778 212.973 183.841 213.486 183.966 213.905C184.094 214.321 184.275 214.638 184.509 214.853C184.744 215.066 185.026 215.173 185.355 215.173ZM189.125 214.58V213.692L192.268 208.727H192.967V210.034H192.523L190.276 213.592V213.649H194.583V214.58H189.125ZM192.573 216V214.31L192.58 213.905V208.727H193.621V216H192.573ZM198.605 208.386L196.261 217.094H195.313L197.657 208.386H198.605ZM199.493 216V215.205L201.953 212.655C202.216 212.378 202.433 212.135 202.603 211.927C202.776 211.716 202.905 211.516 202.99 211.327C203.076 211.137 203.118 210.936 203.118 210.723C203.118 210.482 203.061 210.273 202.948 210.098C202.834 209.92 202.679 209.784 202.483 209.69C202.286 209.593 202.065 209.544 201.819 209.544C201.558 209.544 201.331 209.597 201.137 209.704C200.943 209.81 200.793 209.961 200.689 210.155C200.585 210.349 200.533 210.576 200.533 210.837H199.485C199.485 210.394 199.587 210.007 199.791 209.675C199.994 209.344 200.274 209.087 200.629 208.905C200.984 208.72 201.388 208.628 201.84 208.628C202.297 208.628 202.699 208.719 203.047 208.901C203.398 209.081 203.671 209.327 203.868 209.64C204.064 209.95 204.162 210.3 204.162 210.691C204.162 210.961 204.111 211.225 204.01 211.483C203.91 211.741 203.736 212.029 203.488 212.346C203.239 212.661 202.893 213.043 202.451 213.493L201.005 215.006V215.059H204.279V216H199.493ZM208.157 216.121C207.596 216.118 207.117 215.97 206.719 215.677C206.321 215.383 206.017 214.956 205.806 214.395C205.596 213.834 205.49 213.158 205.49 212.367C205.49 211.579 205.596 210.905 205.806 210.347C206.02 209.788 206.325 209.362 206.723 209.068C207.123 208.775 207.601 208.628 208.157 208.628C208.714 208.628 209.191 208.776 209.588 209.072C209.986 209.365 210.29 209.791 210.501 210.35C210.714 210.906 210.821 211.579 210.821 212.367C210.821 213.16 210.715 213.837 210.505 214.398C210.294 214.957 209.99 215.384 209.592 215.68C209.194 215.974 208.716 216.121 208.157 216.121ZM208.157 215.173C208.65 215.173 209.034 214.932 209.311 214.452C209.591 213.971 209.73 213.276 209.73 212.367C209.73 211.763 209.667 211.253 209.539 210.837C209.413 210.418 209.232 210.1 208.995 209.885C208.761 209.667 208.482 209.558 208.157 209.558C207.667 209.558 207.283 209.8 207.003 210.283C206.724 210.766 206.583 211.46 206.581 212.367C206.581 212.973 206.643 213.486 206.769 213.905C206.897 214.321 207.078 214.638 207.312 214.853C207.547 215.066 207.828 215.173 208.157 215.173ZM212.08 216V215.205L214.541 212.655C214.804 212.378 215.021 212.135 215.191 211.927C215.364 211.716 215.493 211.516 215.578 211.327C215.664 211.137 215.706 210.936 215.706 210.723C215.706 210.482 215.649 210.273 215.536 210.098C215.422 209.92 215.267 209.784 215.07 209.69C214.874 209.593 214.653 209.544 214.406 209.544C214.146 209.544 213.919 209.597 213.725 209.704C213.53 209.81 213.381 209.961 213.277 210.155C213.173 210.349 213.121 210.576 213.121 210.837H212.073C212.073 210.394 212.175 210.007 212.379 209.675C212.582 209.344 212.862 209.087 213.217 208.905C213.572 208.72 213.976 208.628 214.428 208.628C214.885 208.628 215.287 208.719 215.635 208.901C215.985 209.081 216.259 209.327 216.455 209.64C216.652 209.95 216.75 210.3 216.75 210.691C216.75 210.961 216.699 211.225 216.597 211.483C216.498 211.741 216.324 212.029 216.075 212.346C215.827 212.661 215.481 213.043 215.039 213.493L213.593 215.006V215.059H216.867V216H212.08ZM218.213 216V215.205L220.674 212.655C220.937 212.378 221.154 212.135 221.324 211.927C221.497 211.716 221.626 211.516 221.711 211.327C221.796 211.137 221.839 210.936 221.839 210.723C221.839 210.482 221.782 210.273 221.669 210.098C221.555 209.92 221.4 209.784 221.203 209.69C221.007 209.593 220.785 209.544 220.539 209.544C220.279 209.544 220.052 209.597 219.857 209.704C219.663 209.81 219.514 209.961 219.41 210.155C219.306 210.349 219.254 210.576 219.254 210.837H218.206C218.206 210.394 218.308 210.007 218.512 209.675C218.715 209.344 218.994 209.087 219.35 208.905C219.705 208.72 220.108 208.628 220.561 208.628C221.017 208.628 221.42 208.719 221.768 208.901C222.118 209.081 222.392 209.327 222.588 209.64C222.785 209.95 222.883 210.3 222.883 210.691C222.883 210.961 222.832 211.225 222.73 211.483C222.631 211.741 222.457 212.029 222.208 212.346C221.96 212.661 221.614 213.043 221.171 213.493L219.726 215.006V215.059H223V216H218.213Z" fill="#002E50"/>
<rect x="166" y="101" width="157" height="89" fill="#002E50" fill-opacity="0.37"/>
<path d="M257 146L237.5 157.258V134.742L257 146Z" fill="#002E50"/>
<rect x="250" y="201" width="73" height="22" fill="#002E50"/>
<path d="M271.321 208.727V216H270.44V209.509H266.776V216H265.895V208.727H271.321ZM275.2 216.114C274.707 216.114 274.275 215.996 273.904 215.762C273.534 215.528 273.245 215.2 273.037 214.778C272.831 214.357 272.728 213.865 272.728 213.301C272.728 212.733 272.831 212.237 273.037 211.813C273.245 211.389 273.534 211.06 273.904 210.826C274.275 210.592 274.707 210.474 275.2 210.474C275.692 210.474 276.123 210.592 276.492 210.826C276.864 211.06 277.153 211.389 277.359 211.813C277.567 212.237 277.671 212.733 277.671 213.301C277.671 213.865 277.567 214.357 277.359 214.778C277.153 215.2 276.864 215.528 276.492 215.762C276.123 215.996 275.692 216.114 275.2 216.114ZM275.2 215.361C275.574 215.361 275.882 215.265 276.123 215.073C276.365 214.881 276.543 214.629 276.659 214.317C276.775 214.004 276.833 213.666 276.833 213.301C276.833 212.937 276.775 212.597 276.659 212.282C276.543 211.967 276.365 211.713 276.123 211.518C275.882 211.324 275.574 211.227 275.2 211.227C274.826 211.227 274.518 211.324 274.276 211.518C274.035 211.713 273.856 211.967 273.74 212.282C273.624 212.597 273.566 212.937 273.566 213.301C273.566 213.666 273.624 214.004 273.74 214.317C273.856 214.629 274.035 214.881 274.276 215.073C274.518 215.265 274.826 215.361 275.2 215.361ZM278.951 216V210.545H279.789V212.918H280.343L282.303 210.545H283.382L281.181 213.173L283.411 216H282.331L280.542 213.699H279.789V216H278.951ZM285.927 216.128C285.581 216.128 285.268 216.063 284.986 215.933C284.704 215.8 284.48 215.609 284.315 215.361C284.149 215.11 284.066 214.807 284.066 214.452C284.066 214.139 284.128 213.886 284.251 213.692C284.374 213.495 284.538 213.341 284.744 213.23C284.95 213.119 285.178 213.036 285.426 212.982C285.677 212.925 285.929 212.88 286.183 212.847C286.514 212.804 286.783 212.772 286.989 212.751C287.197 212.727 287.348 212.688 287.443 212.634C287.54 212.579 287.589 212.484 287.589 212.349V212.321C287.589 211.971 287.493 211.698 287.301 211.504C287.112 211.31 286.824 211.213 286.438 211.213C286.038 211.213 285.724 211.301 285.497 211.476C285.27 211.651 285.11 211.838 285.018 212.037L284.222 211.753C284.364 211.421 284.554 211.163 284.79 210.979C285.03 210.792 285.29 210.661 285.572 210.588C285.856 210.512 286.135 210.474 286.41 210.474C286.585 210.474 286.786 210.496 287.013 210.538C287.243 210.579 287.464 210.663 287.678 210.79C287.893 210.918 288.072 211.111 288.214 211.369C288.356 211.627 288.427 211.973 288.427 212.406V216H287.589V215.261H287.546C287.489 215.38 287.395 215.506 287.262 215.641C287.129 215.776 286.953 215.891 286.733 215.986C286.513 216.08 286.244 216.128 285.927 216.128ZM286.055 215.375C286.386 215.375 286.665 215.31 286.893 215.18C287.122 215.049 287.295 214.881 287.411 214.675C287.53 214.469 287.589 214.253 287.589 214.026V213.259C287.553 213.301 287.475 213.34 287.354 213.376C287.236 213.409 287.099 213.438 286.942 213.464C286.789 213.488 286.638 213.509 286.491 213.528C286.347 213.545 286.23 213.559 286.14 213.571C285.922 213.599 285.719 213.646 285.529 213.71C285.342 213.771 285.191 213.865 285.075 213.99C284.961 214.113 284.904 214.281 284.904 214.494C284.904 214.786 285.012 215.006 285.227 215.155C285.445 215.302 285.721 215.375 286.055 215.375ZM289.616 214.608H290.51C290.529 214.854 290.641 215.041 290.844 215.169C291.05 215.297 291.318 215.361 291.647 215.361C291.983 215.361 292.271 215.292 292.51 215.155C292.749 215.015 292.868 214.79 292.868 214.48C292.868 214.298 292.823 214.139 292.733 214.004C292.644 213.867 292.517 213.76 292.354 213.685C292.19 213.609 291.997 213.571 291.775 213.571H290.837V212.818H291.775C292.108 212.818 292.355 212.742 292.513 212.591C292.674 212.439 292.755 212.25 292.755 212.023C292.755 211.779 292.668 211.584 292.496 211.437C292.323 211.288 292.078 211.213 291.76 211.213C291.441 211.213 291.175 211.285 290.961 211.43C290.748 211.572 290.636 211.755 290.624 211.98H289.743C289.753 211.687 289.843 211.427 290.013 211.202C290.184 210.975 290.416 210.798 290.709 210.67C291.003 210.54 291.339 210.474 291.718 210.474C292.101 210.474 292.434 210.542 292.716 210.677C293 210.809 293.219 210.991 293.373 211.22C293.529 211.447 293.607 211.705 293.607 211.994C293.607 212.302 293.521 212.551 293.348 212.74C293.175 212.929 292.958 213.064 292.698 213.145V213.202C292.904 213.216 293.083 213.282 293.234 213.401C293.388 213.517 293.508 213.669 293.593 213.859C293.678 214.046 293.721 214.253 293.721 214.48C293.721 214.812 293.632 215.1 293.454 215.347C293.277 215.59 293.033 215.78 292.723 215.915C292.413 216.047 292.059 216.114 291.661 216.114C291.275 216.114 290.93 216.051 290.624 215.925C290.319 215.798 290.076 215.621 289.896 215.396C289.719 215.169 289.625 214.906 289.616 214.608ZM296.503 216.128C296.157 216.128 295.844 216.063 295.562 215.933C295.28 215.8 295.057 215.609 294.891 215.361C294.725 215.11 294.642 214.807 294.642 214.452C294.642 214.139 294.704 213.886 294.827 213.692C294.95 213.495 295.115 213.341 295.32 213.23C295.526 213.119 295.754 213.036 296.002 212.982C296.253 212.925 296.505 212.88 296.759 212.847C297.09 212.804 297.359 212.772 297.565 212.751C297.773 212.727 297.925 212.688 298.019 212.634C298.116 212.579 298.165 212.484 298.165 212.349V212.321C298.165 211.971 298.069 211.698 297.877 211.504C297.688 211.31 297.4 211.213 297.014 211.213C296.614 211.213 296.301 211.301 296.073 211.476C295.846 211.651 295.686 211.838 295.594 212.037L294.798 211.753C294.941 211.421 295.13 211.163 295.367 210.979C295.606 210.792 295.866 210.661 296.148 210.588C296.432 210.512 296.711 210.474 296.986 210.474C297.161 210.474 297.362 210.496 297.59 210.538C297.819 210.579 298.041 210.663 298.254 210.79C298.469 210.918 298.648 211.111 298.79 211.369C298.932 211.627 299.003 211.973 299.003 212.406V216H298.165V215.261H298.122C298.066 215.38 297.971 215.506 297.838 215.641C297.706 215.776 297.529 215.891 297.309 215.986C297.089 216.08 296.82 216.128 296.503 216.128ZM296.631 215.375C296.962 215.375 297.242 215.31 297.469 215.18C297.699 215.049 297.871 214.881 297.987 214.675C298.106 214.469 298.165 214.253 298.165 214.026V213.259C298.129 213.301 298.051 213.34 297.931 213.376C297.812 213.409 297.675 213.438 297.519 213.464C297.365 213.488 297.214 213.509 297.068 213.528C296.923 213.545 296.806 213.559 296.716 213.571C296.498 213.599 296.295 213.646 296.105 213.71C295.918 213.771 295.767 213.865 295.651 213.99C295.537 214.113 295.48 214.281 295.48 214.494C295.48 214.786 295.588 215.006 295.803 215.155C296.021 215.302 296.297 215.375 296.631 215.375ZM299.79 211.327V210.545H304.222V211.327H302.433V216H301.594V211.327H299.79ZM306.169 212.52H307.732C308.371 212.52 308.86 212.682 309.198 213.006C309.537 213.331 309.706 213.741 309.706 214.239C309.706 214.565 309.63 214.862 309.479 215.13C309.327 215.395 309.105 215.607 308.811 215.766C308.518 215.922 308.158 216 307.732 216H305.445V210.545H306.283V215.219H307.732C308.063 215.219 308.335 215.131 308.548 214.956C308.762 214.781 308.868 214.556 308.868 214.281C308.868 213.992 308.762 213.757 308.548 213.575C308.335 213.392 308.063 213.301 307.732 213.301H306.169V212.52Z" fill="white"/>
<rect x="534" y="18" width="22" height="22" fill="#82A651"/>
<rect x="508" y="18" width="22" height="22" fill="#82A651"/>
<rect x="482" y="18" width="22" height="22" fill="#82A651"/>
<rect x="456" y="18" width="22" height="22" fill="#82A651"/>
<rect x="430" y="18" width="22" height="22" fill="#82A651"/>
<rect width="256" height="1" transform="matrix(1 0 0 -1 154 40)" fill="#002E50"/>
<defs>
<clipPath id="clip0_54919_1267">
<rect width="87.619" height="16" fill="white" transform="translate(24 20)"/>
</clipPath>
</defs>
</svg>
