<svg width="132" height="24" viewBox="0 0 132 24" fill="none" xmlns="http://www.w3.org/2000/svg">
<g clip-path="url(#clip0_130_2174)">
<path d="M60.0264 6.71981H55.5319C55.4465 6.71934 55.363 6.74503 55.2926 6.79343C55.2222 6.84183 55.1683 6.91063 55.1381 6.99057L51.6922 16.3438L48.3644 6.99057C48.335 6.90971 48.2815 6.83986 48.211 6.79053C48.1405 6.7412 48.0566 6.71479 47.9706 6.71489H43.3628C43.2935 6.71384 43.225 6.73047 43.1639 6.7632C43.1027 6.79592 43.0509 6.84367 43.0133 6.90196C42.9744 6.95907 42.9503 7.02505 42.9435 7.09385C42.9366 7.16265 42.9471 7.23208 42.9739 7.29578L49.5311 22.9207C49.5638 22.9967 49.6181 23.0614 49.6872 23.1069C49.7563 23.1524 49.8372 23.1766 49.92 23.1766H53.1395C53.2203 23.1764 53.2992 23.1525 53.3666 23.1079C53.434 23.0633 53.4868 22.9999 53.5185 22.9256L60.4104 7.3007C60.4394 7.23746 60.452 7.16793 60.4469 7.09854C60.4419 7.02915 60.4195 6.96216 60.3817 6.90375C60.3439 6.84534 60.292 6.79741 60.2307 6.7644C60.1695 6.73139 60.1009 6.71436 60.0313 6.71489L60.0264 6.71981Z" fill="#E1FC52"/>
<path d="M67.6302 6.71924H63.436C63.325 6.71924 63.2186 6.76332 63.1401 6.8418C63.0617 6.92027 63.0176 7.0267 63.0176 7.13767V22.3983C63.0176 22.6019 63.0985 22.7973 63.2425 22.9413C63.3865 23.0853 63.5819 23.1662 63.7855 23.1662H67.2856C67.4893 23.1662 67.6846 23.0853 67.8286 22.9413C67.9727 22.7973 68.0536 22.6019 68.0536 22.3983V7.13767C68.0523 7.02625 68.0071 6.91983 67.9278 6.84149C67.8486 6.76316 67.7416 6.71923 67.6302 6.71924Z" fill="#E1FC52"/>
<path d="M93.1107 6.71924H88.9165C88.6854 6.71924 88.498 6.90658 88.498 7.13768V22.7626C88.498 22.9936 88.6854 23.181 88.9165 23.181H93.1107C93.3418 23.181 93.5291 22.9936 93.5291 22.7626V7.13768C93.5291 6.90658 93.3418 6.71924 93.1107 6.71924Z" fill="#E1FC52"/>
<path d="M130.785 9.5006C130.401 8.52719 129.71 7.706 128.816 7.16228C127.845 6.62381 126.746 6.35843 125.636 6.39433C125.4 6.39433 125.144 6.39433 124.912 6.41894C124.578 6.44077 124.248 6.50191 123.928 6.60109C122.889 6.90826 121.931 7.44112 121.122 8.1616L121.082 7.1229C121.077 7.01491 121.031 6.91293 120.953 6.83788C120.876 6.76282 120.772 6.72037 120.664 6.71923H116.647C116.536 6.71923 116.43 6.76332 116.351 6.84179C116.273 6.92026 116.229 7.02669 116.229 7.13767V22.7576C116.229 22.8686 116.273 22.975 116.351 23.0535C116.43 23.132 116.536 23.1761 116.647 23.1761H120.841C120.952 23.1761 121.059 23.132 121.137 23.0535C121.216 22.975 121.26 22.8686 121.26 22.7576V13.3699C121.254 13.0298 121.326 12.693 121.471 12.3853C121.616 12.0771 121.816 11.7984 122.062 11.5632C122.314 11.3197 122.616 11.1347 122.948 11.0217C123.332 10.8843 123.737 10.8175 124.144 10.8248H124.376C124.733 10.8137 125.088 10.8951 125.405 11.0611C125.74 11.2558 125.996 11.5626 126.128 11.9275C126.321 12.4433 126.412 12.9918 126.394 13.5422V22.7576C126.394 22.8686 126.438 22.975 126.517 23.0535C126.595 23.132 126.701 23.1761 126.812 23.1761H131.007C131.118 23.1761 131.224 23.132 131.303 23.0535C131.381 22.975 131.425 22.8686 131.425 22.7576V13.1927C131.458 11.9317 131.241 10.6767 130.785 9.5006Z" fill="#E1FC52"/>
<path d="M80.8976 13.0456L78.0375 12.4697C76.3391 12.1005 76.349 11.554 76.3539 11.2833C76.3523 11.1735 76.3739 11.0646 76.4171 10.9637C76.4604 10.8628 76.5244 10.7721 76.605 10.6975C77.098 10.2971 77.7236 10.0968 78.3575 10.1363C79.4454 10.1363 80.2626 10.6286 80.5432 11.4605C80.5702 11.5436 80.6229 11.616 80.6937 11.6673C80.7644 11.7186 80.8496 11.7462 80.937 11.746H85.0377C85.0992 11.7461 85.1599 11.7329 85.2158 11.7071C85.2716 11.6813 85.3212 11.6437 85.361 11.5969C85.4008 11.55 85.4299 11.4951 85.4464 11.4358C85.4628 11.3765 85.4661 11.3144 85.4561 11.2538C85.018 8.01458 82.4089 6.15869 78.2886 6.15869C75.8272 6.15869 73.7645 6.8528 72.5142 8.1278C72.0685 8.57428 71.7176 9.10614 71.4824 9.6915C71.2473 10.2769 71.1327 10.9037 71.1456 11.5344C71.1456 14.1582 72.7898 15.8221 76.0684 16.4571L78.8153 17.0036C80.2921 17.3038 80.5038 17.7912 80.5137 18.1653C80.5137 18.8742 79.6079 19.3665 78.3476 19.3665C77.4566 19.3665 76.3195 19.1253 75.9502 17.9684C75.9225 17.8844 75.8691 17.8112 75.7976 17.7591C75.726 17.707 75.64 17.6786 75.5515 17.678H71.1505C71.0907 17.6769 71.0314 17.6892 70.977 17.7139C70.9225 17.7386 70.8741 17.7751 70.8355 17.8207C70.7957 17.866 70.7662 17.9194 70.7492 17.9772C70.7322 18.035 70.7281 18.0959 70.737 18.1555C71.2293 21.4242 74.0501 23.3736 78.3378 23.3736C82.7338 23.3736 85.8106 21.055 85.8204 17.7272C85.8106 15.2609 84.2008 13.7201 80.8976 13.0456Z" fill="#E1FC52"/>
<path d="M109.358 7.4972C107.986 6.76335 106.454 6.37939 104.898 6.37939C103.342 6.37939 101.81 6.76335 100.438 7.4972C99.1549 8.21583 98.0834 9.26008 97.3321 10.5247C96.5615 11.8599 96.1684 13.3794 96.1949 14.9207C96.1651 16.4734 96.5582 18.0049 97.3321 19.3512C98.0769 20.624 99.1519 21.6717 100.443 22.3837C101.817 23.108 103.347 23.4865 104.901 23.4865C106.454 23.4865 107.984 23.108 109.358 22.3837C110.647 21.6708 111.717 20.6209 112.455 19.3463C113.213 18.0052 113.599 16.4857 113.572 14.9454C113.601 13.4072 113.214 11.8898 112.45 10.5542C111.712 9.27671 110.644 8.2209 109.358 7.4972ZM109.019 10.8299V19.1199H100.749V10.8447L109.019 10.8299Z" fill="#E1FC52"/>
<path d="M67.1581 0.492277C66.6743 0.17738 66.1108 0.00664044 65.5336 0C65.0596 0.000488093 64.5944 0.128188 64.1865 0.369774C63.7787 0.61136 63.4432 0.957976 63.215 1.37345C62.9757 1.82452 62.8652 2.33276 62.8956 2.84247C62.9259 3.35218 63.0961 3.84368 63.3873 4.26312C63.5176 4.47246 63.6924 4.65059 63.8992 4.78493C64.3817 5.09894 64.9433 5.26964 65.5188 5.27721C65.9922 5.27669 66.4569 5.14951 66.8646 4.90887C67.2723 4.66823 67.6082 4.3229 67.8375 3.90868C68.0766 3.45671 68.1871 2.94771 68.1567 2.43726C68.1263 1.9268 67.9563 1.4345 67.6652 1.01409C67.5326 0.808073 67.3602 0.630653 67.1581 0.492277Z" fill="#E1FC52"/>
<path d="M92.6363 0.492277C92.1525 0.17738 91.5891 0.00664044 91.0118 0C90.5378 0.000488093 90.0726 0.128188 89.6648 0.369774C89.2569 0.61136 88.9214 0.957976 88.6932 1.37345C88.4528 1.82421 88.3417 2.33263 88.3721 2.84257C88.4025 3.35251 88.5733 3.84412 88.8655 4.26312C88.9995 4.47583 89.1795 4.65581 89.3922 4.78986C89.8747 5.10386 90.4363 5.27456 91.0118 5.28213C91.4866 5.282 91.9526 5.1545 92.3613 4.91293C92.77 4.67135 93.1064 4.32454 93.3354 3.90868C93.5749 3.45658 93.6851 2.94715 93.6539 2.43646C93.6226 1.92577 93.4511 1.43359 93.1582 1.01409C93.0231 0.805182 92.8453 0.627324 92.6363 0.492277Z" fill="#E1FC52"/>
<path d="M18.3784 6.57682H14.1793C14.0683 6.57682 13.9619 6.62091 13.8834 6.69938C13.805 6.77785 13.7609 6.88428 13.7609 6.99526V7.93551C13.5541 7.79275 13.3572 7.66968 13.1554 7.55153C11.8003 6.80154 10.2736 6.41648 8.72488 6.43406C7.16151 6.41126 5.61919 6.79641 4.25008 7.55153C2.96353 8.27219 1.89024 9.32 1.13889 10.5889C0.367597 11.9237 -0.0255273 13.4435 0.00173376 14.9849C-0.0295726 16.5377 0.363614 18.0696 1.13889 19.4154C1.88373 20.6881 2.95869 21.7359 4.25008 22.4478C5.62134 23.1959 7.16306 23.5758 8.72488 23.5505C10.272 23.5706 11.7981 23.1908 13.1554 22.4478C13.4319 22.3017 13.6983 22.1372 13.9529 21.9556L13.9972 22.822C14.0022 22.9295 14.0485 23.0309 14.1265 23.1052C14.2044 23.1795 14.308 23.2208 14.4156 23.2207H18.3538C18.4648 23.2207 18.5712 23.1766 18.6497 23.0982C18.7282 23.0197 18.7723 22.9132 18.7723 22.8023V7.0051C18.775 6.89657 18.7355 6.79123 18.662 6.71131C18.5885 6.6314 18.4868 6.58317 18.3784 6.57682ZM13.3375 10.8449V19.12H5.06234V10.8449H13.3375Z" fill="#E1FC52"/>
<path fill-rule="evenodd" clip-rule="evenodd" d="M35.762 0.487305H39.9562C40.0642 0.492327 40.1661 0.538469 40.2412 0.616271C40.3163 0.694074 40.3587 0.797642 40.3598 0.90574V22.8022C40.3586 22.9137 40.3134 23.0201 40.2341 23.0984C40.1549 23.1767 40.0479 23.2207 39.9365 23.2207H35.9983C35.8915 23.2195 35.7892 23.1776 35.7123 23.1035C35.6354 23.0293 35.5898 22.9286 35.5848 22.8219L35.5405 21.9555C35.2842 22.1372 35.0161 22.3017 34.738 22.4478C33.363 23.1721 31.8322 23.5506 30.278 23.5506C28.7238 23.5506 27.193 23.1721 25.818 22.4478C24.5252 21.7359 23.4486 20.6883 22.7019 19.4154C21.9289 18.0686 21.5359 16.5374 21.5647 14.9849C21.5299 13.4766 21.9071 11.9875 22.6557 10.6777C23.4043 9.36789 24.4959 8.28704 25.8131 7.55148C27.1869 6.81761 28.7204 6.43368 30.278 6.43368C31.8356 6.43368 33.3691 6.81761 34.743 7.55148C34.9448 7.66963 35.1417 7.7927 35.3435 7.93546V0.90574C35.3448 0.795161 35.3893 0.689472 35.4675 0.611275C35.5457 0.533079 35.6514 0.488583 35.762 0.487305ZM26.5195 10.8496H34.7947V19.1248H26.5195V10.8496Z" fill="#E1FC52"/>
</g>
<defs>
<clipPath id="clip0_130_2174">
<rect width="131.429" height="24" fill="white"/>
</clipPath>
</defs>
</svg>
