<svg width="189" height="35" viewBox="0 0 189 35" fill="none" xmlns="http://www.w3.org/2000/svg">
<g clip-path="url(#clip0_130_1845)">
<path d="M86.1235 9.64189H79.6747C79.5521 9.64122 79.4322 9.67808 79.3312 9.74753C79.2302 9.81698 79.1529 9.91568 79.1096 10.0304L74.1653 23.4507L69.3904 10.0304C69.3483 9.91436 69.2715 9.81414 69.1704 9.74336C69.0693 9.67258 68.9488 9.63469 68.8254 9.63483H62.2141C62.1146 9.63333 62.0163 9.65718 61.9286 9.70414C61.8408 9.7511 61.7665 9.81962 61.7126 9.90324C61.6567 9.98519 61.6222 10.0799 61.6123 10.1786C61.6024 10.2773 61.6175 10.3769 61.6561 10.4683L71.0644 32.8874C71.1114 32.9964 71.1892 33.0893 71.2884 33.1546C71.3876 33.2199 71.5037 33.2547 71.6224 33.2547H76.2419C76.3578 33.2543 76.4711 33.22 76.5678 33.156C76.6644 33.092 76.7402 33.0011 76.7858 32.8944L86.6744 10.4754C86.716 10.3846 86.7341 10.2849 86.7269 10.1853C86.7197 10.0857 86.6874 9.98962 86.6332 9.90581C86.579 9.82201 86.5045 9.75324 86.4166 9.70587C86.3288 9.65851 86.2304 9.63407 86.1306 9.63483L86.1235 9.64189Z" fill="#002E50"/>
<path d="M97.0402 9.64111H91.0223C90.863 9.64111 90.7103 9.70437 90.5977 9.81696C90.4851 9.92956 90.4219 10.0823 90.4219 10.2415V32.1379C90.4219 32.4301 90.538 32.7104 90.7446 32.917C90.9512 33.1237 91.2315 33.2398 91.5238 33.2398H96.5458C96.838 33.2398 97.1183 33.1237 97.3249 32.917C97.5316 32.7104 97.6477 32.4301 97.6477 32.1379V10.2415C97.6458 10.0816 97.581 9.92892 97.4673 9.81653C97.3536 9.70413 97.2001 9.6411 97.0402 9.64111Z" fill="#002E50"/>
<path d="M133.599 9.64111H127.581C127.249 9.64111 126.98 9.90992 126.98 10.2415V32.6606C126.98 32.9922 127.249 33.261 127.581 33.261H133.599C133.93 33.261 134.199 32.9922 134.199 32.6606V10.2415C134.199 9.90992 133.93 9.64111 133.599 9.64111Z" fill="#002E50"/>
<path d="M187.652 13.6315C187.101 12.2348 186.109 11.0566 184.827 10.2764C183.433 9.5038 181.856 9.12302 180.264 9.17453C179.925 9.17453 179.557 9.17454 179.225 9.20985C178.746 9.24118 178.272 9.32889 177.813 9.4712C176.322 9.91193 174.947 10.6765 173.787 11.7103L173.73 10.2199C173.723 10.065 173.657 9.91865 173.545 9.81095C173.433 9.70326 173.285 9.64235 173.13 9.64071H167.366C167.207 9.64071 167.054 9.70397 166.941 9.81657C166.829 9.92916 166.766 10.0819 166.766 10.2411V32.6531C166.766 32.8123 166.829 32.9651 166.941 33.0776C167.054 33.1902 167.207 33.2535 167.366 33.2535H173.384C173.543 33.2535 173.696 33.1902 173.809 33.0776C173.921 32.9651 173.984 32.8123 173.984 32.6531V19.1833C173.976 18.6954 174.08 18.2121 174.288 17.7706C174.495 17.3284 174.783 16.9284 175.136 16.5911C175.497 16.2415 175.931 15.9762 176.407 15.8141C176.957 15.6168 177.539 15.5211 178.124 15.5315H178.455C178.969 15.5156 179.477 15.6324 179.932 15.8706C180.413 16.1499 180.781 16.5901 180.97 17.1137C181.247 17.8538 181.377 18.6408 181.351 19.4305V32.6531C181.351 32.8123 181.415 32.9651 181.527 33.0776C181.64 33.1902 181.793 33.2535 181.952 33.2535H187.97C188.129 33.2535 188.282 33.1902 188.394 33.0776C188.507 32.9651 188.57 32.8123 188.57 32.6531V18.929C188.618 17.1198 188.306 15.3191 187.652 13.6315Z" fill="#002E50"/>
<path d="M116.074 18.7181L111.97 17.8916C109.533 17.3619 109.547 16.5779 109.554 16.1894C109.552 16.0318 109.583 15.8756 109.645 15.7308C109.707 15.586 109.799 15.4558 109.914 15.3488C110.622 14.7744 111.519 14.4869 112.429 14.5436C113.99 14.5436 115.162 15.2499 115.565 16.4437C115.604 16.5629 115.679 16.6668 115.781 16.7404C115.883 16.814 116.005 16.8535 116.13 16.8533H122.014C122.102 16.8535 122.189 16.8344 122.269 16.7974C122.35 16.7605 122.421 16.7065 122.478 16.6393C122.535 16.5721 122.577 16.4932 122.6 16.4082C122.624 16.3232 122.629 16.234 122.614 16.147C121.986 11.4993 118.242 8.83643 112.33 8.83643C108.798 8.83643 105.839 9.83236 104.045 11.6618C103.405 12.3024 102.902 13.0655 102.564 13.9054C102.227 14.7453 102.063 15.6447 102.081 16.5496C102.081 20.3144 104.44 22.7018 109.145 23.613L113.086 24.397C115.205 24.8278 115.509 25.5271 115.523 26.0639C115.523 27.0811 114.223 27.7874 112.415 27.7874C111.136 27.7874 109.505 27.4413 108.975 25.7814C108.935 25.6609 108.859 25.5558 108.756 25.4811C108.653 25.4063 108.53 25.3656 108.403 25.3647H102.088C102.002 25.3632 101.917 25.3808 101.839 25.4162C101.761 25.4516 101.692 25.504 101.636 25.5695C101.579 25.6344 101.537 25.7111 101.512 25.794C101.488 25.877 101.482 25.9643 101.495 26.0498C102.201 30.7399 106.249 33.537 112.401 33.537C118.708 33.537 123.123 30.2101 123.137 25.4353C123.123 21.8966 120.813 19.6857 116.074 18.7181Z" fill="#002E50"/>
<path d="M156.909 10.7572C154.94 9.70423 152.742 9.15332 150.51 9.15332C148.277 9.15332 146.079 9.70423 144.11 10.7572C142.269 11.7883 140.731 13.2866 139.653 15.1011C138.548 17.0169 137.984 19.1971 138.022 21.4087C137.979 23.6365 138.543 25.8339 139.653 27.7657C140.722 29.5919 142.265 31.0952 144.117 32.1167C146.089 33.156 148.284 33.6991 150.513 33.6991C152.742 33.6991 154.937 33.156 156.909 32.1167C158.758 31.0939 160.294 29.5874 161.352 27.7587C162.44 25.8344 162.994 23.6542 162.955 21.444C162.997 19.237 162.441 17.0598 161.345 15.1435C160.286 13.3105 158.754 11.7956 156.909 10.7572ZM156.422 15.5391V27.4338H144.555V15.5603L156.422 15.5391Z" fill="#002E50"/>
<path d="M96.3614 0.706335C95.6672 0.25451 94.8588 0.00952791 94.0305 0C93.3504 0.000700331 92.6829 0.183928 92.0977 0.530563C91.5125 0.877199 91.0311 1.37453 90.7037 1.97067C90.3603 2.61788 90.2018 3.34712 90.2454 4.07846C90.289 4.80981 90.5331 5.51504 90.9509 6.11686C91.138 6.41722 91.3887 6.67282 91.6855 6.86557C92.3777 7.31612 93.1835 7.56105 94.0093 7.57191C94.6886 7.57116 95.3553 7.38869 95.9403 7.04341C96.5253 6.69813 97.0072 6.20263 97.3361 5.6083C97.6793 4.95979 97.8378 4.22947 97.7942 3.49705C97.7506 2.76463 97.5066 2.05826 97.0889 1.45505C96.8988 1.15945 96.6514 0.90488 96.3614 0.706335Z" fill="#002E50"/>
<path d="M132.918 0.706335C132.224 0.25451 131.416 0.00952791 130.588 0C129.907 0.000700331 129.24 0.183928 128.655 0.530563C128.07 0.877198 127.588 1.37453 127.261 1.97067C126.916 2.61743 126.756 3.34693 126.8 4.07861C126.844 4.81028 127.089 5.51567 127.508 6.11686C127.7 6.42206 127.959 6.6803 128.264 6.87264C128.956 7.32318 129.762 7.56811 130.588 7.57897C131.269 7.57879 131.937 7.39584 132.524 7.04922C133.11 6.7026 133.593 6.20499 133.921 5.6083C134.265 4.9596 134.423 4.22867 134.378 3.49591C134.334 2.76315 134.087 2.05697 133.667 1.45505C133.473 1.1553 133.218 0.900105 132.918 0.706335Z" fill="#002E50"/>
<path d="M26.37 9.43668H20.3449C20.1857 9.43668 20.033 9.49993 19.9204 9.61253C19.8078 9.72512 19.7445 9.87783 19.7445 10.0371V11.3862C19.4479 11.1813 19.1653 11.0047 18.8757 10.8352C16.9314 9.75911 14.7409 9.20661 12.5187 9.23184C10.2756 9.19912 8.0626 9.75176 6.09816 10.8352C4.25217 11.8692 2.71218 13.3727 1.63412 15.1933C0.52744 17.1086 -0.0366274 19.2892 0.00248765 21.5009C-0.0424316 23.7289 0.521725 25.9269 1.63412 27.8579C2.70283 29.684 4.24522 31.1874 6.09816 32.2089C8.06567 33.2823 10.2778 33.8274 12.5187 33.7911C14.7386 33.8199 16.9283 33.2749 18.8757 32.2089C19.2724 31.9992 19.6547 31.7632 20.02 31.5026L20.0836 32.7457C20.0909 32.9 20.1573 33.0456 20.2691 33.1521C20.3809 33.2587 20.5295 33.318 20.684 33.3179H26.3346C26.4939 33.3179 26.6466 33.2546 26.7592 33.142C26.8718 33.0294 26.935 32.8767 26.935 32.7175V10.0512C26.939 9.89547 26.8822 9.74431 26.7768 9.62965C26.6713 9.51499 26.5255 9.44579 26.37 9.43668ZM19.1371 15.5606V27.4341H7.26361V15.5606H19.1371Z" fill="#002E50"/>
<path fill-rule="evenodd" clip-rule="evenodd" d="M51.3114 0.69873H57.3293C57.4843 0.705936 57.6306 0.772143 57.7383 0.883776C57.846 0.995409 57.9069 1.14401 57.9085 1.29912V32.7169C57.9067 32.8768 57.8419 33.0295 57.7281 33.1419C57.6144 33.2543 57.461 33.3173 57.3011 33.3173H51.6504C51.4972 33.3156 51.3504 33.2555 51.2401 33.1491C51.1297 33.0427 51.0643 32.8982 51.0571 32.7451L50.9935 31.502C50.6258 31.7627 50.2412 31.9987 49.8422 32.2083C47.8692 33.2476 45.6728 33.7907 43.4428 33.7907C41.2128 33.7907 39.0164 33.2476 37.0434 32.2083C35.1885 31.187 33.6438 29.6837 32.5723 27.8573C31.4632 25.925 30.8993 23.7279 30.9407 21.5003C30.8908 19.3362 31.432 17.1996 32.5061 15.3202C33.5801 13.4409 35.1464 11.89 37.0363 10.8346C39.0076 9.78165 41.2079 9.23078 43.4428 9.23078C45.6776 9.23078 47.878 9.78165 49.8492 10.8346C50.1388 11.0042 50.4214 11.1807 50.711 11.3856V1.29912C50.7128 1.14045 50.7767 0.988806 50.8889 0.876608C51.0011 0.764409 51.1527 0.700565 51.3114 0.69873ZM38.0469 15.5664H49.9204V27.4399H38.0469V15.5664Z" fill="#002E50"/>
</g>
<defs>
<clipPath id="clip0_130_1845">
<rect width="188.578" height="34.436" fill="white"/>
</clipPath>
</defs>
</svg>
